SplineFontDB: 3.2
FontName: hindi15m
FullName: hindi15m
FamilyName: hindi15m
Weight: Regular
Copyright: Copyright 2022 The Noto Project Authors (https://github.com/notofonts/devanagari)
Version: 2.006
ItalicAngle: 0
UnderlinePosition: -128
UnderlineWidth: 51
Ascent: 819
Descent: 205
InvalidEm: 0
sfntRevision: 0x00020189
LayerCount: 2
Layer: 0 1 "Back" 1
Layer: 1 1 "Fore" 0
XUID: [1021 242 -508030597 9470343]
StyleMap: 0x0040
FSType: 0
OS2Version: 4
OS2_WeightWidthSlopeOnly: 0
OS2_UseTypoMetrics: 1
CreationTime: 1432194851
ModificationTime: 1742468125
PfmFamily: 81
TTFWeight: 400
TTFWidth: 5
LineGap: 0
VLineGap: 0
Panose: 0 0 0 0 0 0 0 0 0 0
OS2TypoAscent: 918
OS2TypoAOffset: 0
OS2TypoDescent: -418
OS2TypoDOffset: 0
OS2TypoLinegap: 0
OS2WinAscent: 1380
OS2WinAOffset: 0
OS2WinDescent: 571
OS2WinDOffset: 0
HheadAscent: 918
HheadAOffset: 0
HheadDescent: -418
HheadDOffset: 0
OS2SubXSize: 666
OS2SubYSize: 614
OS2SubXOff: 0
OS2SubYOff: 77
OS2SupXSize: 666
OS2SupYSize: 614
OS2SupXOff: 0
OS2SupYOff: 358
OS2StrikeYSize: 51
OS2StrikeYPos: 330
OS2CapHeight: 637
OS2XHeight: 549
OS2Vendor: 'GOOG'
OS2CodePages: 00000013.00000000
OS2UnicodeRanges: 80008023.00002046.00000000.00000000
MarkAttachClasses: 1
MarkAttachSets: 10
"MarkSet-0" 68 uni0902 uni0901 uni0930094D uni0930094D0902 uni0930094D0901 NullMark
"MarkSet-1" 143 visargaUdattavedic reversedVisargaUdattavedic visargaAnudattavedic reversedVisargaAnudattavedic visargaUdattaTailvedic visargaAnudattaTailvedic
"MarkSet-2" 101 uni20F0 acutecomb uni0306 uni030C uni0302 uni0308 uni0307 gravecomb uni030B uni0304 uni030A tildecomb
"MarkSet-3" 49 uni0306 uni030C uni0302 uni0308 uni0304 tildecomb
"MarkSet-4" 83 uni0945 uni0955 uni0901 invertedCandrabindudeva uni0902.alt uni09450902 uni09450901
"MarkSet-5" 27 uni0941 uni094D uni093C094D

StartChar: exclam
Encoding: 33 33 2
Width: 600
GlyphClass: 1
Flags: W
LayerCount: 2
Fore
SplineSet
295 115 m 0,0,1
 279 115 279 115 269.5 126 c 128,-1,2
 260 137 260 137 255.5 165 c 128,-1,3
 251 193 251 193 250 239.5 c 128,-1,4
 249 286 249 286 249 356 c 0,5,6
 249 455 249 455 250 510.5 c 128,-1,7
 251 566 251 566 257 593 c 128,-1,8
 263 620 263 620 276 625.5 c 128,-1,9
 289 631 289 631 312 631 c 0,10,11
 324 631 324 631 331.5 623.5 c 128,-1,12
 339 616 339 616 343.5 592.5 c 128,-1,13
 348 569 348 569 349.5 523 c 128,-1,14
 351 477 351 477 351 398 c 0,15,16
 351 255 351 255 341 185 c 128,-1,17
 331 115 331 115 295 115 c 0,0,1
282 607 m 0,18,19
 278 607 278 607 271.5 595 c 128,-1,20
 265 583 265 583 265 557 c 0,21,22
 265 544 265 544 266.5 531 c 128,-1,23
 268 518 268 518 275 518 c 0,24,25
 281 518 281 518 283.5 522 c 128,-1,26
 286 526 286 526 286 532 c 128,-1,27
 286 538 286 538 285.5 545 c 128,-1,28
 285 552 285 552 285 558 c 0,29,30
 286 575 286 575 288 591 c 128,-1,31
 290 607 290 607 282 607 c 0,18,19
296 -8 m 0,32,33
 277 -8 277 -8 265 4.5 c 128,-1,34
 253 17 253 17 253 39 c 0,35,36
 253 58 253 58 263 75 c 128,-1,37
 273 92 273 92 296 92 c 0,38,39
 320 92 320 92 332 76 c 128,-1,40
 344 60 344 60 344 39 c 0,41,42
 344 15 344 15 330 3.5 c 128,-1,43
 316 -8 316 -8 296 -8 c 0,32,33
278 45 m 0,44,45
 279 56 279 56 283 65.5 c 128,-1,46
 287 75 287 75 282 75 c 0,47,48
 275 75 275 75 270 60 c 128,-1,49
 265 45 265 45 265 34 c 0,50,51
 265 24 265 24 270 24 c 0,52,53
 274 24 274 24 275.5 31.5 c 128,-1,54
 277 39 277 39 278 45 c 0,44,45
EndSplineSet
EndChar

StartChar: quotedbl
Encoding: 34 34 3
Width: 600
GlyphClass: 1
Flags: W
LayerCount: 2
Fore
SplineSet
255 731 m 1,0,-1
 234 467 l 1,1,-1
 178 467 l 1,2,-1
 158 731 l 1,3,-1
 255 731 l 1,0,-1
442 731 m 1,4,-1
 422 467 l 1,5,-1
 365 467 l 1,6,-1
 345 731 l 1,7,-1
 442 731 l 1,4,-1
EndSplineSet
EndChar

StartChar: numbersign
Encoding: 35 35 4
Width: 600
GlyphClass: 1
Flags: W
LayerCount: 2
Fore
SplineSet
314.954101562 111 m 0,0,1
 296.954101562 111 296.954101562 111 289.954101562 123 c 128,-1,2
 282.954101562 135 282.954101562 135 281.954101562 151 c 0,3,4
 280.954101562 168 280.954101562 168 287.454101562 185.5 c 128,-1,5
 293.954101562 203 293.954101562 203 292.954101562 216 c 0,6,7
 292.954101562 219 292.954101562 219 285.454101562 220 c 128,-1,8
 277.954101562 221 277.954101562 221 275.954101562 221 c 2,9,-1
 243.954101562 221 l 1,10,11
 240.954101562 212 240.954101562 212 234.954101562 196.5 c 128,-1,12
 228.954101562 181 228.954101562 181 220.454101562 166 c 128,-1,13
 211.954101562 151 211.954101562 151 201.454101562 140 c 128,-1,14
 190.954101562 129 190.954101562 129 177.954101562 129 c 0,15,16
 161.954101562 129 161.954101562 129 154.954101562 139.5 c 128,-1,17
 147.954101562 150 147.954101562 150 146.954101562 164 c 0,18,19
 145.954101562 181 145.954101562 181 150.454101562 192 c 128,-1,20
 154.954101562 203 154.954101562 203 153.954101562 219 c 0,21,22
 153.954101562 227 153.954101562 227 144.454101562 227.5 c 128,-1,23
 134.954101562 228 134.954101562 228 122.454101562 230 c 128,-1,24
 109.954101562 232 109.954101562 232 99.4541015625 240 c 128,-1,25
 88.9541015625 248 88.9541015625 248 87.9541015625 270 c 0,26,27
 87.9541015625 282 87.9541015625 282 94.4541015625 290 c 128,-1,28
 100.954101562 298 100.954101562 298 109.954101562 302 c 128,-1,29
 118.954101562 306 118.954101562 306 130.454101562 307.5 c 128,-1,30
 141.954101562 309 141.954101562 309 151.954101562 309 c 0,31,32
 163.954101562 309 163.954101562 309 171.954101562 317 c 128,-1,33
 179.954101562 325 179.954101562 325 183.954101562 336 c 128,-1,34
 187.954101562 347 187.954101562 347 190.454101562 359.5 c 128,-1,35
 192.954101562 372 192.954101562 372 194.954101562 381 c 1,36,37
 186.954101562 381 186.954101562 381 174.454101562 382.5 c 128,-1,38
 161.954101562 384 161.954101562 384 150.454101562 387.5 c 128,-1,39
 138.954101562 391 138.954101562 391 130.454101562 399 c 128,-1,40
 121.954101562 407 121.954101562 407 121.954101562 419 c 0,41,42
 120.954101562 446 120.954101562 446 135.954101562 453 c 128,-1,43
 150.954101562 460 150.954101562 460 189.954101562 460 c 0,44,45
 205.954101562 460 205.954101562 460 212.454101562 463.5 c 128,-1,46
 218.954101562 467 218.954101562 467 223.954101562 483 c 0,47,48
 226.954101562 490 226.954101562 490 229.954101562 501 c 128,-1,49
 232.954101562 512 232.954101562 512 238.454101562 522 c 128,-1,50
 243.954101562 532 243.954101562 532 253.454101562 539.5 c 128,-1,51
 262.954101562 547 262.954101562 547 277.954101562 547 c 0,52,53
 297.954101562 547 297.954101562 547 305.954101562 534.5 c 128,-1,54
 313.954101562 522 313.954101562 522 314.954101562 511 c 0,55,56
 314.954101562 501 314.954101562 501 311.454101562 492 c 128,-1,57
 307.954101562 483 307.954101562 483 308.954101562 473 c 0,58,59
 308.954101562 468 308.954101562 468 313.454101562 465.5 c 128,-1,60
 317.954101562 463 317.954101562 463 323.454101562 461.5 c 128,-1,61
 328.954101562 460 328.954101562 460 334.954101562 460 c 128,-1,62
 340.954101562 460 340.954101562 460 343.954101562 460 c 0,63,64
 353.954101562 460 353.954101562 460 360.454101562 472 c 128,-1,65
 366.954101562 484 366.954101562 484 372.954101562 499.5 c 128,-1,66
 378.954101562 515 378.954101562 515 387.454101562 527.5 c 128,-1,67
 395.954101562 540 395.954101562 540 410.954101562 540 c 0,68,69
 430.954101562 540 430.954101562 540 440.454101562 523.5 c 128,-1,70
 449.954101562 507 449.954101562 507 450.954101562 495 c 0,71,72
 450.954101562 487 450.954101562 487 447.954101562 479 c 128,-1,73
 444.954101562 471 444.954101562 471 444.954101562 462 c 0,74,75
 444.954101562 455 444.954101562 455 455.454101562 454.5 c 128,-1,76
 465.954101562 454 465.954101562 454 478.454101562 452.5 c 128,-1,77
 490.954101562 451 490.954101562 451 500.954101562 445 c 128,-1,78
 510.954101562 439 510.954101562 439 511.954101562 422 c 0,79,80
 512.954101562 408 512.954101562 408 502.954101562 399.5 c 128,-1,81
 492.954101562 391 492.954101562 391 478.954101562 386.5 c 128,-1,82
 464.954101562 382 464.954101562 382 449.954101562 380.5 c 128,-1,83
 434.954101562 379 434.954101562 379 424.954101562 379 c 1,84,85
 417.954101562 360 417.954101562 360 413.454101562 343.5 c 128,-1,86
 408.954101562 327 408.954101562 327 401.954101562 306 c 1,87,88
 412.954101562 306 412.954101562 306 425.454101562 306.5 c 128,-1,89
 437.954101562 307 437.954101562 307 447.954101562 304.5 c 128,-1,90
 457.954101562 302 457.954101562 302 464.454101562 295 c 128,-1,91
 470.954101562 288 470.954101562 288 471.954101562 271 c 0,92,93
 472.954101562 257 472.954101562 257 466.954101562 247.5 c 128,-1,94
 460.954101562 238 460.954101562 238 450.954101562 231.5 c 128,-1,95
 440.954101562 225 440.954101562 225 428.954101562 222.5 c 128,-1,96
 416.954101562 220 416.954101562 220 405.954101562 220 c 2,97,-1
 400.954101562 220 l 1,98,-1
 389.954101562 221 l 1,99,-1
 383.954101562 221 l 1,100,101
 380.954101562 209 380.954101562 209 377.454101562 190.5 c 128,-1,102
 373.954101562 172 373.954101562 172 367.454101562 154 c 128,-1,103
 360.954101562 136 360.954101562 136 348.954101562 123.5 c 128,-1,104
 336.954101562 111 336.954101562 111 314.954101562 111 c 0,0,1
244.954101562 468 m 0,105,106
 247.954101562 468 247.954101562 468 251.954101562 474 c 128,-1,107
 255.954101562 480 255.954101562 480 259.954101562 488 c 128,-1,108
 263.954101562 496 263.954101562 496 266.954101562 504 c 128,-1,109
 269.954101562 512 269.954101562 512 269.954101562 515 c 0,110,111
 269.954101562 520 269.954101562 520 264.954101562 520 c 0,112,113
 260.954101562 521 260.954101562 521 255.954101562 516 c 128,-1,114
 250.954101562 511 250.954101562 511 247.454101562 504 c 128,-1,115
 243.954101562 497 243.954101562 497 241.454101562 489 c 128,-1,116
 238.954101562 481 238.954101562 481 238.954101562 477 c 0,117,118
 238.954101562 474 238.954101562 474 240.954101562 471 c 128,-1,119
 242.954101562 468 242.954101562 468 244.954101562 468 c 0,105,106
140.954101562 414 m 0,120,121
 145.954101562 414 145.954101562 414 148.954101562 425 c 128,-1,122
 151.954101562 436 151.954101562 436 150.954101562 440 c 0,123,124
 150.954101562 444 150.954101562 444 147.954101562 444 c 0,125,126
 142.954101562 446 142.954101562 446 138.454101562 439 c 128,-1,127
 133.954101562 432 133.954101562 432 134.954101562 426 c 0,128,129
 134.954101562 414 134.954101562 414 140.954101562 414 c 0,120,121
290.954101562 305 m 0,130,131
 301.954101562 305 301.954101562 305 310.454101562 313 c 128,-1,132
 318.954101562 321 318.954101562 321 323.954101562 331.5 c 128,-1,133
 328.954101562 342 328.954101562 342 330.954101562 354 c 128,-1,134
 332.954101562 366 332.954101562 366 332.954101562 375 c 0,135,136
 332.954101562 378 332.954101562 378 331.954101562 381 c 128,-1,137
 330.954101562 384 330.954101562 384 326.954101562 384 c 0,138,139
 302.954101562 384 302.954101562 384 293.954101562 378 c 128,-1,140
 284.954101562 372 284.954101562 372 276.954101562 350 c 0,141,142
 274.954101562 344 274.954101562 344 270.454101562 330.5 c 128,-1,143
 265.954101562 317 265.954101562 317 266.954101562 311 c 2,144,-1
 266.954101562 310 l 1,145,146
 271.954101562 307 271.954101562 307 278.454101562 306 c 128,-1,147
 284.954101562 305 284.954101562 305 290.954101562 305 c 0,130,131
121.954101562 286 m 0,148,149
 121.954101562 292 121.954101562 292 114.954101562 292 c 0,150,151
 105.954101562 292 105.954101562 292 102.954101562 279.5 c 128,-1,152
 99.9541015625 267 99.9541015625 267 101.954101562 262 c 256,153,154
 103.954101562 257 103.954101562 257 105.954101562 256 c 0,155,156
 107.954101562 256 107.954101562 256 110.954101562 259.5 c 128,-1,157
 113.954101562 263 113.954101562 263 116.454101562 268 c 128,-1,158
 118.954101562 273 118.954101562 273 120.454101562 278.5 c 128,-1,159
 121.954101562 284 121.954101562 284 121.954101562 286 c 0,148,149
EndSplineSet
EndChar

StartChar: percent
Encoding: 37 37 5
Width: 600
GlyphClass: 1
Flags: W
LayerCount: 2
Fore
SplineSet
160 -6 m 0,0,1
 156 -6 156 -6 148 -4 c 128,-1,2
 140 -2 140 -2 133 2 c 128,-1,3
 126 6 126 6 120.5 11.5 c 128,-1,4
 115 17 115 17 115 24 c 0,5,6
 115 31 115 31 119.5 48 c 128,-1,7
 124 65 124 65 136 95.5 c 128,-1,8
 148 126 148 126 170 172.5 c 128,-1,9
 192 219 192 219 228 287 c 0,10,11
 283 392 283 392 317.5 460.5 c 128,-1,12
 352 529 352 529 374 569 c 0,13,14
 396 610 396 610 413.5 622 c 128,-1,15
 431 634 431 634 444 634 c 0,16,17
 461 634 461 634 468 621.5 c 128,-1,18
 475 609 475 609 474 591 c 128,-1,19
 473 573 473 573 467.5 554.5 c 128,-1,20
 462 536 462 536 455 522 c 0,21,22
 441 492 441 492 417.5 444.5 c 128,-1,23
 394 397 394 397 367 343.5 c 128,-1,24
 340 290 340 290 311.5 234.5 c 128,-1,25
 283 179 283 179 259.5 133.5 c 128,-1,26
 236 88 236 88 220.5 57.5 c 128,-1,27
 205 27 205 27 202 23 c 0,28,29
 191 6 191 6 180 0 c 128,-1,30
 169 -6 169 -6 160 -6 c 0,0,1
166 402 m 0,31,32
 142 402 142 402 124 412 c 128,-1,33
 106 422 106 422 94 438.5 c 128,-1,34
 82 455 82 455 75.5 476.5 c 128,-1,35
 69 498 69 498 69 522 c 0,36,37
 69 541 69 541 76 561 c 128,-1,38
 83 581 83 581 95 596.5 c 128,-1,39
 107 612 107 612 124.5 622.5 c 128,-1,40
 142 633 142 633 164 633 c 0,41,42
 207 633 207 633 231.5 609 c 128,-1,43
 256 585 256 585 256 529 c 0,44,45
 256 501 256 501 248.5 478.5 c 128,-1,46
 241 456 241 456 229 439 c 128,-1,47
 217 422 217 422 200.5 412 c 128,-1,48
 184 402 184 402 166 402 c 0,31,32
166 471 m 0,49,50
 173 471 173 471 178 476.5 c 128,-1,51
 183 482 183 482 186 491 c 128,-1,52
 189 500 189 500 190.5 510 c 128,-1,53
 192 520 192 520 192 529 c 0,54,55
 192 546 192 546 185 558.5 c 128,-1,56
 178 571 178 571 166 571 c 0,57,58
 155 571 155 571 146.5 556.5 c 128,-1,59
 138 542 138 542 138 524 c 256,60,61
 138 507 138 507 145.5 489 c 128,-1,62
 153 471 153 471 166 471 c 0,49,50
96 524 m 256,63,64
 96 540 96 540 96 548 c 128,-1,65
 96 556 96 556 93 556 c 0,66,67
 87 556 87 556 85 543 c 128,-1,68
 83 530 83 530 83 526 c 0,69,70
 83 523 83 523 83 517.5 c 128,-1,71
 83 512 83 512 84.5 506.5 c 128,-1,72
 86 501 86 501 88.5 496.5 c 128,-1,73
 91 492 91 492 96 492 c 0,74,75
 100 492 100 492 98 500 c 128,-1,76
 96 508 96 508 96 524 c 256,63,64
122 464 m 0,77,78
 122 475 122 475 112 475 c 0,79,80
 106 475 106 475 106 467 c 0,81,82
 106 465 106 465 108.5 461 c 128,-1,83
 111 457 111 457 114 457 c 0,84,85
 122 457 122 457 122 464 c 0,77,78
441 -6 m 0,86,87
 417 -6 417 -6 399.5 3.5 c 128,-1,88
 382 13 382 13 369.5 29.5 c 128,-1,89
 357 46 357 46 351 67.5 c 128,-1,90
 345 89 345 89 345 114 c 0,91,92
 345 133 345 133 351.5 152.5 c 128,-1,93
 358 172 358 172 370.5 188 c 128,-1,94
 383 204 383 204 400.5 214 c 128,-1,95
 418 224 418 224 439 224 c 0,96,97
 482 224 482 224 506.5 200 c 128,-1,98
 531 176 531 176 531 121 c 0,99,100
 531 93 531 93 524 70 c 128,-1,101
 517 47 517 47 504.5 30 c 128,-1,102
 492 13 492 13 475.5 3.5 c 128,-1,103
 459 -6 459 -6 441 -6 c 0,86,87
441 62 m 0,104,105
 448 62 448 62 453.5 68 c 128,-1,106
 459 74 459 74 462 82.5 c 128,-1,107
 465 91 465 91 466.5 101.5 c 128,-1,108
 468 112 468 112 468 121 c 0,109,110
 468 138 468 138 460.5 150.5 c 128,-1,111
 453 163 453 163 441 163 c 0,112,113
 430 163 430 163 421.5 148 c 128,-1,114
 413 133 413 133 413 116 c 256,115,116
 413 99 413 99 420.5 80.5 c 128,-1,117
 428 62 428 62 441 62 c 0,104,105
371 116 m 256,118,119
 371 132 371 132 371 139.5 c 128,-1,120
 371 147 371 147 368 147 c 0,121,122
 362 147 362 147 360 134.5 c 128,-1,123
 358 122 358 122 358 118 c 0,124,125
 358 115 358 115 358 109 c 128,-1,126
 358 103 358 103 359.5 97.5 c 128,-1,127
 361 92 361 92 363.5 87.5 c 128,-1,128
 366 83 366 83 371 83 c 0,129,130
 375 83 375 83 373 91.5 c 128,-1,131
 371 100 371 100 371 116 c 256,118,119
157 84 m 0,132,133
 152 89 152 89 146.5 84 c 128,-1,134
 141 79 141 79 138 71 c 256,135,136
 135 63 135 63 132 51.5 c 128,-1,137
 129 40 129 40 129 35 c 0,138,139
 130 24 130 24 133.5 24 c 128,-1,140
 137 24 137 24 144 41 c 0,141,142
 149 53 149 53 154 67.5 c 128,-1,143
 159 82 159 82 157 84 c 0,132,133
397 55 m 0,144,145
 397 66 397 66 388 67 c 0,146,147
 382 67 382 67 382 58 c 0,148,149
 382 56 382 56 384.5 52 c 128,-1,150
 387 48 387 48 390 48 c 0,151,152
 397 48 397 48 397 55 c 0,144,145
EndSplineSet
EndChar

StartChar: quotesingle
Encoding: 39 39 6
Width: 600
GlyphClass: 1
Flags: W
LayerCount: 2
Fore
SplineSet
348.5 731 m 1,0,-1
 327.5 467 l 1,1,-1
 271.5 467 l 1,2,-1
 251.5 731 l 1,3,-1
 348.5 731 l 1,0,-1
EndSplineSet
EndChar

StartChar: parenleft
Encoding: 40 40 7
Width: 600
GlyphClass: 1
Flags: W
LayerCount: 2
Fore
SplineSet
366.5 -74 m 0,0,1
 311.5 -52 311.5 -52 274 -13 c 128,-1,2
 236.5 26 236.5 26 213.5 73.5 c 128,-1,3
 190.5 121 190.5 121 180 173.5 c 128,-1,4
 169.5 226 169.5 226 169.5 275 c 0,5,6
 169.5 322 169.5 322 178.5 371.5 c 128,-1,7
 187.5 421 187.5 421 203 467 c 128,-1,8
 218.5 513 218.5 513 242.5 553.5 c 128,-1,9
 266.5 594 266.5 594 294.5 624 c 0,10,11
 322.5 652 322.5 652 348 670 c 128,-1,12
 373.5 688 373.5 688 394.5 688 c 0,13,14
 409.5 688 409.5 688 418.5 676 c 128,-1,15
 427.5 664 427.5 664 427.5 651 c 0,16,17
 427.5 643 427.5 643 415 632 c 128,-1,18
 402.5 621 402.5 621 378.5 596 c 0,19,20
 347.5 563 347.5 563 327.5 524 c 128,-1,21
 307.5 485 307.5 485 295 443.5 c 128,-1,22
 282.5 402 282.5 402 278 359.5 c 128,-1,23
 273.5 317 273.5 317 273.5 279 c 256,24,25
 273.5 240 273.5 240 279.5 197.5 c 128,-1,26
 285.5 155 285.5 155 300 116 c 128,-1,27
 314.5 77 314.5 77 338 44.5 c 128,-1,28
 361.5 12 361.5 12 396.5 -7 c 0,29,30
 413.5 -16 413.5 -16 422 -23 c 128,-1,31
 430.5 -30 430.5 -30 430.5 -44 c 0,32,33
 430.5 -57 430.5 -57 417.5 -67.5 c 128,-1,34
 404.5 -78 404.5 -78 386.5 -78 c 0,35,36
 375.5 -78 375.5 -78 366.5 -74 c 0,0,1
352.5 635 m 0,37,38
 357.5 640 357.5 640 363.5 645.5 c 128,-1,39
 369.5 651 369.5 651 362.5 651 c 0,40,41
 354.5 651 354.5 651 343.5 643.5 c 128,-1,42
 332.5 636 332.5 636 322.5 625.5 c 128,-1,43
 312.5 615 312.5 615 305.5 604.5 c 128,-1,44
 298.5 594 298.5 594 298.5 588 c 0,45,46
 298.5 583 298.5 583 302.5 583 c 0,47,48
 307.5 583 307.5 583 312.5 589.5 c 128,-1,49
 317.5 596 317.5 596 320.5 601 c 0,50,51
 324.5 608 324.5 608 332 616 c 128,-1,52
 339.5 624 339.5 624 352.5 635 c 0,37,38
292.5 560 m 0,53,54
 292.5 568 292.5 568 286.5 568 c 0,55,56
 274.5 568 274.5 568 274.5 560 c 0,57,58
 274.5 554 274.5 554 277.5 552.5 c 128,-1,59
 280.5 551 280.5 551 282.5 551 c 256,60,61
 284.5 551 284.5 551 288.5 552.5 c 128,-1,62
 292.5 554 292.5 554 292.5 560 c 0,53,54
EndSplineSet
EndChar

StartChar: parenright
Encoding: 41 41 8
Width: 600
GlyphClass: 1
Flags: W
LayerCount: 2
Fore
SplineSet
227 -95 m 0,0,1
 213 -95 213 -95 200 -86.5 c 128,-1,2
 187 -78 187 -78 187 -68 c 0,3,4
 187 -59 187 -59 197 -44.5 c 128,-1,5
 207 -30 207 -30 222 -9 c 128,-1,6
 237 12 237 12 255 42 c 128,-1,7
 273 72 273 72 288 111 c 128,-1,8
 303 150 303 150 313 200 c 128,-1,9
 323 250 323 250 323 312 c 0,10,11
 323 360 323 360 315.5 408 c 128,-1,12
 308 456 308 456 293.5 496 c 128,-1,13
 279 536 279 536 259 565.5 c 128,-1,14
 239 595 239 595 215 608 c 0,15,16
 203 615 203 615 188.5 625 c 128,-1,17
 174 635 174 635 174 653 c 0,18,19
 174 668 174 668 187 678 c 128,-1,20
 200 688 200 688 222 688 c 0,21,22
 260 688 260 688 296.5 661.5 c 128,-1,23
 333 635 333 635 362 586 c 128,-1,24
 391 537 391 537 408.5 466.5 c 128,-1,25
 426 396 426 396 426 309 c 0,26,27
 426 232 426 232 417 179 c 128,-1,28
 408 126 408 126 392 87 c 128,-1,29
 376 48 376 48 354.5 17.5 c 128,-1,30
 333 -13 333 -13 308 -45 c 0,31,32
 284 -75 284 -75 264 -85 c 128,-1,33
 244 -95 244 -95 227 -95 c 0,0,1
194 636 m 0,34,35
 198 636 198 636 201.5 643.5 c 128,-1,36
 205 651 205 651 205 659 c 0,37,38
 205 672 205 672 198 673 c 0,39,40
 194 673 194 673 190.5 665 c 128,-1,41
 187 657 187 657 187 649 c 0,42,43
 187 636 187 636 194 636 c 0,34,35
222 -61 m 256,44,45
 227 -51 227 -51 227.5 -41 c 128,-1,46
 228 -31 228 -31 224 -30 c 0,47,48
 222 -30 222 -30 218.5 -34 c 128,-1,49
 215 -38 215 -38 211 -44 c 128,-1,50
 207 -50 207 -50 204.5 -56 c 128,-1,51
 202 -62 202 -62 202 -66 c 0,52,53
 202 -74 202 -74 206 -75 c 0,54,55
 209 -76 209 -76 213 -73.5 c 128,-1,56
 217 -71 217 -71 222 -61 c 256,44,45
EndSplineSet
EndChar

StartChar: asterisk
Encoding: 42 42 9
Width: 600
GlyphClass: 1
Flags: W
LayerCount: 2
Fore
SplineSet
349 778 m 1,0,-1
 328 582 l 1,1,-1
 525 637 l 1,2,-1
 539 543 l 1,3,-1
 351 527 l 1,4,-1
 473 366 l 1,5,-1
 385 317 l 1,6,-1
 298 497 l 1,7,-1
 219 317 l 1,8,-1
 128 366 l 1,9,-1
 247 527 l 1,10,-1
 61 543 l 1,11,-1
 75 637 l 1,12,-1
 270 582 l 1,13,-1
 248 778 l 1,14,-1
 349 778 l 1,0,-1
EndSplineSet
EndChar

StartChar: plus
Encoding: 43 43 10
Width: 600
GlyphClass: 1
Flags: W
LayerCount: 2
Fore
SplineSet
337.5 397 m 1,0,-1
 540.5 397 l 1,1,-1
 540.5 325 l 1,2,-1
 337.5 325 l 1,3,-1
 337.5 114 l 1,4,-1
 263.5 114 l 1,5,-1
 263.5 325 l 1,6,-1
 59.5 325 l 1,7,-1
 59.5 397 l 1,8,-1
 263.5 397 l 1,9,-1
 263.5 609 l 1,10,-1
 337.5 609 l 1,11,-1
 337.5 397 l 1,0,-1
EndSplineSet
EndChar

StartChar: comma
Encoding: 44 44 11
Width: 600
GlyphClass: 1
Flags: W
LayerCount: 2
Fore
SplineSet
377.5 108 m 1,0,1
 368.5 72 368.5 72 354 30 c 128,-1,2
 339.5 -12 339.5 -12 322.5 -53.5 c 128,-1,3
 305.5 -95 305.5 -95 289.5 -132 c 1,4,-1
 222.5 -132 l 1,5,6
 232.5 -93 232.5 -93 242.5 -48.5 c 128,-1,7
 252.5 -4 252.5 -4 260.5 39.5 c 128,-1,8
 268.5 83 268.5 83 273.5 119 c 1,9,-1
 369.5 119 l 1,10,-1
 377.5 108 l 1,0,1
EndSplineSet
EndChar

StartChar: hyphen
Encoding: 45 45 12
Width: 600
GlyphClass: 1
Flags: W
LayerCount: 2
Fore
SplineSet
176 234 m 1,0,-1
 176 314 l 1,1,-1
 424 314 l 1,2,-1
 424 234 l 1,3,-1
 176 234 l 1,0,-1
EndSplineSet
EndChar

StartChar: period
Encoding: 46 46 13
Width: 600
GlyphClass: 1
Flags: W
LayerCount: 2
Fore
SplineSet
294 -8 m 0,0,1
 253 -8 253 -8 224 20.5 c 128,-1,2
 195 49 195 49 195 94 c 0,3,4
 195 119 195 119 203.5 141 c 128,-1,5
 212 163 212 163 227.5 179 c 128,-1,6
 243 195 243 195 264.5 204.5 c 128,-1,7
 286 214 286 214 311 214 c 0,8,9
 331 214 331 214 349 205.5 c 128,-1,10
 367 197 367 197 379 181.5 c 128,-1,11
 391 166 391 166 398 146.5 c 128,-1,12
 405 127 405 127 405 105 c 0,13,14
 405 77 405 77 396 56.5 c 128,-1,15
 387 36 387 36 371.5 21.5 c 128,-1,16
 356 7 356 7 336.5 -0.5 c 128,-1,17
 317 -8 317 -8 294 -8 c 0,0,1
256 169 m 0,18,19
 263 176 263 176 264.5 181 c 128,-1,20
 266 186 266 186 264 186 c 0,21,22
 256 186 256 186 247 178.5 c 128,-1,23
 238 171 238 171 230 160.5 c 128,-1,24
 222 150 222 150 217 137.5 c 128,-1,25
 212 125 212 125 212 115 c 0,26,27
 212 113 212 113 213.5 106.5 c 128,-1,28
 215 100 215 100 218 100 c 0,29,30
 222 100 222 100 228 123 c 0,31,32
 231 137 231 137 239.5 149 c 128,-1,33
 248 161 248 161 256 169 c 0,18,19
298 50 m 0,34,35
 310 50 310 50 327 64.5 c 128,-1,36
 344 79 344 79 344 105 c 0,37,38
 344 125 344 125 333.5 139.5 c 128,-1,39
 323 154 323 154 305 154 c 256,40,41
 288 154 288 154 273.5 140 c 128,-1,42
 259 126 259 126 259 101 c 256,43,44
 259 76 259 76 270.5 63 c 128,-1,45
 282 50 282 50 298 50 c 0,34,35
EndSplineSet
EndChar

StartChar: slash
Encoding: 47 47 14
Width: 600
GlyphClass: 1
Flags: W
LayerCount: 2
Fore
SplineSet
184 -79 m 0,0,1
 180 -79 180 -79 168 -77 c 128,-1,2
 156 -75 156 -75 144 -70.5 c 128,-1,3
 132 -66 132 -66 122.5 -58.5 c 128,-1,4
 113 -51 113 -51 113 -42 c 0,5,6
 113 -39 113 -39 124 -10 c 128,-1,7
 135 19 135 19 152.5 65.5 c 128,-1,8
 170 112 170 112 193 170 c 128,-1,9
 216 228 216 228 240.5 289.5 c 128,-1,10
 265 351 265 351 289.5 411.5 c 128,-1,11
 314 472 314 472 334.5 521.5 c 128,-1,12
 355 571 355 571 370.5 606 c 128,-1,13
 386 641 386 641 392 651 c 0,14,15
 399 662 399 662 411 672 c 128,-1,16
 423 682 423 682 437 682 c 0,17,18
 444 682 444 682 452.5 679.5 c 128,-1,19
 461 677 461 677 469 672.5 c 128,-1,20
 477 668 477 668 482 661.5 c 128,-1,21
 487 655 487 655 487 648 c 0,22,23
 487 640 487 640 478.5 614 c 128,-1,24
 470 588 470 588 458 557.5 c 128,-1,25
 446 527 446 527 434.5 499 c 128,-1,26
 423 471 423 471 416 458 c 0,27,28
 412 449 412 449 401 420.5 c 128,-1,29
 390 392 390 392 374.5 352.5 c 128,-1,30
 359 313 359 313 340.5 265.5 c 128,-1,31
 322 218 322 218 302.5 170.5 c 128,-1,32
 283 123 283 123 264 78 c 128,-1,33
 245 33 245 33 229.5 -2 c 128,-1,34
 214 -37 214 -37 201.5 -58 c 128,-1,35
 189 -79 189 -79 184 -79 c 0,0,1
158 -38 m 0,36,37
 162 -26 162 -26 170.5 -7.5 c 128,-1,38
 179 11 179 11 186 28 c 128,-1,39
 193 45 193 45 196.5 58 c 128,-1,40
 200 71 200 71 195 72 c 0,41,42
 193 73 193 73 188 73 c 128,-1,43
 183 73 183 73 180 68 c 0,44,45
 178 64 178 64 171.5 50 c 128,-1,46
 165 36 165 36 158 20 c 128,-1,47
 151 4 151 4 146 -11 c 128,-1,48
 141 -26 141 -26 141 -32 c 0,49,50
 141 -39 141 -39 148.5 -41 c 128,-1,51
 156 -43 156 -43 158 -38 c 0,36,37
EndSplineSet
EndChar

StartChar: zero
Encoding: 48 48 15
Width: 600
GlyphClass: 1
Flags: W
LayerCount: 2
Fore
SplineSet
305 -17 m 0,0,1
 252 -17 252 -17 216.5 12 c 128,-1,2
 181 41 181 41 159.5 88 c 128,-1,3
 138 135 138 135 129.5 194.5 c 128,-1,4
 121 254 121 254 121 314 c 256,5,6
 121 374 121 374 131 432 c 128,-1,7
 141 490 141 490 164 535.5 c 128,-1,8
 187 581 187 581 224 608.5 c 128,-1,9
 261 636 261 636 313 636 c 0,10,11
 348 636 348 636 373.5 618.5 c 128,-1,12
 399 601 399 601 417.5 573.5 c 128,-1,13
 436 546 436 546 448.5 511 c 128,-1,14
 461 476 461 476 467.5 440 c 128,-1,15
 474 404 474 404 476.5 371 c 128,-1,16
 479 338 479 338 479 314 c 0,17,18
 479 264 479 264 470 205.5 c 128,-1,19
 461 147 461 147 440.5 97.5 c 128,-1,20
 420 48 420 48 386.5 15.5 c 128,-1,21
 353 -17 353 -17 305 -17 c 0,0,1
195 524 m 0,22,23
 204 543 204 543 209.5 553 c 128,-1,24
 215 563 215 563 215 566 c 0,25,26
 215 568 215 568 211 568.5 c 128,-1,27
 207 569 207 569 201 562 c 0,28,29
 197 556 197 556 190 543 c 128,-1,30
 183 530 183 530 176 516 c 128,-1,31
 169 502 169 502 164 488 c 128,-1,32
 159 474 159 474 159 467 c 256,33,34
 159 460 159 460 164.5 462 c 128,-1,35
 170 464 170 464 173 471 c 0,36,37
 176 479 176 479 181 492.5 c 128,-1,38
 186 506 186 506 195 524 c 0,22,23
306 60 m 0,39,40
 338 60 338 60 356.5 87 c 128,-1,41
 375 114 375 114 384.5 154 c 128,-1,42
 394 194 394 194 396.5 240 c 128,-1,43
 399 286 399 286 399 324 c 0,44,45
 399 348 399 348 396 386.5 c 128,-1,46
 393 425 393 425 384 462.5 c 128,-1,47
 375 500 375 500 358 527 c 128,-1,48
 341 554 341 554 313 554 c 0,49,50
 290 554 290 554 274 526.5 c 128,-1,51
 258 499 258 499 247 460.5 c 128,-1,52
 236 422 236 422 231 380 c 128,-1,53
 226 338 226 338 226 308 c 0,54,55
 226 293 226 293 226 269 c 128,-1,56
 226 245 226 245 228 217 c 128,-1,57
 230 189 230 189 234.5 161.5 c 128,-1,58
 239 134 239 134 248 111.5 c 128,-1,59
 257 89 257 89 271.5 74.5 c 128,-1,60
 286 60 286 60 306 60 c 0,39,40
EndSplineSet
EndChar

StartChar: one
Encoding: 49 49 16
Width: 600
GlyphClass: 1
Flags: W
LayerCount: 2
Fore
SplineSet
351 0 m 0,0,1
 305 0 305 0 305 48 c 2,2,-1
 305 461 l 2,3,4
 305 470 305 470 304.5 477 c 128,-1,5
 304 484 304 484 302 484 c 0,6,7
 299 484 299 484 292.5 476.5 c 128,-1,8
 286 469 286 469 278.5 459.5 c 128,-1,9
 271 450 271 450 262.5 440 c 128,-1,10
 254 430 254 430 245 426 c 0,11,12
 236 421 236 421 226 421 c 0,13,14
 212 421 212 421 202.5 431 c 128,-1,15
 193 441 193 441 193 456 c 0,16,17
 193 461 193 461 203 474 c 128,-1,18
 213 487 213 487 220 498 c 0,19,20
 229 511 229 511 247.5 533.5 c 128,-1,21
 266 556 266 556 287 577.5 c 128,-1,22
 308 599 308 599 327.5 615 c 128,-1,23
 347 631 347 631 359 631 c 0,24,25
 365 631 365 631 373.5 630 c 128,-1,26
 382 629 382 629 389.5 626 c 128,-1,27
 397 623 397 623 402 617 c 128,-1,28
 407 611 407 611 407 601 c 2,29,-1
 407 49 l 2,30,31
 407 31 407 31 390.5 15.5 c 128,-1,32
 374 0 374 0 351 0 c 0,0,1
350 606 m 0,33,34
 355 614 355 614 358 617 c 128,-1,35
 361 620 361 620 358 621 c 0,36,37
 356 621 356 621 349 618 c 128,-1,38
 342 615 342 615 335 609 c 0,39,40
 330 604 330 604 322 597 c 128,-1,41
 314 590 314 590 314 586 c 0,42,43
 314 583 314 583 318 582 c 0,44,45
 325 581 325 581 335.5 591 c 128,-1,46
 346 601 346 601 350 606 c 0,33,34
339 46 m 0,47,48
 339 54 339 54 336 59.5 c 128,-1,49
 333 65 333 65 333 76 c 0,50,51
 333 81 333 81 332.5 85 c 128,-1,52
 332 89 332 89 327 89 c 0,53,54
 323 89 323 89 321 79.5 c 128,-1,55
 319 70 319 70 319 58.5 c 128,-1,56
 319 47 319 47 321 37.5 c 128,-1,57
 323 28 323 28 327 28 c 0,58,59
 339 28 339 28 339 46 c 0,47,48
EndSplineSet
EndChar

StartChar: two
Encoding: 50 50 17
Width: 600
GlyphClass: 1
Flags: W
LayerCount: 2
Fore
SplineSet
165.7109375 0 m 2,0,1
 156.7109375 0 156.7109375 0 149.2109375 13.5 c 128,-1,2
 141.7109375 27 141.7109375 27 143.7109375 39 c 256,3,4
 145.7109375 51 145.7109375 51 159.7109375 69.5 c 128,-1,5
 173.7109375 88 173.7109375 88 190.7109375 109 c 0,6,7
 227.7109375 155 227.7109375 155 257.2109375 203.5 c 128,-1,8
 286.7109375 252 286.7109375 252 307.7109375 299.5 c 128,-1,9
 328.7109375 347 328.7109375 347 339.7109375 392 c 128,-1,10
 350.7109375 437 350.7109375 437 350.7109375 476 c 0,11,12
 350.7109375 518 350.7109375 518 333.2109375 532.5 c 128,-1,13
 315.7109375 547 315.7109375 547 294.7109375 547 c 256,14,15
 274.7109375 547 274.7109375 547 259.2109375 530 c 128,-1,16
 243.7109375 513 243.7109375 513 243.7109375 475 c 0,17,18
 243.7109375 452 243.7109375 452 248.7109375 440.5 c 128,-1,19
 253.7109375 429 253.7109375 429 253.7109375 413 c 0,20,21
 253.7109375 399 253.7109375 399 237.7109375 392.5 c 128,-1,22
 221.7109375 386 221.7109375 386 210.7109375 386 c 0,23,24
 183.7109375 386 183.7109375 386 166.2109375 413 c 128,-1,25
 148.7109375 440 148.7109375 440 148.7109375 481 c 0,26,27
 148.7109375 514 148.7109375 514 159.2109375 542 c 128,-1,28
 169.7109375 570 169.7109375 570 189.7109375 591 c 128,-1,29
 209.7109375 612 209.7109375 612 236.7109375 624.5 c 128,-1,30
 263.7109375 637 263.7109375 637 295.7109375 637 c 0,31,32
 326.7109375 637 326.7109375 637 355.7109375 625 c 128,-1,33
 384.7109375 613 384.7109375 613 407.2109375 591 c 128,-1,34
 429.7109375 569 429.7109375 569 443.2109375 538 c 128,-1,35
 456.7109375 507 456.7109375 507 456.7109375 468 c 0,36,37
 456.7109375 420 456.7109375 420 444.2109375 373 c 128,-1,38
 431.7109375 326 431.7109375 326 412.7109375 284 c 128,-1,39
 393.7109375 242 393.7109375 242 372.2109375 206 c 128,-1,40
 350.7109375 170 350.7109375 170 332.2109375 143.5 c 128,-1,41
 313.7109375 117 313.7109375 117 301.2109375 100.5 c 128,-1,42
 288.7109375 84 288.7109375 84 288.7109375 81 c 1,43,44
 291.7109375 81 291.7109375 81 296.7109375 81 c 2,45,-1
 321.7109375 81 l 1,46,-1
 410.7109375 84 l 2,47,48
 428.7109375 85 428.7109375 85 438.2109375 81 c 128,-1,49
 447.7109375 77 447.7109375 77 451.7109375 69 c 128,-1,50
 455.7109375 61 455.7109375 61 455.7109375 51 c 128,-1,51
 455.7109375 41 455.7109375 41 455.7109375 30 c 0,52,53
 455.7109375 12 455.7109375 12 444.7109375 6 c 128,-1,54
 433.7109375 0 433.7109375 0 401.7109375 0 c 2,55,-1
 165.7109375 0 l 2,0,1
181.7109375 500 m 0,56,57
 182.7109375 512 182.7109375 512 180.7109375 519 c 128,-1,58
 178.7109375 526 178.7109375 526 175.7109375 525 c 0,59,60
 171.7109375 525 171.7109375 525 169.2109375 518.5 c 128,-1,61
 166.7109375 512 166.7109375 512 166.2109375 503.5 c 128,-1,62
 165.7109375 495 165.7109375 495 165.7109375 487 c 128,-1,63
 165.7109375 479 165.7109375 479 165.7109375 476 c 0,64,65
 167.7109375 463 167.7109375 463 170.7109375 461 c 0,66,67
 175.7109375 456 175.7109375 456 177.7109375 463 c 128,-1,68
 179.7109375 470 179.7109375 470 181.7109375 500 c 0,56,57
184.7109375 434 m 0,69,70
 184.7109375 441 184.7109375 441 176.7109375 441 c 256,71,72
 169.7109375 441 169.7109375 441 169.7109375 433 c 0,73,74
 169.7109375 431 169.7109375 431 171.7109375 428 c 128,-1,75
 173.7109375 425 173.7109375 425 175.7109375 425 c 0,76,77
 179.7109375 425 179.7109375 425 182.2109375 428 c 128,-1,78
 184.7109375 431 184.7109375 431 184.7109375 434 c 0,69,70
182.7109375 51 m 0,79,80
 190.7109375 70 190.7109375 70 188.7109375 71 c 0,81,82
 181.7109375 71 181.7109375 71 173.7109375 61.5 c 128,-1,83
 165.7109375 52 165.7109375 52 165.7109375 41 c 0,84,85
 165.7109375 33 165.7109375 33 169.7109375 33 c 0,86,87
 174.7109375 33 174.7109375 33 182.7109375 51 c 0,79,80
EndSplineSet
EndChar

StartChar: three
Encoding: 51 51 18
Width: 600
GlyphClass: 1
Flags: W
LayerCount: 2
Fore
SplineSet
353 498 m 0,0,1
 353 528 353 528 339 540.5 c 128,-1,2
 325 553 325 553 296 553 c 0,3,4
 262 553 262 553 245.5 527 c 128,-1,5
 229 501 229 501 229 440 c 0,6,7
 229 426 229 426 218.5 420 c 128,-1,8
 208 414 208 414 197 414 c 0,9,10
 135 414 135 414 134 505 c 0,11,12
 134 533 134 533 148 557 c 128,-1,13
 162 581 162 581 184 598.5 c 128,-1,14
 206 616 206 616 234.5 626.5 c 128,-1,15
 263 637 263 637 292 637 c 0,16,17
 337 637 337 637 369 625.5 c 128,-1,18
 401 614 401 614 421.5 594.5 c 128,-1,19
 442 575 442 575 452.5 550 c 128,-1,20
 463 525 463 525 463 499 c 0,21,22
 463 458 463 458 445 428 c 128,-1,23
 427 398 427 398 405 377 c 128,-1,24
 383 356 383 356 365 344 c 128,-1,25
 347 332 347 332 347 326 c 256,26,27
 347 320 347 320 365.5 313 c 128,-1,28
 384 306 384 306 406.5 290.5 c 128,-1,29
 429 275 429 275 447.5 247 c 128,-1,30
 466 219 466 219 466 171 c 0,31,32
 466 124 466 124 448 90.5 c 128,-1,33
 430 57 430 57 401 35.5 c 128,-1,34
 372 14 372 14 335 4 c 128,-1,35
 298 -6 298 -6 260 -6 c 0,36,37
 244 -6 244 -6 223.5 -1.5 c 128,-1,38
 203 3 203 3 185 13 c 128,-1,39
 167 23 167 23 154.5 37.5 c 128,-1,40
 142 52 142 52 142 73 c 0,41,42
 142 88 142 88 148.5 98 c 128,-1,43
 155 108 155 108 166 108 c 0,44,45
 179 108 179 108 190 103 c 128,-1,46
 201 98 201 98 211.5 92.5 c 128,-1,47
 222 87 222 87 234.5 82.5 c 128,-1,48
 247 78 247 78 262 78 c 0,49,50
 290 78 290 78 308.5 86 c 128,-1,51
 327 94 327 94 337.5 107.5 c 128,-1,52
 348 121 348 121 352 137.5 c 128,-1,53
 356 154 356 154 356 170 c 0,54,55
 356 203 356 203 338 225.5 c 128,-1,56
 320 248 320 248 290 248 c 0,57,58
 247 248 247 248 229.5 263.5 c 128,-1,59
 212 279 212 279 212 299 c 0,60,61
 212 318 212 318 234 342.5 c 128,-1,62
 256 367 256 367 282.5 392.5 c 128,-1,63
 309 418 309 418 331 445 c 128,-1,64
 353 472 353 472 353 498 c 0,0,1
176 527 m 0,65,66
 177 539 177 539 175 546.5 c 128,-1,67
 173 554 173 554 170 553 c 0,68,69
 166 553 166 553 162.5 547 c 128,-1,70
 159 541 159 541 156.5 532.5 c 128,-1,71
 154 524 154 524 152.5 516 c 128,-1,72
 151 508 151 508 152 504 c 0,73,74
 154 491 154 491 157 488 c 0,75,76
 162 483 162 483 168 490 c 128,-1,77
 174 497 174 497 176 527 c 0,65,66
170 462 m 0,78,79
 170 469 170 469 163 469 c 256,80,81
 156 469 156 469 156 461 c 0,82,83
 156 459 156 459 158 456 c 128,-1,84
 160 453 160 453 162 453 c 0,85,86
 166 453 166 453 168 456 c 128,-1,87
 170 459 170 459 170 462 c 0,78,79
246 298 m 0,88,89
 248 303 248 303 252 311 c 128,-1,90
 256 319 256 319 261 327 c 0,91,92
 265 333 265 333 266 338 c 128,-1,93
 267 343 267 343 265 343 c 0,94,95
 261 343 261 343 255 337 c 128,-1,96
 249 331 249 331 243.5 322.5 c 128,-1,97
 238 314 238 314 233.5 305.5 c 128,-1,98
 229 297 229 297 229 291 c 0,99,100
 229 282 229 282 235 282 c 256,101,102
 240 282 240 282 246 298 c 0,88,89
174 82 m 0,103,104
 174 104 174 104 165 94 c 0,105,106
 160 89 160 89 158 80 c 128,-1,107
 156 71 156 71 157 63 c 0,108,109
 158 59 158 59 160 57.5 c 128,-1,110
 162 56 162 56 164 56 c 256,111,112
 166 56 166 56 170 65 c 128,-1,113
 174 74 174 74 174 82 c 0,103,104
EndSplineSet
EndChar

StartChar: four
Encoding: 52 52 19
Width: 600
GlyphClass: 1
Flags: W
LayerCount: 2
Fore
SplineSet
409.5 0 m 0,0,1
 384.5 0 384.5 0 376 20 c 128,-1,2
 367.5 40 367.5 40 367.5 63 c 2,3,-1
 367.5 133 l 2,4,5
 367.5 145 367.5 145 354.5 145 c 2,6,-1
 169.5 145 l 2,7,8
 146.5 145 146.5 145 136 155.5 c 128,-1,9
 125.5 166 125.5 166 125.5 177 c 0,10,11
 125.5 182 125.5 182 134 214.5 c 128,-1,12
 142.5 247 142.5 247 155.5 293 c 128,-1,13
 168.5 339 168.5 339 183.5 391 c 128,-1,14
 198.5 443 198.5 443 212.5 489.5 c 128,-1,15
 226.5 536 226.5 536 236.5 568.5 c 128,-1,16
 246.5 601 246.5 601 249.5 606 c 0,17,18
 257.5 621 257.5 621 268 625 c 128,-1,19
 278.5 629 278.5 629 288.5 629 c 0,20,21
 293.5 629 293.5 629 303 627 c 128,-1,22
 312.5 625 312.5 625 321 621 c 128,-1,23
 329.5 617 329.5 617 336.5 612 c 128,-1,24
 343.5 607 343.5 607 343.5 601 c 256,25,26
 343.5 595 343.5 595 338 572 c 128,-1,27
 332.5 549 332.5 549 324.5 515.5 c 128,-1,28
 316.5 482 316.5 482 306.5 443 c 128,-1,29
 296.5 404 296.5 404 286 367 c 128,-1,30
 275.5 330 275.5 330 266.5 298.5 c 128,-1,31
 257.5 267 257.5 267 250.5 249 c 0,32,33
 248.5 244 248.5 244 247.5 241 c 128,-1,34
 246.5 238 246.5 238 246.5 234 c 0,35,36
 246.5 229 246.5 229 255.5 229 c 2,37,-1
 354.5 229 l 2,38,39
 362.5 229 362.5 229 365 231.5 c 128,-1,40
 367.5 234 367.5 234 367.5 241 c 2,41,-1
 367.5 549 l 2,42,43
 367.5 575 367.5 575 372 590.5 c 128,-1,44
 376.5 606 376.5 606 384 615.5 c 128,-1,45
 391.5 625 391.5 625 400.5 628 c 128,-1,46
 409.5 631 409.5 631 419.5 631 c 0,47,48
 447.5 631 447.5 631 461 611.5 c 128,-1,49
 474.5 592 474.5 592 474.5 563 c 2,50,-1
 474.5 72 l 2,51,52
 474.5 50 474.5 50 469 36 c 128,-1,53
 463.5 22 463.5 22 454.5 14 c 128,-1,54
 445.5 6 445.5 6 433.5 3 c 128,-1,55
 421.5 0 421.5 0 409.5 0 c 0,0,1
388.5 554 m 256,56,57
 392.5 554 392.5 554 396 560 c 128,-1,58
 399.5 566 399.5 566 402 574.5 c 128,-1,59
 404.5 583 404.5 583 406 591.5 c 128,-1,60
 407.5 600 407.5 600 407.5 605 c 0,61,62
 407.5 612 407.5 612 400.5 612 c 0,63,64
 397.5 612 397.5 612 394.5 607.5 c 128,-1,65
 391.5 603 391.5 603 389 596.5 c 128,-1,66
 386.5 590 386.5 590 384.5 583.5 c 128,-1,67
 382.5 577 382.5 577 382.5 571 c 0,68,69
 382.5 565 382.5 565 383.5 559.5 c 128,-1,70
 384.5 554 384.5 554 388.5 554 c 256,56,57
170.5 220 m 0,71,72
 174.5 233 174.5 233 177 240.5 c 128,-1,73
 179.5 248 179.5 248 178.5 257 c 0,74,75
 178.5 265 178.5 265 173.5 265 c 0,76,77
 170.5 265 170.5 265 166.5 257.5 c 128,-1,78
 162.5 250 162.5 250 159 239.5 c 128,-1,79
 155.5 229 155.5 229 153.5 219 c 128,-1,80
 151.5 209 151.5 209 151.5 204 c 0,81,82
 151.5 193 151.5 193 156.5 193 c 0,83,84
 164.5 193 164.5 193 170.5 220 c 0,71,72
159.5 173 m 0,85,86
 159.5 183 159.5 183 151.5 183 c 256,87,88
 143.5 183 143.5 183 143.5 173 c 0,89,90
 143.5 171 143.5 171 144.5 170 c 0,91,92
 148.5 166 148.5 166 151.5 166 c 0,93,94
 153.5 166 153.5 166 156.5 168 c 128,-1,95
 159.5 170 159.5 170 159.5 173 c 0,85,86
401.5 30 m 0,96,97
 398.5 36 398.5 36 395.5 38.5 c 128,-1,98
 392.5 41 392.5 41 392.5 46 c 0,99,100
 392.5 50 392.5 50 391.5 54 c 0,101,102
 391.5 62 391.5 62 386.5 62 c 0,103,104
 380.5 62 380.5 62 379.5 51 c 0,105,106
 379.5 43 379.5 43 384.5 29 c 128,-1,107
 389.5 15 389.5 15 395.5 15 c 0,108,109
 398.5 15 398.5 15 401.5 20 c 128,-1,110
 404.5 25 404.5 25 401.5 30 c 0,96,97
EndSplineSet
EndChar

StartChar: five
Encoding: 53 53 20
Width: 600
GlyphClass: 1
Flags: W
LayerCount: 2
Fore
SplineSet
197.5 -8 m 0,0,1
 174.5 -8 174.5 -8 162 -1.5 c 128,-1,2
 149.5 5 149.5 5 143.5 14.5 c 128,-1,3
 137.5 24 137.5 24 136 33.5 c 128,-1,4
 134.5 43 134.5 43 134.5 49 c 0,5,6
 134.5 63 134.5 63 140 71.5 c 128,-1,7
 145.5 80 145.5 80 154.5 83.5 c 128,-1,8
 163.5 87 163.5 87 175 87.5 c 128,-1,9
 186.5 88 186.5 88 197.5 88 c 0,10,11
 286.5 88 286.5 88 324 115 c 128,-1,12
 361.5 142 361.5 142 361.5 201 c 0,13,14
 361.5 257 361.5 257 335 283.5 c 128,-1,15
 308.5 310 308.5 310 258.5 310 c 0,16,17
 239.5 310 239.5 310 226.5 307 c 128,-1,18
 213.5 304 213.5 304 204.5 300.5 c 128,-1,19
 195.5 297 195.5 297 187.5 294 c 128,-1,20
 179.5 291 179.5 291 168.5 291 c 256,21,22
 158.5 291 158.5 291 152.5 300 c 128,-1,23
 146.5 309 146.5 309 143.5 322 c 128,-1,24
 140.5 335 140.5 335 140 350 c 128,-1,25
 139.5 365 139.5 365 139.5 375 c 2,26,-1
 139.5 582 l 2,27,28
 139.5 610 139.5 610 153 620.5 c 128,-1,29
 166.5 631 166.5 631 186.5 631 c 2,30,-1
 424.5 631 l 2,31,32
 432.5 631 432.5 631 440 623 c 128,-1,33
 447.5 615 447.5 615 447.5 601 c 0,34,35
 447.5 583 447.5 583 440 566 c 128,-1,36
 432.5 549 432.5 549 422.5 549 c 2,37,-1
 250.5 548 l 2,38,39
 245.5 548 245.5 548 243.5 543.5 c 128,-1,40
 241.5 539 241.5 539 241.5 534 c 2,41,-1
 241.5 409 l 2,42,43
 241.5 393 241.5 393 244.5 390.5 c 128,-1,44
 247.5 388 247.5 388 254.5 388 c 2,45,-1
 279.5 389 l 2,46,47
 320.5 391 320.5 391 355 380.5 c 128,-1,48
 389.5 370 389.5 370 414 346.5 c 128,-1,49
 438.5 323 438.5 323 452 287 c 128,-1,50
 465.5 251 465.5 251 465.5 202 c 0,51,52
 465.5 162 465.5 162 449.5 124.5 c 128,-1,53
 433.5 87 433.5 87 400 57.5 c 128,-1,54
 366.5 28 366.5 28 316.5 10 c 128,-1,55
 266.5 -8 266.5 -8 197.5 -8 c 0,0,1
167.5 413 m 0,56,57
 167.5 432 167.5 432 166.5 442.5 c 128,-1,58
 165.5 453 165.5 453 159.5 446 c 0,59,60
 156.5 443 156.5 443 154.5 431 c 128,-1,61
 152.5 419 152.5 419 152.5 404.5 c 128,-1,62
 152.5 390 152.5 390 154.5 378 c 128,-1,63
 156.5 366 156.5 366 159.5 362 c 256,64,65
 162.5 359 162.5 359 163.5 359 c 0,66,67
 167.5 360 167.5 360 167.5 413 c 0,56,57
176.5 334 m 0,68,69
 176.5 344 176.5 344 170.5 344 c 0,70,71
 159.5 344 159.5 344 159.5 330 c 0,72,73
 159.5 323 159.5 323 167.5 323 c 0,74,75
 172.5 323 172.5 323 174.5 327.5 c 128,-1,76
 176.5 332 176.5 332 176.5 334 c 0,68,69
166.5 49 m 0,77,78
 165.5 51 165.5 51 166 55 c 128,-1,79
 166.5 59 166.5 59 167 63 c 128,-1,80
 167.5 67 167.5 67 166.5 69.5 c 128,-1,81
 165.5 72 165.5 72 161.5 72 c 0,82,83
 156.5 72 156.5 72 154.5 63 c 128,-1,84
 152.5 54 152.5 54 153.5 43 c 256,85,86
 154.5 32 154.5 32 157.5 22 c 128,-1,87
 160.5 12 160.5 12 166.5 12 c 0,88,89
 168.5 12 168.5 12 170 23.5 c 128,-1,90
 171.5 35 171.5 35 166.5 49 c 0,77,78
EndSplineSet
EndChar

StartChar: six
Encoding: 54 54 21
Width: 600
GlyphClass: 1
Flags: W
LayerCount: 2
Fore
SplineSet
301.5 -11 m 0,0,1
 248.5 -11 248.5 -11 211 9 c 128,-1,2
 173.5 29 173.5 29 150 62.5 c 128,-1,3
 126.5 96 126.5 96 115.5 139.5 c 128,-1,4
 104.5 183 104.5 183 104.5 230 c 0,5,6
 104.5 282 104.5 282 113 336 c 128,-1,7
 121.5 390 121.5 390 139 439 c 128,-1,8
 156.5 488 156.5 488 184.5 530 c 128,-1,9
 212.5 572 212.5 572 252.5 601 c 0,10,11
 281.5 621 281.5 621 310 628 c 128,-1,12
 338.5 635 338.5 635 360.5 635 c 0,13,14
 365.5 635 365.5 635 373.5 633.5 c 128,-1,15
 381.5 632 381.5 632 388.5 629 c 128,-1,16
 395.5 626 395.5 626 401 620.5 c 128,-1,17
 406.5 615 406.5 615 406.5 607 c 0,18,19
 406.5 593 406.5 593 401.5 581 c 128,-1,20
 396.5 569 396.5 569 369.5 560 c 0,21,22
 342.5 551 342.5 551 321 533.5 c 128,-1,23
 299.5 516 299.5 516 282.5 494 c 128,-1,24
 265.5 472 265.5 472 253.5 446 c 128,-1,25
 241.5 420 241.5 420 231.5 394 c 0,26,27
 226.5 382 226.5 382 222.5 363 c 128,-1,28
 218.5 344 218.5 344 218.5 333 c 0,29,30
 218.5 323 218.5 323 222.5 323 c 0,31,32
 225.5 323 225.5 323 233 332.5 c 128,-1,33
 240.5 342 240.5 342 253.5 353.5 c 128,-1,34
 266.5 365 266.5 365 286 374.5 c 128,-1,35
 305.5 384 305.5 384 333.5 384 c 0,36,37
 412.5 384 412.5 384 454 331 c 128,-1,38
 495.5 278 495.5 278 495.5 191 c 0,39,40
 495.5 149 495.5 149 480 112.5 c 128,-1,41
 464.5 76 464.5 76 438 48 c 128,-1,42
 411.5 20 411.5 20 376 4.5 c 128,-1,43
 340.5 -11 340.5 -11 301.5 -11 c 0,0,1
296.5 82 m 0,44,45
 339.5 82 339.5 82 365.5 109 c 128,-1,46
 391.5 136 391.5 136 391.5 195 c 0,47,48
 391.5 212 391.5 212 388.5 229.5 c 128,-1,49
 385.5 247 385.5 247 377.5 261 c 128,-1,50
 369.5 275 369.5 275 355.5 284 c 128,-1,51
 341.5 293 341.5 293 319.5 293 c 0,52,53
 300.5 293 300.5 293 280.5 282.5 c 128,-1,54
 260.5 272 260.5 272 245 256.5 c 128,-1,55
 229.5 241 229.5 241 220 221 c 128,-1,56
 210.5 201 210.5 201 210.5 182 c 0,57,58
 210.5 140 210.5 140 228.5 111 c 128,-1,59
 246.5 82 246.5 82 296.5 82 c 0,44,45
167.5 110 m 0,60,61
 164.5 121 164.5 121 160.5 130.5 c 128,-1,62
 156.5 140 156.5 140 152.5 152 c 0,63,64
 150.5 158 150.5 158 149 163 c 128,-1,65
 147.5 168 147.5 168 143.5 167 c 0,66,67
 140.5 167 140.5 167 138.5 159 c 0,68,69
 137.5 152 137.5 152 141 138.5 c 128,-1,70
 144.5 125 144.5 125 150 112.5 c 128,-1,71
 155.5 100 155.5 100 161 91.5 c 128,-1,72
 166.5 83 166.5 83 168.5 83 c 0,73,74
 173.5 83 173.5 83 173.5 88 c 0,75,76
 173.5 92 173.5 92 171.5 97.5 c 128,-1,77
 169.5 103 169.5 103 167.5 110 c 0,60,61
EndSplineSet
EndChar

StartChar: seven
Encoding: 55 55 22
Width: 600
GlyphClass: 1
Flags: W
LayerCount: 2
Fore
SplineSet
219.5 -2 m 0,0,1
 205.5 -2 205.5 -2 195.5 6.5 c 128,-1,2
 185.5 15 185.5 15 185.5 26 c 0,3,4
 185.5 35 185.5 35 196 72 c 128,-1,5
 206.5 109 206.5 109 221.5 160 c 128,-1,6
 236.5 211 236.5 211 255 269.5 c 128,-1,7
 273.5 328 273.5 328 290.5 380 c 128,-1,8
 307.5 432 307.5 432 321 472 c 128,-1,9
 334.5 512 334.5 512 339.5 526 c 0,10,11
 344.5 541 344.5 541 332.5 542 c 2,12,-1
 199.5 542 l 2,13,14
 171.5 542 171.5 542 156 550.5 c 128,-1,15
 140.5 559 140.5 559 140.5 587 c 256,16,17
 140.5 615 140.5 615 157.5 623 c 128,-1,18
 174.5 631 174.5 631 201.5 631 c 2,19,-1
 417.5 631 l 2,20,21
 434.5 631 434.5 631 447 620 c 128,-1,22
 459.5 609 459.5 609 459.5 595 c 0,23,24
 459.5 585 459.5 585 448 542 c 128,-1,25
 436.5 499 436.5 499 418.5 439.5 c 128,-1,26
 400.5 380 400.5 380 378.5 311 c 128,-1,27
 356.5 242 356.5 242 336 180.5 c 128,-1,28
 315.5 119 315.5 119 299.5 73 c 128,-1,29
 283.5 27 283.5 27 274.5 11 c 0,30,31
 272.5 6 272.5 6 258 2 c 128,-1,32
 243.5 -2 243.5 -2 219.5 -2 c 0,0,1
173.5 608 m 0,33,34
 173.5 616 173.5 616 168.5 616 c 256,35,36
 163.5 616 163.5 616 156.5 608.5 c 128,-1,37
 149.5 601 149.5 601 149.5 590 c 0,38,39
 149.5 570 149.5 570 158.5 569 c 0,40,41
 161.5 569 161.5 569 164.5 574 c 128,-1,42
 167.5 579 167.5 579 169.5 585 c 128,-1,43
 171.5 591 171.5 591 172.5 597.5 c 128,-1,44
 173.5 604 173.5 604 173.5 608 c 0,33,34
219.5 39 m 0,45,46
 221.5 49 221.5 49 223.5 60 c 128,-1,47
 225.5 71 225.5 71 227.5 75 c 0,48,49
 231.5 80 231.5 80 230 85 c 128,-1,50
 228.5 90 228.5 90 223.5 90 c 0,51,52
 220.5 90 220.5 90 217 83 c 128,-1,53
 213.5 76 213.5 76 211 66 c 128,-1,54
 208.5 56 208.5 56 206.5 46.5 c 128,-1,55
 204.5 37 204.5 37 204.5 32 c 0,56,57
 204.5 20 204.5 20 209.5 19 c 256,58,59
 214.5 20 214.5 20 219.5 39 c 0,45,46
EndSplineSet
EndChar

StartChar: eight
Encoding: 56 56 23
Width: 600
GlyphClass: 1
Flags: W
LayerCount: 2
Fore
SplineSet
292 -6 m 0,0,1
 251 -6 251 -6 216.5 9 c 128,-1,2
 182 24 182 24 158 48 c 128,-1,3
 134 72 134 72 120.5 103 c 128,-1,4
 107 134 107 134 107 167 c 0,5,6
 107 206 107 206 124.5 233.5 c 128,-1,7
 142 261 142 261 163 280.5 c 128,-1,8
 184 300 184 300 201.5 313 c 128,-1,9
 219 326 219 326 219 333 c 0,10,11
 219 341 219 341 203 350 c 128,-1,12
 187 359 187 359 167.5 375.5 c 128,-1,13
 148 392 148 392 132.5 417 c 128,-1,14
 117 442 117 442 117 482 c 0,15,16
 117 515 117 515 131.5 543.5 c 128,-1,17
 146 572 146 572 171.5 593.5 c 128,-1,18
 197 615 197 615 230 627.5 c 128,-1,19
 263 640 263 640 299 640 c 0,20,21
 326 640 326 640 356.5 629 c 128,-1,22
 387 618 387 618 413 598.5 c 128,-1,23
 439 579 439 579 456 549 c 128,-1,24
 473 519 473 519 473 480 c 0,25,26
 473 442 473 442 458.5 419 c 128,-1,27
 444 396 444 396 427 382.5 c 128,-1,28
 410 369 410 369 396 361.5 c 128,-1,29
 382 354 382 354 382 348 c 0,30,31
 382 339 382 339 399.5 327 c 128,-1,32
 417 315 417 315 438 296.5 c 128,-1,33
 459 278 459 278 476 248 c 128,-1,34
 493 218 493 218 493 173 c 0,35,36
 493 139 493 139 477.5 107 c 128,-1,37
 462 75 462 75 434 49.5 c 128,-1,38
 406 24 406 24 370 9 c 128,-1,39
 334 -6 334 -6 292 -6 c 0,0,1
161 524 m 0,40,41
 162 530 162 530 167 537.5 c 128,-1,42
 172 545 172 545 178 551.5 c 128,-1,43
 184 558 184 558 189.5 563.5 c 128,-1,44
 195 569 195 569 198 572 c 0,45,46
 209 584 209 584 210 592 c 0,47,48
 210 596 210 596 206 596 c 0,49,50
 197 596 197 596 186 586.5 c 128,-1,51
 175 577 175 577 166 563 c 128,-1,52
 157 549 157 549 150.5 535 c 128,-1,53
 144 521 144 521 144 513 c 256,54,55
 144 505 144 505 148 505 c 0,56,57
 156 505 156 505 161 524 c 0,40,41
299 380 m 0,58,59
 312 380 312 380 325 388.5 c 128,-1,60
 338 397 338 397 348 411.5 c 128,-1,61
 358 426 358 426 365 444 c 128,-1,62
 372 462 372 462 372 480 c 0,63,64
 372 516 372 516 351.5 542 c 128,-1,65
 331 568 331 568 298 568 c 256,66,67
 265 568 265 568 241.5 545.5 c 128,-1,68
 218 523 218 523 218 484 c 0,69,70
 218 470 218 470 223 452 c 128,-1,71
 228 434 228 434 238.5 417.5 c 128,-1,72
 249 401 249 401 264.5 390.5 c 128,-1,73
 280 380 280 380 299 380 c 0,58,59
150 480 m 0,74,75
 150 489 150 489 143 489 c 0,76,77
 138 489 138 489 136.5 486 c 128,-1,78
 135 483 135 483 135 480 c 0,79,80
 135 478 135 478 136 476 c 0,81,82
 138 472 138 472 142 472 c 0,83,84
 144 472 144 472 147 474 c 128,-1,85
 150 476 150 476 150 480 c 0,74,75
294 75 m 0,86,87
 343 75 343 75 361 100.5 c 128,-1,88
 379 126 379 126 379 173 c 0,89,90
 379 192 379 192 371 213 c 128,-1,91
 363 234 363 234 351.5 251.5 c 128,-1,92
 340 269 340 269 326.5 280.5 c 128,-1,93
 313 292 313 292 302 292 c 0,94,95
 287 292 287 292 271.5 280 c 128,-1,96
 256 268 256 268 243.5 250 c 128,-1,97
 231 232 231 232 223.5 210 c 128,-1,98
 216 188 216 188 216 167 c 0,99,100
 216 151 216 151 221.5 134.5 c 128,-1,101
 227 118 227 118 237 104.5 c 128,-1,102
 247 91 247 91 261.5 83 c 128,-1,103
 276 75 276 75 294 75 c 0,86,87
154 227 m 256,104,105
 157 235 157 235 154 238.5 c 128,-1,106
 151 242 151 242 144 234 c 0,107,108
 141 231 141 231 136 223.5 c 128,-1,109
 131 216 131 216 126.5 207 c 128,-1,110
 122 198 122 198 118.5 188 c 128,-1,111
 115 178 115 178 115 170 c 0,112,113
 114 162 114 162 117.5 154 c 128,-1,114
 121 146 121 146 128 146 c 0,115,116
 136 146 136 146 135 159 c 128,-1,117
 134 172 134 172 136 183 c 0,118,119
 139 198 139 198 145 208.5 c 128,-1,120
 151 219 151 219 154 227 c 256,104,105
EndSplineSet
EndChar

StartChar: nine
Encoding: 57 57 24
Width: 600
VWidth: 1000
GlyphClass: 1
Flags: W
LayerCount: 2
Fore
SplineSet
298 623 m 0,0,1
 353 623 353 623 390 601.5 c 128,-1,2
 427 580 427 580 449 546 c 128,-1,3
 471 512 471 512 480.5 470 c 128,-1,4
 490 428 490 428 490 387 c 0,5,6
 490 336 490 336 478.5 284 c 128,-1,7
 467 232 467 232 446.5 185 c 128,-1,8
 426 138 426 138 398 99 c 128,-1,9
 370 60 370 60 337 34 c 0,10,11
 310 13 310 13 281.5 2.5 c 128,-1,12
 253 -8 253 -8 231 -8 c 0,13,14
 213 -8 213 -8 200.5 -1.5 c 128,-1,15
 188 5 188 5 188 21 c 0,16,17
 188 36 188 36 196 51.5 c 128,-1,18
 204 67 204 67 231 76 c 0,19,20
 257 85 257 85 277.5 100 c 128,-1,21
 298 115 298 115 314 135 c 128,-1,22
 330 155 330 155 341.5 178.5 c 128,-1,23
 353 202 353 202 362 227 c 0,24,25
 367 239 367 239 371 257.5 c 128,-1,26
 375 276 375 276 375 287 c 0,27,28
 375 297 375 297 371 297 c 0,29,30
 368 297 368 297 361.5 289 c 128,-1,31
 355 281 355 281 342 272 c 128,-1,32
 329 263 329 263 309 255 c 128,-1,33
 289 247 289 247 259 247 c 0,34,35
 189 247 189 247 149.5 295 c 128,-1,36
 110 343 110 343 110 425 c 0,37,38
 110 463 110 463 122 499 c 128,-1,39
 134 535 134 535 158 562.5 c 128,-1,40
 182 590 182 590 217 606.5 c 128,-1,41
 252 623 252 623 298 623 c 0,0,1
303 535 m 0,42,43
 261 535 261 535 235.5 508 c 128,-1,44
 210 481 210 481 210 432 c 0,45,46
 210 390 210 390 228.5 364.5 c 128,-1,47
 247 339 247 339 280 339 c 0,48,49
 300 339 300 339 318.5 347 c 128,-1,50
 337 355 337 355 351 368 c 128,-1,51
 365 381 365 381 374 398.5 c 128,-1,52
 383 416 383 416 383 434 c 0,53,54
 383 455 383 455 379.5 473 c 128,-1,55
 376 491 376 491 367 505 c 128,-1,56
 358 519 358 519 342.5 527 c 128,-1,57
 327 535 327 535 303 535 c 0,42,43
160 486 m 0,58,59
 162 496 162 496 164.5 503.5 c 128,-1,60
 167 511 167 511 167 517 c 0,61,62
 167 524 167 524 160 524 c 0,63,64
 157 524 157 524 151.5 511 c 128,-1,65
 146 498 146 498 141.5 480 c 128,-1,66
 137 462 137 462 134 444 c 128,-1,67
 131 426 131 426 133 415 c 0,68,69
 136 403 136 403 141 403 c 256,70,71
 146 403 146 403 148.5 410.5 c 128,-1,72
 151 418 151 418 153 426 c 0,73,74
 157 443 157 443 157 457 c 128,-1,75
 157 471 157 471 160 486 c 0,58,59
156 380 m 0,76,77
 156 385 156 385 154.5 388.5 c 128,-1,78
 153 392 153 392 150 392 c 0,79,80
 145 392 145 392 141 389 c 128,-1,81
 137 386 137 386 137 376 c 0,82,83
 137 373 137 373 139.5 370 c 128,-1,84
 142 367 142 367 146 367 c 0,85,86
 152 367 152 367 154 372.5 c 128,-1,87
 156 378 156 378 156 380 c 0,76,77
228 58 m 2,88,89
 228 61 228 61 223.5 60 c 128,-1,90
 219 59 219 59 214 55 c 128,-1,91
 209 51 209 51 205 44 c 128,-1,92
 201 37 201 37 201 28 c 0,93,94
 201 26 201 26 202.5 20 c 128,-1,95
 204 14 204 14 208 14 c 0,96,97
 211 14 211 14 214.5 20.5 c 128,-1,98
 218 27 218 27 221 35.5 c 128,-1,99
 224 44 224 44 226 51 c 128,-1,100
 228 58 228 58 228 58 c 2,88,89
EndSplineSet
EndChar

StartChar: colon
Encoding: 58 58 25
Width: 600
GlyphClass: 1
Flags: W
LayerCount: 2
Fore
SplineSet
236.5 55 m 0,0,1
 236.5 93 236.5 93 255 108.5 c 128,-1,2
 273.5 124 273.5 124 298.5 124 c 0,3,4
 325.5 124 325.5 124 344.5 108.5 c 128,-1,5
 363.5 93 363.5 93 363.5 55 c 0,6,7
 363.5 18 363.5 18 344.5 2 c 128,-1,8
 325.5 -14 325.5 -14 298.5 -14 c 0,9,10
 272.5 -14 272.5 -14 254.5 2 c 128,-1,11
 236.5 18 236.5 18 236.5 55 c 0,0,1
236.5 494 m 0,12,13
 236.5 533 236.5 533 255 548 c 128,-1,14
 273.5 563 273.5 563 298.5 563 c 0,15,16
 325.5 563 325.5 563 344.5 547.5 c 128,-1,17
 363.5 532 363.5 532 363.5 494 c 0,18,19
 363.5 457 363.5 457 344.5 440.5 c 128,-1,20
 325.5 424 325.5 424 298.5 424 c 0,21,22
 272.5 424 272.5 424 254.5 440.5 c 128,-1,23
 236.5 457 236.5 457 236.5 494 c 0,12,13
EndSplineSet
EndChar

StartChar: semicolon
Encoding: 59 59 26
Width: 600
GlyphClass: 1
Flags: W
LayerCount: 2
Fore
SplineSet
371.5 108 m 1,0,1
 362.5 72 362.5 72 348.5 30 c 128,-1,2
 334.5 -12 334.5 -12 317.5 -53.5 c 128,-1,3
 300.5 -95 300.5 -95 283.5 -132 c 1,4,-1
 216.5 -132 l 1,5,6
 223.5 -103 223.5 -103 231 -70.5 c 128,-1,7
 238.5 -38 238.5 -38 246 -4.5 c 128,-1,8
 253.5 29 253.5 29 259 60.5 c 128,-1,9
 264.5 92 264.5 92 268.5 119 c 1,10,-1
 364.5 119 l 1,11,-1
 371.5 108 l 1,0,1
256.5 494 m 0,12,13
 256.5 533 256.5 533 275 548 c 128,-1,14
 293.5 563 293.5 563 318.5 563 c 0,15,16
 345.5 563 345.5 563 364.5 547.5 c 128,-1,17
 383.5 532 383.5 532 383.5 494 c 0,18,19
 383.5 457 383.5 457 364.5 440.5 c 128,-1,20
 345.5 424 345.5 424 318.5 424 c 0,21,22
 292.5 424 292.5 424 274.5 440.5 c 128,-1,23
 256.5 457 256.5 457 256.5 494 c 0,12,13
EndSplineSet
EndChar

StartChar: less
Encoding: 60 60 27
Width: 600
GlyphClass: 1
Flags: W
LayerCount: 2
Fore
SplineSet
541.5 119 m 1,0,-1
 58.5 331 l 1,1,-1
 58.5 382 l 1,2,-1
 541.5 623 l 1,3,-1
 541.5 543 l 1,4,-1
 154.5 360 l 1,5,-1
 541.5 199 l 1,6,-1
 541.5 119 l 1,0,-1
EndSplineSet
EndChar

StartChar: equal
Encoding: 61 61 28
Width: 600
GlyphClass: 1
Flags: W
LayerCount: 2
Fore
SplineSet
65.5 426 m 1,0,-1
 65.5 499 l 1,1,-1
 534.5 499 l 1,2,-1
 534.5 426 l 1,3,-1
 65.5 426 l 1,0,-1
65.5 222 m 1,4,-1
 65.5 295 l 1,5,-1
 534.5 295 l 1,6,-1
 534.5 222 l 1,7,-1
 65.5 222 l 1,4,-1
EndSplineSet
EndChar

StartChar: greater
Encoding: 62 62 29
Width: 600
GlyphClass: 1
Flags: W
LayerCount: 2
Fore
SplineSet
58.5 199 m 1,0,-1
 444.5 359 l 1,1,-1
 58.5 543 l 1,2,-1
 58.5 623 l 1,3,-1
 541.5 382 l 1,4,-1
 541.5 331 l 1,5,-1
 58.5 119 l 1,6,-1
 58.5 199 l 1,0,-1
EndSplineSet
EndChar

StartChar: question
Encoding: 63 63 30
Width: 600
GlyphClass: 1
Flags: W
LayerCount: 2
Fore
SplineSet
228 204 m 6,0,1
 228 243 228 243 236 271 c 132,-1,2
 244 299 244 299 263 324.5 c 132,-1,3
 282 350 282 350 314 378 c 4,4,5
 354 412 354 412 376 434.5 c 132,-1,6
 398 457 398 457 407.5 478.5 c 132,-1,7
 417 500 417 500 417 530 c 4,8,9
 417 579 417 579 385 606 c 132,-1,10
 353 633 353 633 293 633 c 4,11,12
 243 633 243 633 204 620 c 132,-1,13
 165 607 165 607 129 590 c 5,14,-1
 97 662 l 5,15,16
 138 684 138 684 188 698 c 132,-1,17
 238 712 238 712 299 712 c 4,18,19
 396 712 396 712 449.5 663.5 c 132,-1,20
 503 615 503 615 503 532 c 4,21,22
 503 486 503 486 488 454 c 132,-1,23
 473 422 473 422 446 395 c 132,-1,24
 419 368 419 368 382 337 c 4,25,26
 348 308 348 308 330 286.5 c 132,-1,27
 312 265 312 265 306 244 c 132,-1,28
 300 223 300 223 300 194 c 6,29,-1
 300 176 l 5,30,-1
 228 176 l 5,31,-1
 228 204 l 6,0,1
205 26 m 4,32,33
 205 64 205 64 223 79 c 132,-1,34
 241 94 241 94 268 94 c 4,35,36
 294 94 294 94 312.5 78.5 c 132,-1,37
 331 63 331 63 331 26 c 4,38,39
 331 -11 331 -11 312.5 -27.5 c 132,-1,40
 294 -44 294 -44 268 -44 c 4,41,42
 240 -44 240 -44 222.5 -27.5 c 132,-1,43
 205 -11 205 -11 205 26 c 4,32,33
EndSplineSet
EndChar

StartChar: bracketleft
Encoding: 91 91 31
Width: 600
GlyphClass: 1
Flags: W
LayerCount: 2
Fore
SplineSet
202.487304688 -72 m 0,0,1
 199.487304688 -69 199.487304688 -69 197.987304688 -58 c 128,-1,2
 196.487304688 -47 196.487304688 -47 195.487304688 -12.5 c 128,-1,3
 194.487304688 22 194.487304688 22 194.487304688 89 c 128,-1,4
 194.487304688 156 194.487304688 156 194.487304688 272 c 0,5,6
 194.487304688 355 194.487304688 355 194.487304688 414.5 c 128,-1,7
 194.487304688 474 194.487304688 474 194.487304688 515.5 c 128,-1,8
 194.487304688 557 194.487304688 557 195.487304688 583.5 c 128,-1,9
 196.487304688 610 196.487304688 610 198.487304688 626 c 128,-1,10
 200.487304688 642 200.487304688 642 203.487304688 650 c 128,-1,11
 206.487304688 658 206.487304688 658 211.487304688 665 c 0,12,13
 215.487304688 670 215.487304688 670 227.487304688 673 c 128,-1,14
 239.487304688 676 239.487304688 676 255.487304688 677.5 c 128,-1,15
 271.487304688 679 271.487304688 679 291.487304688 679.5 c 128,-1,16
 311.487304688 680 311.487304688 680 331.487304688 680 c 0,17,18
 373.487304688 680 373.487304688 680 394.487304688 665.5 c 128,-1,19
 415.487304688 651 415.487304688 651 396.487304688 631 c 0,20,21
 391.487304688 625 391.487304688 625 376.987304688 620.5 c 128,-1,22
 362.487304688 616 362.487304688 616 331.487304688 616 c 0,23,24
 317.487304688 616 317.487304688 616 309.487304688 614 c 128,-1,25
 301.487304688 612 301.487304688 612 298.487304688 607 c 128,-1,26
 295.487304688 602 295.487304688 602 295.487304688 593.5 c 128,-1,27
 295.487304688 585 295.487304688 585 295.487304688 570 c 2,28,-1
 295.487304688 -20 l 1,29,-1
 314.487304688 -20 l 2,30,31
 358.487304688 -20 358.487304688 -20 372.987304688 -28 c 128,-1,32
 387.487304688 -36 387.487304688 -36 387.487304688 -57 c 0,33,34
 387.487304688 -67 387.487304688 -67 383.987304688 -73 c 128,-1,35
 380.487304688 -79 380.487304688 -79 369.987304688 -81.5 c 128,-1,36
 359.487304688 -84 359.487304688 -84 340.987304688 -84.5 c 128,-1,37
 322.487304688 -85 322.487304688 -85 291.487304688 -85 c 0,38,39
 263.487304688 -85 263.487304688 -85 247.987304688 -85 c 128,-1,40
 232.487304688 -85 232.487304688 -85 222.987304688 -83.5 c 128,-1,41
 213.487304688 -82 213.487304688 -82 209.487304688 -79.5 c 128,-1,42
 205.487304688 -77 205.487304688 -77 202.487304688 -72 c 0,0,1
240.487304688 631 m 256,43,44
 242.487304688 639 242.487304688 639 251.487304688 645 c 128,-1,45
 260.487304688 651 260.487304688 651 267.487304688 651 c 0,46,47
 276.487304688 651 276.487304688 651 276.487304688 658 c 0,48,49
 276.487304688 659 276.487304688 659 274.987304688 659 c 128,-1,50
 273.487304688 659 273.487304688 659 267.487304688 659 c 0,51,52
 252.487304688 659 252.487304688 659 237.987304688 649 c 128,-1,53
 223.487304688 639 223.487304688 639 223.487304688 625 c 0,54,55
 223.487304688 613 223.487304688 613 227.487304688 612 c 256,56,57
 231.487304688 612 231.487304688 612 234.987304688 617.5 c 128,-1,58
 238.487304688 623 238.487304688 623 240.487304688 631 c 256,43,44
EndSplineSet
EndChar

StartChar: backslash
Encoding: 92 92 32
Width: 600
GlyphClass: 1
Flags: W
LayerCount: 2
Fore
SplineSet
184 682 m 0,0,1
 191 682 191 682 209.5 645.5 c 128,-1,2
 228 609 228 609 252 554 c 128,-1,3
 276 499 276 499 302.5 433 c 128,-1,4
 329 367 329 367 352.5 307 c 128,-1,5
 376 247 376 247 393 202.5 c 128,-1,6
 410 158 410 158 416 145 c 0,7,8
 422 132 422 132 434 104 c 128,-1,9
 446 76 446 76 458 45.5 c 128,-1,10
 470 15 470 15 478.5 -11 c 128,-1,11
 487 -37 487 -37 487 -45 c 0,12,13
 487 -52 487 -52 482 -58.5 c 128,-1,14
 477 -65 477 -65 469 -69.5 c 128,-1,15
 461 -74 461 -74 452.5 -76.5 c 128,-1,16
 444 -79 444 -79 437 -79 c 0,17,18
 423 -79 423 -79 411 -69 c 128,-1,19
 399 -59 399 -59 392 -48 c 0,20,21
 386 -38 386 -38 370.5 -3 c 128,-1,22
 355 32 355 32 334.5 81.5 c 128,-1,23
 314 131 314 131 289.5 191.5 c 128,-1,24
 265 252 265 252 240.5 313.5 c 128,-1,25
 216 375 216 375 193 433.5 c 128,-1,26
 170 492 170 492 152.5 538 c 128,-1,27
 135 584 135 584 124 613 c 128,-1,28
 113 642 113 642 113 645 c 0,29,30
 113 654 113 654 122.5 661.5 c 128,-1,31
 132 669 132 669 144 673.5 c 128,-1,32
 156 678 156 678 168 680 c 128,-1,33
 180 682 180 682 184 682 c 0,0,1
158 641 m 0,34,35
 156 646 156 646 148.5 644 c 128,-1,36
 141 642 141 642 141 635 c 0,37,38
 141 629 141 629 146 614 c 128,-1,39
 151 599 151 599 158 583 c 128,-1,40
 165 567 165 567 171.5 553.5 c 128,-1,41
 178 540 178 540 180 536 c 0,42,43
 183 531 183 531 188 530.5 c 128,-1,44
 193 530 193 530 195 531 c 0,45,46
 200 532 200 532 196.5 545 c 128,-1,47
 193 558 193 558 186 575 c 128,-1,48
 179 592 179 592 170.5 610.5 c 128,-1,49
 162 629 162 629 158 641 c 0,34,35
EndSplineSet
EndChar

StartChar: bracketright
Encoding: 93 93 33
Width: 600
GlyphClass: 1
Flags: W
LayerCount: 2
Fore
SplineSet
228.25 -82 m 0,0,1
 213.25 -82 213.25 -82 202.25 -73.5 c 128,-1,2
 191.25 -65 191.25 -65 191.25 -56 c 0,3,4
 191.25 -33 191.25 -33 205.25 -25 c 128,-1,5
 219.25 -17 219.25 -17 239.25 -17 c 0,6,7
 264.25 -17 264.25 -17 278.25 -15 c 128,-1,8
 292.25 -13 292.25 -13 298.75 -8.5 c 128,-1,9
 305.25 -4 305.25 -4 306.75 3.5 c 128,-1,10
 308.25 11 308.25 11 308.25 22 c 2,11,-1
 308.25 564 l 2,12,13
 308.25 594 308.25 594 295.75 604 c 128,-1,14
 283.25 614 283.25 614 272.25 614 c 256,15,16
 261.25 614 261.25 614 248.75 612 c 128,-1,17
 236.25 610 236.25 610 225.25 610 c 0,18,19
 211.25 610 211.25 610 201.25 617.5 c 128,-1,20
 191.25 625 191.25 625 191.25 648 c 0,21,22
 191.25 660 191.25 660 208.25 669 c 128,-1,23
 225.25 678 225.25 678 255.25 678 c 0,24,25
 281.25 678 281.25 678 305.75 678 c 128,-1,26
 330.25 678 330.25 678 350.25 676.5 c 128,-1,27
 370.25 675 370.25 675 383.25 672 c 128,-1,28
 396.25 669 396.25 669 399.25 663 c 0,29,30
 402.25 658 402.25 658 402.75 641 c 128,-1,31
 403.25 624 403.25 624 403.25 584.5 c 128,-1,32
 403.25 545 403.25 545 403.75 477.5 c 128,-1,33
 404.25 410 404.25 410 405.25 302 c 0,34,35
 407.25 198 407.25 198 408.25 130.5 c 128,-1,36
 409.25 63 409.25 63 408.25 22 c 0,37,38
 408.25 -7 408.25 -7 404.25 -25.5 c 128,-1,39
 400.25 -44 400.25 -44 394.25 -55.5 c 128,-1,40
 388.25 -67 388.25 -67 379.75 -72 c 128,-1,41
 371.25 -77 371.25 -77 360.25 -78 c 0,42,43
 342.25 -80 342.25 -80 320.25 -81 c 128,-1,44
 298.25 -82 298.25 -82 278.75 -82 c 128,-1,45
 259.25 -82 259.25 -82 244.75 -82 c 128,-1,46
 230.25 -82 230.25 -82 228.25 -82 c 0,0,1
223.25 659 m 256,47,48
 219.25 664 219.25 664 212.25 660 c 128,-1,49
 205.25 656 205.25 656 205.25 648 c 0,50,51
 205.25 638 205.25 638 209.25 638 c 256,52,53
 213.25 638 213.25 638 213.25 645 c 0,54,55
 214.25 649 214.25 649 220.75 651.5 c 128,-1,56
 227.25 654 227.25 654 223.25 659 c 256,47,48
EndSplineSet
EndChar

StartChar: asciicircum
Encoding: 94 94 34
Width: 600
GlyphClass: 1
Flags: W
LayerCount: 2
Fore
SplineSet
46 273 m 1,0,-1
 263 736 l 1,1,-1
 314 736 l 1,2,-1
 554 273 l 1,3,-1
 474 273 l 1,4,-1
 290 641 l 1,5,-1
 126 273 l 1,6,-1
 46 273 l 1,0,-1
EndSplineSet
EndChar

StartChar: underscore
Encoding: 95 95 35
Width: 600
GlyphClass: 1
Flags: W
LayerCount: 2
Fore
SplineSet
529.5 -158 m 1,0,-1
 70.5 -158 l 1,1,-1
 70.5 -92 l 1,2,-1
 529.5 -92 l 1,3,-1
 529.5 -158 l 1,0,-1
EndSplineSet
EndChar

StartChar: braceleft
Encoding: 123 123 36
Width: 600
GlyphClass: 1
Flags: W
LayerCount: 2
Fore
SplineSet
35 379 m 1,0,1
 76 379 76 379 122.5 388 c 128,-1,2
 169 397 169 397 183.5 417.5 c 128,-1,3
 198 438 198 438 198 471 c 2,4,-1
 198 708 l 2,5,6
 198 759 198 759 220.5 790 c 128,-1,7
 243 821 243 821 379 836 c 128,-1,8
 515 851 515 851 565 852 c 1,9,-1
 565 778 l 1,10,11
 537 778 537 778 420 771.5 c 128,-1,12
 303 765 303 765 292 749 c 128,-1,13
 281 733 281 733 281 701 c 2,14,-1
 281 466 l 2,15,16
 281 415 281 415 253.5 384.5 c 128,-1,17
 226 354 226 354 172 343 c 1,18,-1
 172 338 l 1,19,20
 225 328 225 328 253 298 c 128,-1,21
 281 268 281 268 281 216 c 2,22,-1
 281 -18 l 2,23,24
 281 -50 281 -50 292 -66.5 c 128,-1,25
 303 -83 303 -83 420 -89 c 128,-1,26
 537 -95 537 -95 565 -96 c 1,27,-1
 565 -170 l 1,28,29
 515 -169 515 -169 379 -154 c 128,-1,30
 243 -139 243 -139 220.5 -108 c 128,-1,31
 198 -77 198 -77 198 -26 c 2,32,-1
 198 211 l 2,33,34
 198 245 198 245 183.5 265 c 128,-1,35
 169 285 169 285 122.5 294 c 128,-1,36
 76 303 76 303 35 303 c 1,37,-1
 35 379 l 1,0,1
EndSplineSet
EndChar

StartChar: bar
Encoding: 124 124 37
Width: 600
GlyphClass: 1
Flags: W
LayerCount: 2
Fore
SplineSet
263.5 852 m 1,0,-1
 336.5 852 l 1,1,-1
 336.5 -170 l 1,2,-1
 263.5 -170 l 1,3,-1
 263.5 852 l 1,0,-1
EndSplineSet
EndChar

StartChar: asciitilde
Encoding: 126 126 39
Width: 600
GlyphClass: 1
Flags: W
LayerCount: 2
Fore
SplineSet
29.73046875 343 m 5,0,1
 60.150390625 371 60.150390625 371 95.8349609375 384 c 132,-1,2
 131.51953125 397 131.51953125 397 174.810546875 397 c 4,3,4
 197.040039062 397 197.040039062 397 216.344726562 394.5 c 132,-1,5
 235.650390625 392 235.650390625 392 259.635742188 385.5 c 132,-1,6
 283.620117188 379 283.620117188 379 319.889648438 366 c 4,7,8
 364.349609375 350 364.349609375 350 388.334960938 344 c 132,-1,9
 412.3203125 338 412.3203125 338 436.889648438 338 c 4,10,11
 470.8203125 338 470.8203125 338 506.504882812 355.5 c 132,-1,12
 542.189453125 373 542.189453125 373 570.26953125 398 c 5,13,-1
 570.26953125 317 l 5,14,15
 541.01953125 290 541.01953125 290 504.75 276.5 c 132,-1,16
 468.48046875 263 468.48046875 263 425.189453125 263 c 4,17,18
 402.959960938 263 402.959960938 263 383.655273438 265.5 c 132,-1,19
 364.349609375 268 364.349609375 268 340.950195312 275 c 132,-1,20
 317.549804688 282 317.549804688 282 280.110351562 295 c 4,21,22
 236.819335938 311 236.819335938 311 213.419921875 317 c 132,-1,23
 190.01953125 323 190.01953125 323 163.110351562 323 c 4,24,25
 130.349609375 323 130.349609375 323 94.6650390625 305.5 c 132,-1,26
 58.98046875 288 58.98046875 288 29.73046875 262 c 5,27,-1
 29.73046875 343 l 5,0,1
EndSplineSet
EndChar

StartChar: A
Encoding: 65 65 40
Width: 600
VWidth: 1000
GlyphClass: 2
Flags: W
LayerCount: 2
Fore
SplineSet
255 221 m 4
 228.400390625 221 228.400390625 221 212.299804688 237.25 c 4
 196.200195312 253.5 196.200195312 253.5 196.200195312 280.799804688 c 4
 196.200195312 305.5 196.200195312 305.5 210.200195312 326.950195312 c 4
 224.200195312 348.400390625 224.200195312 348.400390625 255 348.400390625 c 4
 287.200195312 348.400390625 287.200195312 348.400390625 304 328.25 c 4
 320.799804688 308.100585938 320.799804688 308.100585938 320.799804688 280.799804688 c 4
 320.799804688 250.900390625 320.799804688 250.900390625 301.900390625 235.950195312 c 4
 283 221 283 221 255 221 c 4
229.799804688 288.600585938 m 4
 231.200195312 302.900390625 231.200195312 302.900390625 236.799804688 314.600585938 c 4
 242.400390625 326.299804688 242.400390625 326.299804688 235.400390625 326.299804688 c 4
 225.600585938 326.299804688 225.600585938 326.299804688 219.299804688 307.450195312 c 4
 213 288.600585938 213 288.600585938 213 274.299804688 c 4
 213 261.299804688 213 261.299804688 220 261.299804688 c 4
 225.600585938 261.299804688 225.600585938 261.299804688 227 271.049804688 c 4
 228.400390625 280.799804688 228.400390625 280.799804688 229.799804688 288.600585938 c 4
EndSplineSet
Refer: 66 97 N 1 0 0 1 0 0 2
EndChar

StartChar: B
Encoding: 66 66 41
Width: 600
GlyphClass: 2
Flags: W
LayerCount: 2
Fore
SplineSet
550.5 564 m 1,0,-1
 500.5 564 l 1,1,-1
 500.5 0 l 1,2,-1
 417.5 0 l 1,3,-1
 417.5 202 l 1,4,-1
 442.5 176 l 1,5,6
 407.5 146 407.5 146 364.5 131 c 128,-1,7
 321.5 116 321.5 116 262.5 116 c 0,8,9
 166.5 116 166.5 116 110 165 c 128,-1,10
 53.5 214 53.5 214 53.5 295 c 0,11,12
 53.5 389 53.5 389 116 434 c 128,-1,13
 178.5 479 178.5 479 276.5 479 c 0,14,15
 307.5 479 307.5 479 333 476.5 c 128,-1,16
 358.5 474 358.5 474 381.5 469 c 1,17,-1
 375.5 398 l 1,18,19
 352.5 403 352.5 403 329.5 406 c 128,-1,20
 306.5 409 306.5 409 282.5 409 c 0,21,22
 213.5 409 213.5 409 175 381 c 128,-1,23
 136.5 353 136.5 353 136.5 295 c 0,24,25
 136.5 240 136.5 240 172.5 212.5 c 128,-1,26
 208.5 185 208.5 185 265.5 185 c 0,27,28
 301.5 185 301.5 185 332.5 196.5 c 128,-1,29
 363.5 208 363.5 208 389 227 c 128,-1,30
 414.5 246 414.5 246 430.5 266 c 1,31,-1
 417.5 221 l 1,32,-1
 417.5 564 l 1,33,-1
 49.5 564 l 5,34,-1
 49.5 637 l 5,35,-1
 550.5 637 l 1,36,-1
 550.5 564 l 1,0,-1
216.5 434 m 1,37,-1
 392.5 210 l 1,38,-1
 345.5 167 l 1,39,-1
 152.5 411 l 1,40,-1
 216.5 434 l 1,37,-1
EndSplineSet
EndChar

StartChar: C
Encoding: 67 67 42
Width: 600
VWidth: 1000
GlyphClass: 2
Flags: W
LayerCount: 2
Fore
SplineSet
302.099609375 603.049804688 m 0
 275.5 603.049804688 275.5 603.049804688 259.399414062 619.299804688 c 0
 243.299804688 635.549804688 243.299804688 635.549804688 243.299804688 662.849609375 c 0
 243.299804688 687.549804688 243.299804688 687.549804688 257.299804688 709 c 0
 271.299804688 730.450195312 271.299804688 730.450195312 302.099609375 730.450195312 c 0
 334.299804688 730.450195312 334.299804688 730.450195312 351.099609375 710.299804688 c 0
 367.899414062 690.150390625 367.899414062 690.150390625 367.899414062 662.849609375 c 0
 367.899414062 632.950195312 367.899414062 632.950195312 349 618 c 0
 330.099609375 603.049804688 330.099609375 603.049804688 302.099609375 603.049804688 c 0
276.899414062 670.650390625 m 0
 278.299804688 684.950195312 278.299804688 684.950195312 283.899414062 696.650390625 c 0
 289.5 708.349609375 289.5 708.349609375 282.5 708.349609375 c 0
 272.700195312 708.349609375 272.700195312 708.349609375 266.399414062 689.5 c 0
 260.099609375 670.650390625 260.099609375 670.650390625 260.099609375 656.349609375 c 0
 260.099609375 643.349609375 260.099609375 643.349609375 267.099609375 643.349609375 c 0
 272.700195312 643.349609375 272.700195312 643.349609375 274.099609375 653.099609375 c 0
 275.5 662.849609375 275.5 662.849609375 276.899414062 670.650390625 c 0
EndSplineSet
Refer: 70 99 S 1 0 0 1 0 0 2
EndChar

StartChar: D
Encoding: 68 68 43
Width: 600
GlyphClass: 2
Flags: W
LayerCount: 2
Fore
SplineSet
359.5 227 m 0,0,1
 328.5 227 328.5 227 297.5 221 c 128,-1,2
 266.5 215 266.5 215 242.5 204 c 1,3,4
 199.5 232 199.5 232 165 269 c 128,-1,5
 130.5 306 130.5 306 130.5 356 c 0,6,7
 130.5 415 130.5 415 169.5 445 c 128,-1,8
 208.5 475 208.5 475 289.5 475 c 2,9,-1
 410.5 475 l 1,10,-1
 410.5 564 l 1,11,-1
 75.5 564 l 1,12,-1
 75.5 637 l 1,13,-1
 543.5 637 l 1,14,-1
 543.5 564 l 1,15,-1
 493.5 564 l 1,16,-1
 493.5 403 l 1,17,-1
 290.5 403 l 2,18,19
 249.5 403 249.5 403 231 390 c 128,-1,20
 212.5 377 212.5 377 212.5 350 c 0,21,22
 212.5 331 212.5 331 225.5 313 c 128,-1,23
 238.5 295 238.5 295 255.5 283 c 1,24,25
 280.5 291 280.5 291 309 296 c 128,-1,26
 337.5 301 337.5 301 367.5 301 c 0,27,28
 450.5 301 450.5 301 494 262.5 c 128,-1,29
 537.5 224 537.5 224 537.5 158 c 0,30,31
 537.5 113 537.5 113 516.5 77 c 128,-1,32
 495.5 41 495.5 41 451.5 20.5 c 128,-1,33
 407.5 0 407.5 0 337.5 0 c 0,34,35
 249.5 0 249.5 0 180.5 34.5 c 128,-1,36
 111.5 69 111.5 69 56.5 122 c 1,37,-1
 108.5 189 l 1,38,39
 162.5 133 162.5 133 218 104.5 c 128,-1,40
 273.5 76 273.5 76 335.5 76 c 0,41,42
 395.5 76 395.5 76 425 96.5 c 128,-1,43
 454.5 117 454.5 117 454.5 155 c 0,44,45
 454.5 189 454.5 189 432.5 208 c 128,-1,46
 410.5 227 410.5 227 359.5 227 c 0,0,1
EndSplineSet
EndChar

StartChar: E
Encoding: 69 69 44
Width: 600
VWidth: 1000
GlyphClass: 2
Flags: W
LayerCount: 2
Fore
SplineSet
385.5 20 m 6,0,1
 219 20 219 20 130.5 94 c 4,2,3
 43 168 43 168 42.5 311 c 260,4,5
 43 454 43 454 129.5 528 c 132,-1,6
 216 602 216 602 385.5 602 c 6,7,-1
 557.5 602 l 5,8,-1
 557.5 531 l 5,9,-1
 373.5 531 l 6,10,11
 139 531 139 531 116.5 347 c 5,12,-1
 557.5 347 l 5,13,-1
 557.5 276 l 5,14,-1
 116.5 276 l 5,15,16
 127 185 127 185 192.5 138 c 4,17,18
 259 91 259 91 373.5 91 c 6,19,-1
 557.5 91 l 5,20,-1
 557.5 20 l 5,21,-1
 385.5 20 l 6,0,1
EndSplineSet
EndChar

StartChar: F
Encoding: 70 70 45
Width: 600
VWidth: 1000
GlyphClass: 2
Flags: W
LayerCount: 2
Fore
SplineSet
116 -81 m 0,0,1
 116.517578125 -67 116.517578125 -67 121.5 -57.5 c 128,-1,2
 126.517578125 -48 126.517578125 -48 135 -42 c 0,3,4
 142.517578125 -36 142.517578125 -36 152.5 -33.5 c 128,-1,5
 162.517578125 -31 162.517578125 -31 168 -29 c 0,6,7
 194.517578125 -21 194.517578125 -21 202.5 -6 c 0,8,9
 216.485351562 18.943359375 216.485351562 18.943359375 219 51 c 2,10,-1
 239 306 l 1,11,-1
 74 306 l 2,12,13
 63.517578125 306 63.517578125 306 57 319 c 0,14,15
 50.517578125 334 50.517578125 334 51 346 c 256,16,17
 51.517578125 360 51.517578125 360 57 370.5 c 0,18,19
 63.517578125 381 63.517578125 381 74 381 c 2,20,-1
 244 381 l 1,21,-1
 247 478 l 2,22,23
 249.517578125 553 249.517578125 553 289 596 c 0,24,25
 322.517578125 633 322.517578125 633 421 633 c 0,26,27
 449.517578125 633 449.517578125 633 464.5 621 c 0,28,29
 478.517578125 610 478.517578125 610 479 590 c 0,30,31
 479.517578125 576 479.517578125 576 474.5 567.5 c 128,-1,32
 469.517578125 559 469.517578125 559 463 554.5 c 0,33,34
 455.517578125 550 455.517578125 550 449 549.5 c 0,35,36
 441.517578125 549 441.517578125 549 436 550 c 0,37,38
 419.517578125 553 419.517578125 553 408 551.5 c 0,39,40
 361.517578125 549 361.517578125 549 358.5 541.5 c 0,41,42
 350.517578125 521 350.517578125 521 346.5 517 c 0,43,44
 340.147460938 509.56640625 340.147460938 509.56640625 339 474 c 2,45,-1
 336 381 l 1,46,-1
 520 381 l 2,47,48
 534.517578125 381 534.517578125 381 542 371 c 0,49,50
 549.517578125 359 549.517578125 359 549 345 c 0,51,52
 548.517578125 330 548.517578125 330 542.5 319 c 128,-1,53
 536.517578125 308 536.517578125 308 521 308 c 0,54,55
 512.517578125 308 512.517578125 308 500.5 307 c 0,56,57
 487.517578125 306 487.517578125 306 455 306 c 2,58,-1
 332 306 l 1,59,-1
 312 44 l 2,60,61
 306.517578125 -31 306.517578125 -31 272 -70 c 0,62,63
 236.517578125 -110 236.517578125 -110 183 -118 c 0,64,65
 152.517578125 -123 152.517578125 -123 134.5 -113.5 c 0,66,67
 115.517578125 -103 115.517578125 -103 116 -81 c 0,0,1
282 526 m 0,68,69
 282 537 282 537 290 553 c 128,-1,70
 298 569 298 569 306 577 c 256,71,72
 314 585 314 585 315 589.5 c 128,-1,73
 316 594 316 594 312 594 c 0,74,75
 304 594 304 594 296 585 c 128,-1,76
 288 576 288 576 282 564 c 128,-1,77
 276 552 276 552 272 540 c 128,-1,78
 268 528 268 528 268 521 c 0,79,80
 268 511 268 511 274 511 c 0,81,82
 282 511 282 511 282 526 c 0,68,69
138 -84 m 256,83,84
 140 -84 140 -84 141.5 -80 c 128,-1,85
 143 -76 143 -76 144.5 -71 c 128,-1,86
 146 -66 146 -66 149.5 -61.5 c 128,-1,87
 153 -57 153 -57 160 -55 c 0,88,89
 165 -53 165 -53 171 -52 c 128,-1,90
 177 -51 177 -51 177 -43 c 0,91,92
 177 -40 177 -40 171 -40 c 0,93,94
 166 -40 166 -40 159 -43.5 c 128,-1,95
 152 -47 152 -47 145 -52.5 c 128,-1,96
 138 -58 138 -58 133.5 -64.5 c 128,-1,97
 129 -71 129 -71 129 -77 c 0,98,99
 129 -80 129 -80 132.5 -82 c 128,-1,100
 136 -84 136 -84 138 -84 c 256,83,84
EndSplineSet
EndChar

StartChar: G
Encoding: 71 71 46
Width: 600
VWidth: 1000
GlyphClass: 2
Flags: W
LayerCount: 2
Fore
SplineSet
299 1 m 0,0,1
 236 1 236 1 195.5 34 c 128,-1,2
 155 67 155 67 132 117 c 128,-1,3
 109 167 109 167 100.5 225 c 128,-1,4
 92 283 92 283 92 334 c 0,5,6
 92 390 92 390 105.5 443.5 c 128,-1,7
 119 497 119 497 147.5 538.5 c 128,-1,8
 176 580 176 580 221.5 605.5 c 128,-1,9
 267 631 267 631 331 631 c 0,10,11
 358 631 358 631 387.5 625 c 128,-1,12
 417 619 417 619 441.5 602.5 c 128,-1,13
 466 586 466 586 482.5 558 c 128,-1,14
 499 530 499 530 499 486 c 0,15,16
 499 470 499 470 492.5 460.5 c 128,-1,17
 486 451 486 451 476.5 445.5 c 128,-1,18
 467 440 467 440 457 438.5 c 128,-1,19
 447 437 447 437 441 437 c 0,20,21
 427 437 427 437 414.5 447 c 128,-1,22
 402 457 402 457 402 486 c 0,23,24
 402 509 402 509 394 521 c 128,-1,25
 386 533 386 533 375 538.5 c 128,-1,26
 364 544 364 544 353.5 545 c 128,-1,27
 343 546 343 546 337 546 c 0,28,29
 311 546 311 546 288 530.5 c 128,-1,30
 265 515 265 515 247.5 486 c 128,-1,31
 230 457 230 457 220 415 c 128,-1,32
 210 373 210 373 210 320 c 0,33,34
 210 291 210 291 213.5 251 c 128,-1,35
 217 211 217 211 229 175 c 128,-1,36
 241 139 241 139 263 113.5 c 128,-1,37
 285 88 285 88 321 88 c 0,38,39
 344 88 344 88 361 103 c 128,-1,40
 378 118 378 118 389.5 140 c 128,-1,41
 401 162 401 162 407 186.5 c 128,-1,42
 413 211 413 211 412 230 c 0,43,44
 411 246 411 246 392.5 247.5 c 128,-1,45
 374 249 374 249 351 249 c 2,46,-1
 289 249 l 2,47,48
 283 249 283 249 278 255 c 128,-1,49
 273 261 273 261 270 269.5 c 128,-1,50
 267 278 267 278 265 287 c 128,-1,51
 263 296 263 296 263 302 c 0,52,53
 263 318 263 318 273.5 330.5 c 128,-1,54
 284 343 284 343 307 343 c 2,55,-1
 432 342 l 2,56,57
 445 342 445 342 458.5 336.5 c 128,-1,58
 472 331 472 331 482.5 320.5 c 128,-1,59
 493 310 493 310 500 293.5 c 128,-1,60
 507 277 507 277 507 254 c 0,61,62
 507 219 507 219 507.5 189 c 128,-1,63
 508 159 508 159 508 115 c 0,64,65
 508 81 508 81 505.5 60 c 128,-1,66
 503 39 503 39 497 27 c 128,-1,67
 491 15 491 15 482.5 10.5 c 128,-1,68
 474 6 474 6 462 6 c 0,69,70
 445 6 445 6 437 18.5 c 128,-1,71
 429 31 429 31 425.5 46 c 128,-1,72
 422 61 422 61 421 73.5 c 128,-1,73
 420 86 420 86 417 86 c 256,74,75
 414 86 414 86 408 72.5 c 128,-1,76
 402 59 402 59 389 43.5 c 128,-1,77
 376 28 376 28 355 14.5 c 128,-1,78
 334 1 334 1 299 1 c 0,0,1
204 82 m 0,79,80
 204 87 204 87 188 110 c 0,81,82
 181 121 181 121 174 135.5 c 128,-1,83
 167 150 167 150 162 164 c 128,-1,84
 157 178 157 178 154 190 c 128,-1,85
 151 202 151 202 152 206 c 0,86,87
 153 211 153 211 150 213.5 c 128,-1,88
 147 216 147 216 146 216 c 0,89,90
 138 216 138 216 136 205 c 256,91,92
 134 194 134 194 139.5 173 c 128,-1,93
 145 152 145 152 154.5 131 c 128,-1,94
 164 110 164 110 175.5 94 c 128,-1,95
 187 78 187 78 196 77 c 0,96,97
 203 75 203 75 204 82 c 0,79,80
467 31 m 0,98,99
 467 39 467 39 459 44.5 c 128,-1,100
 451 50 451 50 450 62 c 0,101,102
 450 65 450 65 449.5 73 c 128,-1,103
 449 81 449 81 444 81 c 256,104,105
 439 81 439 81 438 74.5 c 128,-1,106
 437 68 437 68 437 63 c 256,107,108
 437 58 437 58 438.5 50.5 c 128,-1,109
 440 43 440 43 443 36.5 c 128,-1,110
 446 30 446 30 450 25 c 128,-1,111
 454 20 454 20 459 20 c 256,112,113
 464 20 464 20 465.5 24 c 128,-1,114
 467 28 467 28 467 31 c 0,98,99
224 65 m 0,115,116
 225 68 225 68 222.5 70.5 c 128,-1,117
 220 73 220 73 218 73 c 0,118,119
 214 74 214 74 212.5 71 c 128,-1,120
 211 68 211 68 210 66 c 0,121,122
 209 61 209 61 211.5 59.5 c 128,-1,123
 214 58 214 58 216 58 c 0,124,125
 222 58 222 58 224 65 c 0,115,116
EndSplineSet
EndChar

StartChar: H
Encoding: 72 72 47
Width: 600
VWidth: 1000
GlyphClass: 2
Flags: W
LayerCount: 2
Fore
SplineSet
349 556.599609375 m 0
 322.400390625 556.599609375 322.400390625 556.599609375 306.299804688 572.849609375 c 0
 290.200195312 589.099609375 290.200195312 589.099609375 290.200195312 616.399414062 c 0
 290.200195312 641.099609375 290.200195312 641.099609375 304.200195312 662.549804688 c 0
 318.200195312 684 318.200195312 684 349 684 c 0
 381.200195312 684 381.200195312 684 398 663.849609375 c 0
 414.799804688 643.700195312 414.799804688 643.700195312 414.799804688 616.399414062 c 0
 414.799804688 586.5 414.799804688 586.5 395.900390625 571.549804688 c 0
 377 556.599609375 377 556.599609375 349 556.599609375 c 0
323.799804688 624.200195312 m 0
 325.200195312 638.5 325.200195312 638.5 330.799804688 650.200195312 c 0
 336.400390625 661.899414062 336.400390625 661.899414062 329.400390625 661.899414062 c 0
 319.600585938 661.899414062 319.600585938 661.899414062 313.299804688 643.049804688 c 0
 307 624.200195312 307 624.200195312 307 609.899414062 c 0
 307 596.899414062 307 596.899414062 314 596.899414062 c 0
 319.600585938 596.899414062 319.600585938 596.899414062 321 606.649414062 c 0
 322.400390625 616.399414062 322.400390625 616.399414062 323.799804688 624.200195312 c 0
EndSplineSet
Refer: 77 104 N 1 0 0 1 0 0 2
EndChar

StartChar: I
Encoding: 73 73 48
Width: 600
VWidth: 1000
GlyphClass: 2
Flags: W
LayerCount: 2
Fore
SplineSet
52 448 m 1,0,-1
 264 790 l 5,1,-1
 314 790 l 5,2,-1
 548 448 l 1,3,-1
 470 448 l 1,4,-1
 290 697 l 5,5,-1
 130 448 l 1,6,-1
 52 448 l 1,0,-1
70 0 m 1,7,-1
 70 60 l 1,8,-1
 261 75 l 1,9,-1
 261 526 l 1,10,-1
 351 526 l 1,11,-1
 351 75 l 1,12,-1
 530 60 l 1,13,-1
 530 0 l 1,14,-1
 70 0 l 1,7,-1
EndSplineSet
EndChar

StartChar: J
Encoding: 74 74 49
Width: 600
VWidth: 1000
GlyphClass: 2
Flags: W
LayerCount: 2
Fore
SplineSet
308 651.599609375 m 4
 281.400390625 651.599609375 281.400390625 651.599609375 265.299804688 667.849609375 c 4
 249.200195312 684.099609375 249.200195312 684.099609375 249.200195312 711.399414062 c 4
 249.200195312 736.099609375 249.200195312 736.099609375 263.200195312 757.549804688 c 4
 277.200195312 779 277.200195312 779 308 779 c 4
 340.200195312 779 340.200195312 779 357 758.849609375 c 4
 373.799804688 738.700195312 373.799804688 738.700195312 373.799804688 711.399414062 c 4
 373.799804688 681.5 373.799804688 681.5 354.900390625 666.549804688 c 4
 336 651.599609375 336 651.599609375 308 651.599609375 c 4
282.799804688 719.200195312 m 4
 284.200195312 733.5 284.200195312 733.5 289.799804688 745.200195312 c 4
 295.400390625 756.899414062 295.400390625 756.899414062 288.400390625 756.899414062 c 4
 278.600585938 756.899414062 278.600585938 756.899414062 272.299804688 738.049804688 c 4
 266 719.200195312 266 719.200195312 266 704.899414062 c 4
 266 691.899414062 266 691.899414062 273 691.899414062 c 4
 278.600585938 691.899414062 278.600585938 691.899414062 280 701.649414062 c 4
 281.400390625 711.399414062 281.400390625 711.399414062 282.799804688 719.200195312 c 4
EndSplineSet
Refer: 79 106 N 1 0 0 1 0 0 2
EndChar

StartChar: K
Encoding: 75 75 50
Width: 600
GlyphClass: 2
Flags: W
LayerCount: 2
Fore
SplineSet
567.959960938 521.341796875 m 1,0,-1
 362.16015625 521.341796875 l 1,1,-1
 362.16015625 315.290039062 l 1,2,-1
 350.400390625 324.529296875 l 1,3,4
 367.200195312 348.553710938 367.200195312 348.553710938 396.599609375 363.799804688 c 128,-1,5
 426 379.046875 426 379.046875 462.959960938 379.046875 c 0,6,7
 524.280273438 379.046875 524.280273438 379.046875 558.299804688 338.390625 c 128,-1,8
 592.3203125 297.734375 592.3203125 297.734375 592.3203125 227.509765625 c 0,9,10
 592.3203125 178.538085938 592.3203125 178.538085938 575.099609375 132.337890625 c 128,-1,11
 557.879882812 86.1376953125 557.879882812 86.1376953125 520.080078125 39.9384765625 c 1,12,-1
 460.440429688 81.517578125 l 1,13,14
 489 113.858398438 489 113.858398438 506.639648438 149.431640625 c 128,-1,15
 524.280273438 185.005859375 524.280273438 185.005859375 524.280273438 228.434570312 c 0,16,17
 524.280273438 270.014648438 524.280273438 270.014648438 505.799804688 291.265625 c 128,-1,18
 487.3203125 312.517578125 487.3203125 312.517578125 455.400390625 312.517578125 c 0,19,20
 426.83984375 312.517578125 426.83984375 312.517578125 401.219726562 292.190429688 c 128,-1,21
 375.599609375 271.862304688 375.599609375 271.862304688 359.639648438 236.75 c 1,22,-1
 362.16015625 271.862304688 l 1,23,-1
 362.16015625 0.2060546875 l 1,24,-1
 292.440429688 0.2060546875 l 1,25,-1
 292.440429688 198.865234375 l 1,26,-1
 304.200195312 172.994140625 l 1,27,28
 288.240234375 155.438476562 288.240234375 155.438476562 268.080078125 141.115234375 c 128,-1,29
 247.919921875 126.793945312 247.919921875 126.793945312 222.719726562 119.40234375 c 128,-1,30
 197.51953125 112.009765625 197.51953125 112.009765625 168.959960938 112.009765625 c 0,31,32
 125.280273438 112.009765625 125.280273438 112.009765625 88.3203125 130.490234375 c 128,-1,33
 51.3603515625 148.970703125 51.3603515625 148.970703125 29.51953125 185.467773438 c 128,-1,34
 7.6796875 221.965820312 7.6796875 221.965820312 7.6796875 275.55859375 c 0,35,36
 7.6796875 353.173828125 7.6796875 353.173828125 54.7197265625 396.140625 c 128,-1,37
 101.759765625 439.10546875 101.759765625 439.10546875 184.919921875 439.10546875 c 0,38,39
 207.599609375 439.10546875 207.599609375 439.10546875 226.919921875 436.796875 c 128,-1,40
 246.240234375 434.485351562 246.240234375 434.485351562 262.200195312 429.865234375 c 1,41,-1
 256.3203125 360.565429688 l 1,42,43
 242.040039062 365.185546875 242.040039062 365.185546875 224.400390625 367.49609375 c 128,-1,44
 206.759765625 369.805664062 206.759765625 369.805664062 186.599609375 369.805664062 c 0,45,46
 134.51953125 369.805664062 134.51953125 369.805664062 105.959960938 344.858398438 c 128,-1,47
 77.400390625 319.909179688 77.400390625 319.909179688 77.400390625 272.786132812 c 0,48,49
 77.400390625 226.5859375 77.400390625 226.5859375 103.860351562 203.485351562 c 128,-1,50
 130.3203125 180.385742188 130.3203125 180.385742188 168.959960938 180.385742188 c 0,51,52
 210.120117188 180.385742188 210.120117188 180.385742188 243.719726562 203.485351562 c 128,-1,53
 277.3203125 226.5859375 277.3203125 226.5859375 295.799804688 258.92578125 c 1,54,-1
 292.440429688 211.802734375 l 1,55,-1
 292.440429688 521.341796875 l 1,56,-1
 15.240234375 521.341796875 l 1,57,-1
 15.240234375 588.793945312 l 1,58,-1
 567.959960938 588.793945312 l 1,59,-1
 567.959960938 521.341796875 l 1,0,-1
EndSplineSet
EndChar

StartChar: L
Encoding: 76 76 51
Width: 600
GlyphClass: 2
Flags: W
LayerCount: 2
Fore
SplineSet
30 564 m 5,0,-1
 30 637 l 5,1,-1
 575.400390625 637 l 5,2,-1
 575.400390625 564 l 5,3,-1
 525.900390625 564 l 5,4,-1
 525.900390625 0 l 5,5,-1
 451.200195312 0 l 5,6,-1
 451.200195312 388 l 5,7,-1
 491.700195312 355 l 5,8,9
 477.299804688 362 477.299804688 362 464.25 364.5 c 132,-1,10
 451.200195312 367 451.200195312 367 440.400390625 367 c 4,11,12
 408.900390625 367 408.900390625 367 384.150390625 351 c 132,-1,13
 359.400390625 335 359.400390625 335 342.299804688 298 c 132,-1,14
 325.200195312 261 325.200195312 261 315.299804688 198 c 5,15,-1
 241.5 222 l 5,16,17
 254.099609375 330 254.099609375 330 305.400390625 384 c 132,-1,18
 356.700195312 438 356.700195312 438 440.400390625 438 c 4,19,20
 458.400390625 438 458.400390625 438 474.150390625 435 c 132,-1,21
 489.900390625 432 489.900390625 432 500.700195312 428 c 5,22,-1
 504.299804688 406 l 5,23,-1
 451.200195312 425 l 5,24,-1
 451.200195312 564 l 5,25,-1
 30 564 l 5,0,-1
289.200195312 311 m 5,26,27
 273.900390625 336 273.900390625 336 249.599609375 351.5 c 132,-1,28
 225.299804688 367 225.299804688 367 192 367 c 4,29,30
 148.799804688 367 148.799804688 367 124.049804688 337.5 c 132,-1,31
 99.2998046875 308 99.2998046875 308 99.2998046875 260 c 4,32,33
 99.2998046875 202 99.2998046875 202 138 152.5 c 132,-1,34
 176.700195312 103 176.700195312 103 261.299804688 49 c 5,35,-1
 218.099609375 -14 l 5,36,37
 128.099609375 45 128.099609375 45 76.349609375 113 c 132,-1,38
 24.599609375 181 24.599609375 181 24.599609375 268 c 4,39,40
 24.599609375 353 24.599609375 353 69.599609375 396.5 c 132,-1,41
 114.599609375 440 114.599609375 440 184.799804688 440 c 4,42,43
 230.700195312 440 230.700195312 440 264.900390625 421 c 132,-1,44
 299.099609375 402 299.099609375 402 324.299804688 372 c 5,45,-1
 289.200195312 311 l 5,26,27
EndSplineSet
EndChar

StartChar: M
Encoding: 77 77 52
Width: 600
GlyphClass: 2
Flags: W
LayerCount: 2
Fore
SplineSet
506.5 564 m 5,0,-1
 506.5 0 l 5,1,-1
 423.5 0 l 5,2,-1
 423.5 256 l 5,3,-1
 219.5 256 l 1,4,-1
 219.5 218 l 2,5,6
 219 184 219 184 204.5 169.5 c 0,7,8
 189 155 189 155 170.5 155 c 256,9,10
 151 155 151 155 129.5 167.5 c 0,11,12
 107 180 107 180 89 200 c 128,-1,13
 71 220 71 220 59 242.5 c 0,14,15
 48 263 48 263 47.5 285 c 0,16,17
 47 303 47 303 61.5 316 c 128,-1,18
 76 329 76 329 109.5 329 c 2,19,-1
 136.5 329 l 1,20,-1
 136.5 564 l 1,21,-1
 18.5 564 l 1,22,-1
 18.5 637 l 1,23,-1
 581.5 637 l 5,24,-1
 581.5 564 l 5,25,-1
 506.5 564 l 5,0,-1
423.5 564 m 5,26,-1
 219.5 564 l 1,27,-1
 219.5 329 l 1,28,-1
 423.5 329 l 5,29,-1
 423.5 564 l 5,26,-1
EndSplineSet
EndChar

StartChar: N
Encoding: 78 78 53
Width: 600
GlyphClass: 2
Flags: W
LayerCount: 2
Fore
SplineSet
53.5 637 m 1,0,-1
 566.5 637 l 1,1,-1
 566.5 564 l 1,2,-1
 472.5 564 l 1,3,-1
 472.5 0 l 1,4,-1
 389.5 0 l 1,5,-1
 389.5 305 l 1,6,-1
 204.5 305 l 1,7,-1
 204.5 250 l 2,8,9
 204.5 221 204.5 221 190 207 c 128,-1,10
 175.5 193 175.5 193 152.5 193 c 0,11,12
 134.5 193 134.5 193 113 205 c 128,-1,13
 91.5 217 91.5 217 73.5 237.5 c 128,-1,14
 55.5 258 55.5 258 44.5 281 c 128,-1,15
 33.5 304 33.5 304 33.5 326 c 0,16,17
 33.5 350 33.5 350 47.5 364 c 128,-1,18
 61.5 378 61.5 378 95.5 378 c 2,19,-1
 389.5 378 l 1,20,-1
 389.5 564 l 1,21,-1
 53.5 564 l 1,22,-1
 53.5 637 l 1,0,-1
EndSplineSet
EndChar

StartChar: O
Encoding: 79 79 54
Width: 600
VWidth: 1000
GlyphClass: 2
Flags: W
LayerCount: 2
Fore
SplineSet
182.204101562 340.775390625 m 0,0,1
 170.09765625 345.23046875 170.09765625 345.23046875 162.182617188 354.139648438 c 128,-1,2
 154.267578125 363.049804688 154.267578125 363.049804688 151.939453125 372.950195312 c 128,-1,3
 149.611328125 382.849609375 149.611328125 382.849609375 152.87109375 393.245117188 c 0,4,5
 157.060546875 404.629882812 157.060546875 404.629882812 165.442382812 410.075195312 c 0,6,7
 170.09765625 412.549804688 170.09765625 412.549804688 177.08203125 415.025390625 c 0,8,9
 184.06640625 416.509765625 184.06640625 416.509765625 196.637695312 418.490234375 c 128,-1,10
 209.208984375 420.469726562 209.208984375 420.469726562 227.833007812 420.469726562 c 0,11,12
 283.704101562 420.469726562 283.704101562 420.469726562 312.571289062 420.96484375 c 0,13,14
 379.618164062 420.469726562 379.618164062 420.469726562 402.897460938 419.48046875 c 128,-1,15
 426.177734375 418.490234375 426.177734375 418.490234375 437.818359375 413.044921875 c 0,16,17
 449.458007812 408.58984375 449.458007812 408.58984375 452.250976562 399.184570312 c 0,18,19
 455.044921875 390.76953125 455.044921875 390.76953125 455.044921875 375.424804688 c 0,20,21
 455.044921875 363.049804688 455.044921875 363.049804688 449.923828125 356.120117188 c 128,-1,22
 444.801757812 349.190429688 444.801757812 349.190429688 431.764648438 344.240234375 c 128,-1,23
 418.728515625 339.290039062 418.728515625 339.290039062 396.379882812 337.8046875 c 0,24,25
 374.03125 335.330078125 374.03125 335.330078125 312.571289062 335.825195312 c 0,26,27
 239.9375 335.330078125 239.9375 335.330078125 213.3984375 337.309570312 c 128,-1,28
 186.859375 339.290039062 186.859375 339.290039062 182.204101562 340.775390625 c 0,0,1
189.653320312 401.165039062 m 0,29,30
 189.653320312 402.650390625 189.653320312 402.650390625 187.325195312 404.629882812 c 0,31,32
 185.928710938 405.620117188 185.928710938 405.620117188 181.272460938 403.14453125 c 128,-1,33
 176.616210938 400.669921875 176.616210938 400.669921875 174.2890625 391.264648438 c 0,34,35
 171.959960938 382.849609375 171.959960938 382.849609375 171.959960938 375.424804688 c 256,36,37
 171.959960938 368.990234375 171.959960938 368.990234375 173.822265625 368.495117188 c 0,38,39
 176.616210938 368.990234375 176.616210938 368.990234375 181.272460938 381.365234375 c 0,40,41
 186.859375 394.73046875 186.859375 394.73046875 186.859375 395.224609375 c 0,42,43
 189.653320312 397.700195312 189.653320312 397.700195312 189.653320312 401.165039062 c 0,29,30
180.340820312 181.384765625 m 0,44,45
 162.6484375 184.849609375 162.6484375 184.849609375 153.801757812 198.709960938 c 128,-1,46
 144.955078125 212.5703125 144.955078125 212.5703125 151.473632812 226.924804688 c 0,47,48
 156.129882812 236.330078125 156.129882812 236.330078125 163.11328125 240.78515625 c 0,49,50
 170.09765625 246.23046875 170.09765625 246.23046875 184.53125 248.209960938 c 0,51,52
 206.415039062 251.1796875 206.415039062 251.1796875 222.245117188 251.1796875 c 0,53,54
 281.841796875 251.1796875 281.841796875 251.1796875 331.661132812 251.674804688 c 128,-1,55
 381.48046875 252.169921875 381.48046875 252.169921875 405.2265625 250.190429688 c 128,-1,56
 428.971679688 248.209960938 428.971679688 248.209960938 442.008789062 245.240234375 c 128,-1,57
 455.044921875 242.26953125 455.044921875 242.26953125 460.166992188 235.33984375 c 128,-1,58
 465.2890625 228.41015625 465.2890625 228.41015625 465.2890625 218.014648438 c 0,59,60
 465.2890625 204.650390625 465.2890625 204.650390625 459.700195312 196.235351562 c 0,61,62
 454.11328125 186.830078125 454.11328125 186.830078125 439.680664062 182.375 c 0,63,64
 425.247070312 176.9296875 425.247070312 176.9296875 401.03515625 174.950195312 c 0,65,66
 366.581054688 171.98046875 366.581054688 171.98046875 313.502929688 172.474609375 c 0,67,68
 240.869140625 172.969726562 240.869140625 172.969726562 214.329101562 175.940429688 c 128,-1,69
 187.791015625 178.91015625 187.791015625 178.91015625 180.340820312 181.384765625 c 0,44,45
183.134765625 229.89453125 m 0,70,71
 183.134765625 232.370117188 183.134765625 232.370117188 180.340820312 232.865234375 c 256,72,73
 177.546875 232.370117188 177.546875 232.370117188 176.616210938 231.875 c 0,74,75
 174.75390625 230.389648438 174.75390625 230.389648438 171.959960938 226.4296875 c 128,-1,76
 169.166992188 222.469726562 169.166992188 222.469726562 169.166992188 215.044921875 c 0,77,78
 169.166992188 206.629882812 169.166992188 206.629882812 170.563476562 205.14453125 c 0,79,80
 171.959960938 204.650390625 171.959960938 204.650390625 176.616210938 209.10546875 c 0,81,82
 180.340820312 212.5703125 180.340820312 212.5703125 181.73828125 219.004882812 c 0,83,84
 183.134765625 224.450195312 183.134765625 224.450195312 183.134765625 229.89453125 c 0,70,71
297.672851562 -7.2099609375 m 0,85,86
 230.625976562 -7.2099609375 230.625976562 -7.2099609375 180.806640625 20.0146484375 c 128,-1,87
 130.987304688 47.240234375 130.987304688 47.240234375 98.3955078125 90.3046875 c 128,-1,88
 65.8037109375 133.370117188 65.8037109375 133.370117188 49.5068359375 186.830078125 c 128,-1,89
 33.2109375 240.290039062 33.2109375 240.290039062 33.2109375 293.75 c 0,90,91
 33.2109375 359.08984375 33.2109375 359.08984375 51.8359375 414.530273438 c 128,-1,92
 70.4599609375 469.969726562 70.4599609375 469.969726562 105.379882812 510.065429688 c 128,-1,93
 140.299804688 550.16015625 140.299804688 550.16015625 190.583984375 572.9296875 c 128,-1,94
 240.869140625 595.700195312 240.869140625 595.700195312 303.259765625 595.700195312 c 0,95,96
 360.994140625 595.700195312 360.994140625 595.700195312 409.416015625 573.424804688 c 128,-1,97
 457.837890625 551.150390625 457.837890625 551.150390625 492.758789062 512.044921875 c 128,-1,98
 527.678710938 472.940429688 527.678710938 472.940429688 547.233398438 418.985351562 c 128,-1,99
 566.7890625 365.030273438 566.7890625 365.030273438 566.7890625 302.66015625 c 0,100,101
 566.7890625 239.299804688 566.7890625 239.299804688 546.768554688 182.870117188 c 128,-1,102
 526.747070312 126.440429688 526.747070312 126.440429688 490.896484375 84.365234375 c 128,-1,103
 455.044921875 42.2900390625 455.044921875 42.2900390625 405.69140625 17.5400390625 c 128,-1,104
 356.337890625 -7.2099609375 356.337890625 -7.2099609375 297.672851562 -7.2099609375 c 0,85,86
299.53515625 69.01953125 m 0,105,106
 393.5859375 69.01953125 393.5859375 69.01953125 441.54296875 131.884765625 c 128,-1,107
 489.5 194.75 489.5 194.75 489.5 302.66015625 c 0,108,109
 489.5 346.219726562 489.5 346.219726562 476.928710938 386.315429688 c 128,-1,110
 464.357421875 426.41015625 464.357421875 426.41015625 440.146484375 457.099609375 c 128,-1,111
 415.935546875 487.790039062 415.935546875 487.790039062 381.48046875 506.10546875 c 128,-1,112
 347.026367188 524.419921875 347.026367188 524.419921875 303.259765625 524.419921875 c 0,113,114
 261.35546875 524.419921875 261.35546875 524.419921875 226.435546875 506.599609375 c 128,-1,115
 191.515625 488.780273438 191.515625 488.780273438 166.373046875 459.080078125 c 128,-1,116
 141.23046875 429.379882812 141.23046875 429.379882812 127.262695312 389.780273438 c 128,-1,117
 113.294921875 350.1796875 113.294921875 350.1796875 113.294921875 305.629882812 c 256,118,119
 113.294921875 261.080078125 113.294921875 261.080078125 125.866210938 218.509765625 c 128,-1,120
 138.4375 175.940429688 138.4375 175.940429688 162.182617188 142.775390625 c 128,-1,121
 185.928710938 109.610351562 185.928710938 109.610351562 220.3828125 89.3154296875 c 128,-1,122
 254.837890625 69.01953125 254.837890625 69.01953125 299.53515625 69.01953125 c 0,105,106
EndSplineSet
EndChar

StartChar: P
Encoding: 80 80 55
Width: 600
GlyphClass: 2
Flags: W
LayerCount: 2
Fore
SplineSet
503 564 m 1,0,-1
 503 0 l 1,1,-1
 421 0 l 1,2,-1
 421 250 l 1,3,-1
 440 222 l 1,4,5
 414 197 414 197 374 181 c 128,-1,6
 334 165 334 165 285 165 c 0,7,8
 225 165 225 165 182 187.5 c 128,-1,9
 139 210 139 210 116.5 255.5 c 128,-1,10
 94 301 94 301 94 369 c 2,11,-1
 94 564 l 1,12,-1
 42 564 l 5,13,-1
 42 637 l 5,14,-1
 558 637 l 1,15,-1
 558 564 l 1,16,-1
 503 564 l 1,0,-1
421 564 m 1,17,-1
 177 564 l 1,18,-1
 177 366 l 2,19,20
 177 322 177 322 189 293.5 c 128,-1,21
 201 265 201 265 225.5 251.5 c 128,-1,22
 250 238 250 238 283 238 c 0,23,24
 328 238 328 238 369.5 263 c 128,-1,25
 411 288 411 288 437 323 c 1,26,-1
 421 269 l 1,27,-1
 421 564 l 1,17,-1
EndSplineSet
EndChar

StartChar: Q
Encoding: 81 81 56
Width: 600
VWidth: 1000
GlyphClass: 2
Flags: W
LayerCount: 2
Fore
SplineSet
251.616210938 647 m 4
 225.016601562 647 225.016601562 647 208.916015625 663.25 c 4
 192.81640625 679.5 192.81640625 679.5 192.81640625 706.799804688 c 4
 192.81640625 731.5 192.81640625 731.5 206.81640625 752.950195312 c 4
 220.81640625 774.400390625 220.81640625 774.400390625 251.616210938 774.400390625 c 4
 283.81640625 774.400390625 283.81640625 774.400390625 300.616210938 754.25 c 4
 317.416015625 734.100585938 317.416015625 734.100585938 317.416015625 706.799804688 c 4
 317.416015625 676.900390625 317.416015625 676.900390625 298.516601562 661.950195312 c 4
 279.616210938 647 279.616210938 647 251.616210938 647 c 4
226.416015625 714.600585938 m 4
 227.81640625 728.900390625 227.81640625 728.900390625 233.416015625 740.600585938 c 4
 239.016601562 752.299804688 239.016601562 752.299804688 232.016601562 752.299804688 c 4
 222.216796875 752.299804688 222.216796875 752.299804688 215.916015625 733.450195312 c 4
 209.616210938 714.600585938 209.616210938 714.600585938 209.616210938 700.299804688 c 4
 209.616210938 687.299804688 209.616210938 687.299804688 216.616210938 687.299804688 c 4
 222.216796875 687.299804688 222.216796875 687.299804688 223.616210938 697.049804688 c 4
 225.016601562 706.799804688 225.016601562 706.799804688 226.416015625 714.600585938 c 4
EndSplineSet
Refer: 86 113 N 1 0 0 1 0.000444394 0 2
EndChar

StartChar: R
Encoding: 82 82 57
Width: 600
GlyphClass: 2
Flags: W
LayerCount: 2
Fore
SplineSet
381 564 m 1,0,-1
 414 580 l 1,1,2
 425 554 425 554 429.5 528 c 128,-1,3
 434 502 434 502 434 469 c 0,4,5
 434 413 434 413 411 372.5 c 128,-1,6
 388 332 388 332 346.5 302.5 c 128,-1,7
 305 273 305 273 250 251 c 1,8,-1
 252 261 l 1,9,10
 281 227 281 227 317 190 c 128,-1,11
 353 153 353 153 393.5 116 c 128,-1,12
 434 79 434 79 476 43 c 1,13,-1
 417 -12 l 1,14,15
 336 61 336 61 278 122 c 128,-1,16
 220 183 220 183 180 240 c 0,17,18
 154 276 154 276 143.5 302.5 c 128,-1,19
 133 329 133 329 133 351 c 0,20,21
 133 375 133 375 147.5 389 c 128,-1,22
 162 403 162 403 187 403 c 0,23,24
 215 403 215 403 240.5 384 c 128,-1,25
 266 365 266 365 292 331 c 1,26,-1
 241 343 l 1,27,28
 299 362 299 362 325.5 396.5 c 128,-1,29
 352 431 352 431 352 479 c 0,30,31
 352 509 352 509 344.5 538 c 128,-1,32
 337 567 337 567 326 579 c 1,33,-1
 372 564 l 1,34,-1
 124 564 l 1,35,-1
 124 637 l 1,36,-1
 466 637 l 1,37,-1
 466 564 l 1,38,-1
 381 564 l 1,0,-1
EndSplineSet
EndChar

StartChar: S
Encoding: 83 83 58
Width: 600
GlyphClass: 2
Flags: W
LayerCount: 2
Fore
SplineSet
255 -14 m 1,0,1
 185.700195312 62 185.700195312 62 132.599609375 134.5 c 128,-1,2
 79.5 207 79.5 207 55.2001953125 257 c 0,3,4
 42.599609375 284 42.599609375 284 35.849609375 306.5 c 128,-1,5
 29.099609375 329 29.099609375 329 29.099609375 348 c 0,6,7
 29.099609375 375 29.099609375 375 42.599609375 389 c 128,-1,8
 56.099609375 403 56.099609375 403 78.599609375 403 c 0,9,10
 102.900390625 403 102.900390625 403 125.400390625 384.5 c 128,-1,11
 147.900390625 366 147.900390625 366 170.400390625 334 c 1,12,-1
 127.200195312 339 l 1,13,14
 168.599609375 353 168.599609375 353 183.450195312 391 c 128,-1,15
 198.299804688 429 198.299804688 429 198.299804688 471 c 0,16,17
 198.299804688 507 198.299804688 507 191.549804688 534.5 c 128,-1,18
 184.799804688 562 184.799804688 562 176.700195312 578 c 1,19,-1
 214.5 564 l 1,20,-1
 62.400390625 564 l 1,21,-1
 62.400390625 637 l 1,22,-1
 374.700195312 637 l 1,23,-1
 374.700195312 564 l 1,24,-1
 221.700195312 564 l 1,25,-1
 253.200195312 580 l 1,26,27
 263.099609375 555 263.099609375 555 268.049804688 526 c 128,-1,28
 273 497 273 497 273 461 c 0,29,30
 273 420 273 420 262.650390625 385.5 c 128,-1,31
 252.299804688 351 252.299804688 351 230.700195312 325 c 1,32,-1
 227.099609375 317 l 1,33,34
 210.900390625 295 210.900390625 295 186.599609375 279 c 128,-1,35
 162.299804688 263 162.299804688 263 126.299804688 249 c 1,36,-1
 123.599609375 260 l 1,37,38
 147 225 147 225 175.799804688 190 c 128,-1,39
 204.599609375 155 204.599609375 155 238.349609375 118 c 128,-1,40
 272.099609375 81 272.099609375 81 310.799804688 41 c 1,41,-1
 255 -14 l 1,0,1
359.400390625 250 m 256,42,43
 321.599609375 250 321.599609375 250 277.950195312 259.5 c 128,-1,44
 234.299804688 269 234.299804688 269 193.799804688 294 c 1,45,-1
 219 355 l 1,46,47
 256.799804688 338 256.799804688 338 288.75 331 c 128,-1,48
 320.700195312 324 320.700195312 324 358.5 324 c 256,49,50
 396.299804688 324 396.299804688 324 430.5 331.5 c 128,-1,51
 464.700195312 339 464.700195312 339 499.799804688 356 c 1,52,-1
 499.799804688 279 l 1,53,54
 467.400390625 264 467.400390625 264 432.299804688 257 c 128,-1,55
 397.200195312 250 397.200195312 250 359.400390625 250 c 256,42,43
456.599609375 0 m 1,56,-1
 456.599609375 564 l 1,57,-1
 355.799804688 564 l 1,58,-1
 355.799804688 637 l 1,59,-1
 570.900390625 637 l 1,60,-1
 570.900390625 564 l 1,61,-1
 531.299804688 564 l 1,62,-1
 531.299804688 0 l 1,63,-1
 456.599609375 0 l 1,56,-1
EndSplineSet
EndChar

StartChar: T
Encoding: 84 84 59
Width: 600
GlyphClass: 2
Flags: W
LayerCount: 2
Fore
SplineSet
507.5 564 m 1,0,-1
 443.5 564 l 1,1,-1
 443.5 367 l 1,2,-1
 358.5 367 l 2,3,4
 264.5 367 264.5 367 213.5 333 c 128,-1,5
 162.5 299 162.5 299 162.5 222 c 0,6,7
 162.5 150 162.5 150 209.5 113 c 128,-1,8
 256.5 76 256.5 76 323.5 76 c 0,9,10
 371.5 76 371.5 76 411 91 c 128,-1,11
 450.5 106 450.5 106 494.5 138 c 1,12,-1
 529.5 72 l 1,13,14
 488.5 38 488.5 38 438.5 19 c 128,-1,15
 388.5 0 388.5 0 322.5 0 c 0,16,17
 251.5 0 251.5 0 197.5 27 c 128,-1,18
 143.5 54 143.5 54 112 104.5 c 128,-1,19
 80.5 155 80.5 155 80.5 223 c 0,20,21
 80.5 331 80.5 331 149.5 384.5 c 128,-1,22
 218.5 438 218.5 438 346.5 438 c 2,23,-1
 389.5 438 l 1,24,-1
 360.5 414 l 1,25,-1
 360.5 564 l 1,26,-1
 70.5 564 l 5,27,-1
 70.5 637 l 5,28,-1
 507.5 637 l 1,29,-1
 507.5 564 l 1,0,-1
EndSplineSet
EndChar

StartChar: U
Encoding: 85 85 60
Width: 600
VWidth: 1000
GlyphClass: 2
Flags: W
LayerCount: 2
Fore
SplineSet
233.491210938 -4 m 0,0,1
 187.991210938 -4 187.991210938 -4 151.991210938 12.5 c 0,2,3
 106.225585938 32.9990234375 106.225585938 32.9990234375 90.4912109375 58.5 c 0,4,5
 43.9912109375 129 43.9912109375 129 51.9912109375 129.5 c 0,6,7
 53.6982421875 132.6171875 53.6982421875 132.6171875 38.4912109375 221 c 2,8,-1
 38.4912109375 530 l 2,9,10
 38.9912109375 536 38.9912109375 536 40.4912109375 555 c 0,11,12
 41.9912109375 570 41.9912109375 570 48.4912109375 583.5 c 0,13,14
 53.9912109375 597 53.9912109375 597 64.9912109375 606.5 c 128,-1,15
 75.9912109375 616 75.9912109375 616 91.4912109375 616 c 0,16,17
 134.991210938 616 134.991210938 616 138.491210938 599 c 0,18,19
 151.991210938 530 151.991210938 530 152.491210938 528 c 2,20,-1
 152.491210938 228 l 2,21,22
 151.991210938 204 151.991210938 204 152.491210938 179.5 c 0,23,24
 151.991210938 155 151.991210938 155 159.991210938 135.5 c 128,-1,25
 167.991210938 116 167.991210938 116 203.991210938 103.5 c 128,-1,26
 239.991210938 91 239.991210938 91 319.491210938 91 c 128,-1,27
 398.991210938 91 398.991210938 91 415.491210938 110 c 0,28,29
 432.991210938 129 432.991210938 129 439.991210938 157.5 c 128,-1,30
 446.991210938 186 446.991210938 186 447.991210938 220 c 0,31,32
 447.991210938 237 447.991210938 237 448.491210938 284 c 2,33,-1
 448.491210938 531 l 2,34,35
 447.991210938 543 447.991210938 543 450.491210938 556 c 0,36,37
 452.991210938 571 452.991210938 571 457.991210938 584.5 c 128,-1,38
 462.991210938 598 462.991210938 598 472.991210938 608 c 128,-1,39
 482.991210938 618 482.991210938 618 498.491210938 618 c 0,40,41
 546.991210938 618 546.991210938 618 553.491210938 597.5 c 0,42,43
 561.491210938 573.5 561.491210938 573.5 561.491210938 532 c 2,44,-1
 561.491210938 246 l 2,45,46
 561.991210938 189 561.991210938 189 548.991210938 143 c 0,47,48
 536.991210938 97 536.991210938 97 510.991210938 64.5 c 128,-1,49
 484.991210938 32 484.991210938 32 448.491210938 14 c 0,50,51
 410.991210938 -4 410.991210938 -4 233.491210938 -4 c 0,0,1
476.491210938 556 m 0,52,53
 476.991210938 560 476.991210938 560 479.491210938 568 c 0,54,55
 482.991210938 576 482.991210938 576 489.491210938 584 c 0,56,57
 496.991210938 595 496.991210938 595 497.991210938 599 c 128,-1,58
 498.991210938 603 498.991210938 603 489.491210938 603 c 0,59,60
 484.991210938 603 484.991210938 603 479.991210938 598 c 128,-1,61
 474.991210938 593 474.991210938 593 472.491210938 588 c 0,62,63
 470.991210938 583 470.991210938 583 466.991210938 575 c 0,64,65
 461.991210938 565 461.991210938 565 462.491210938 558 c 0,66,67
 462.991210938 553 462.991210938 553 463.491210938 548.5 c 0,68,69
 464.991210938 544 464.991210938 544 469.491210938 544 c 256,70,71
 474.991210938 544 474.991210938 544 475.491210938 547.5 c 128,-1,72
 475.991210938 551 475.991210938 551 476.491210938 556 c 0,52,53
80.4912109375 570 m 0,73,74
 84.9912109375 579 84.9912109375 579 89.9912109375 585 c 0,75,76
 95.9912109375 592 95.9912109375 592 95.4912109375 598 c 0,77,78
 94.9912109375 603 94.9912109375 603 92.4912109375 603 c 256,79,80
 88.9912109375 603 88.9912109375 603 83.4912109375 600.5 c 0,81,82
 76.9912109375 598 76.9912109375 598 72.4912109375 590 c 0,83,84
 56.9912109375 569 56.9912109375 569 55.4912109375 552 c 0,85,86
 52.9912109375 535 52.9912109375 535 59.4912109375 535 c 0,87,88
 64.9912109375 535 64.9912109375 535 69.9912109375 545.5 c 0,89,90
 73.9912109375 556 73.9912109375 556 80.4912109375 570 c 0,73,74
149.491210938 48 m 0,91,92
 148.991210938 51 148.991210938 51 141.991210938 57 c 128,-1,93
 134.991210938 63 134.991210938 63 126.491210938 72 c 0,94,95
 118.991210938 80 118.991210938 80 107.991210938 93.5 c 0,96,97
 101.991210938 100 101.991210938 100 90.4912109375 122 c 0,98,99
 84.9912109375 132 84.9912109375 132 80.9912109375 136 c 128,-1,100
 76.9912109375 140 76.9912109375 140 74.4912109375 140 c 0,101,102
 70.9912109375 140 70.9912109375 140 70.4912109375 133 c 0,103,104
 70.9912109375 125 70.9912109375 125 78.4912109375 109.5 c 0,105,106
 86.9912109375 94 86.9912109375 94 97.4912109375 79 c 0,107,108
 108.991210938 64 108.991210938 64 120.991210938 53 c 128,-1,109
 132.991210938 42 132.991210938 42 143.491210938 42 c 0,110,111
 150.991210938 42 150.991210938 42 149.491210938 48 c 0,91,92
172.491210938 39 m 0,112,113
 172.991210938 40 172.991210938 40 169.991210938 43 c 128,-1,114
 166.991210938 46 166.991210938 46 164.491210938 46 c 0,115,116
 158.991210938 45 158.991210938 45 157.491210938 42 c 0,117,118
 154.991210938 39 154.991210938 39 155.491210938 37 c 0,119,120
 156.991210938 34 156.991210938 34 157.491210938 31.5 c 0,121,122
 158.991210938 29 158.991210938 29 163.491210938 30 c 0,123,124
 167.991210938 30 167.991210938 30 172.491210938 39 c 0,112,113
EndSplineSet
EndChar

StartChar: V
Encoding: 86 86 61
Width: 600
GlyphClass: 2
Flags: W
LayerCount: 2
Fore
SplineSet
544 564 m 5,0,-1
 487 564 l 1,1,-1
 487 0 l 1,2,-1
 405 0 l 1,3,-1
 405 203 l 1,4,-1
 433 186 l 1,5,6
 402 152 402 152 357 135 c 128,-1,7
 312 118 312 118 256 118 c 256,8,9
 200 118 200 118 154.5 139 c 128,-1,10
 109 160 109 160 82.5 200 c 128,-1,11
 56 240 56 240 56 296 c 0,12,13
 56 387 56 387 115.5 431 c 128,-1,14
 175 475 175 475 268 475 c 0,15,16
 297 475 297 475 322 472 c 128,-1,17
 347 469 347 469 368 464 c 1,18,-1
 363 390 l 1,19,20
 341 395 341 395 319.5 397.5 c 128,-1,21
 298 400 298 400 271 400 c 0,22,23
 214 400 214 400 176.5 373 c 128,-1,24
 139 346 139 346 139 294 c 0,25,26
 139 248 139 248 168.5 219.5 c 128,-1,27
 198 191 198 191 256 191 c 0,28,29
 306 191 306 191 347.5 214.5 c 128,-1,30
 389 238 389 238 416 275 c 1,31,-1
 405 225 l 1,32,-1
 405 564 l 1,33,-1
 65 564 l 1,34,-1
 65 637 l 1,35,-1
 544 637 l 5,36,-1
 544 564 l 5,0,-1
EndSplineSet
EndChar

StartChar: W
Encoding: 87 87 62
Width: 600
VWidth: 1000
GlyphClass: 2
Flags: W
LayerCount: 2
Fore
SplineSet
190 -2 m 4,0,1
 155 -2 155 -2 132.5 5 c 132,-1,2
 110 12 110 12 101 29 c 4,3,4
 95 39 95 39 87 77.5 c 132,-1,5
 79 116 79 116 70 169.5 c 132,-1,6
 61 223 61 223 52 284.5 c 132,-1,7
 43 346 43 346 36 402.5 c 132,-1,8
 29 459 29 459 24.5 503.5 c 132,-1,9
 20 548 20 548 20 567 c 4,10,11
 20 588 20 588 34 603 c 132,-1,12
 48 618 48 618 69 618 c 260,13,14
 90 618 90 618 107.5 608 c 132,-1,15
 125 598 125 598 130 569 c 4,16,17
 132 560 132 560 135.5 520.5 c 132,-1,18
 139 481 139 481 144 428 c 132,-1,19
 149 375 149 375 155 315.5 c 132,-1,20
 161 256 161 256 167 206.5 c 132,-1,21
 173 157 173 157 178.5 124 c 132,-1,22
 184 91 184 91 188 91 c 4,23,24
 189 91 189 91 194 125 c 132,-1,25
 199 159 199 159 206.5 210.5 c 132,-1,26
 214 262 214 262 222 323 c 132,-1,27
 230 384 230 384 237.5 438.5 c 132,-1,28
 245 493 245 493 251 533 c 132,-1,29
 257 573 257 573 259 582 c 4,30,31
 264 605 264 605 275.5 611.5 c 132,-1,32
 287 618 287 618 307 618 c 4,33,34
 328 618 328 618 346 608 c 132,-1,35
 364 598 364 598 369 569 c 4,36,37
 370 562 370 562 372.5 537.5 c 132,-1,38
 375 513 375 513 378 478 c 132,-1,39
 381 443 381 443 384.5 400.5 c 132,-1,40
 388 358 388 358 392 314.5 c 132,-1,41
 396 271 396 271 400 230 c 132,-1,42
 404 189 404 189 408 157.5 c 132,-1,43
 412 126 412 126 416 107 c 132,-1,44
 420 88 420 88 423 88 c 4,45,46
 424 88 424 88 429 122 c 132,-1,47
 434 156 434 156 441.5 208 c 132,-1,48
 449 260 449 260 457 321.5 c 132,-1,49
 465 383 465 383 472.5 438 c 132,-1,50
 480 493 480 493 486 533 c 132,-1,51
 492 573 492 573 494 582 c 4,52,53
 498 599 498 599 506.5 608 c 132,-1,54
 515 617 515 617 525 617 c 4,55,56
 531 617 531 617 540.5 615 c 132,-1,57
 550 613 550 613 558.5 609 c 132,-1,58
 567 605 567 605 573.5 599 c 132,-1,59
 580 593 580 593 580 585 c 4,60,61
 580 579 580 579 575.5 541 c 132,-1,62
 571 503 571 503 563.5 449 c 132,-1,63
 556 395 556 395 546.5 331 c 132,-1,64
 537 267 537 267 527.5 208.5 c 132,-1,65
 518 150 518 150 509.5 104.5 c 132,-1,66
 501 59 501 59 495 40 c 4,67,68
 491 27 491 27 482 19 c 132,-1,69
 473 11 473 11 463 6.5 c 132,-1,70
 453 2 453 2 442.5 0 c 132,-1,71
 432 -2 432 -2 425 -2 c 4,72,73
 390 -2 390 -2 368 5 c 132,-1,74
 346 12 346 12 336 29 c 4,75,76
 334 33 334 33 330.5 54.5 c 132,-1,77
 327 76 327 76 323.5 105 c 132,-1,78
 320 134 320 134 316 167 c 132,-1,79
 312 200 312 200 308.5 228 c 132,-1,80
 305 256 305 256 302.5 274.5 c 132,-1,81
 300 293 300 293 298 293 c 260,82,83
 296 293 296 293 292.5 276 c 132,-1,84
 289 259 289 259 285 233.5 c 132,-1,85
 281 208 281 208 277.5 177 c 132,-1,86
 274 146 274 146 270.5 117.5 c 132,-1,87
 267 89 267 89 263.5 68 c 132,-1,88
 260 47 260 47 258 40 c 4,89,90
 254 27 254 27 245.5 19 c 132,-1,91
 237 11 237 11 227 6.5 c 132,-1,92
 217 2 217 2 207 0 c 132,-1,93
 197 -2 197 -2 190 -2 c 4,0,1
521 584 m 4,94,95
 521 597 521 597 517 597 c 4,96,97
 512 597 512 597 508.5 586 c 132,-1,98
 505 575 505 575 505 564 c 4,99,100
 505 559 505 559 506 554 c 132,-1,101
 507 549 507 549 509 549 c 260,102,103
 511 549 511 549 513.5 553.5 c 132,-1,104
 516 558 516 558 517.5 564 c 132,-1,105
 519 570 519 570 520 576 c 132,-1,106
 521 582 521 582 521 584 c 4,94,95
286 584 m 4,107,108
 286 597 286 597 282 597 c 4,109,110
 277 597 277 597 273.5 586 c 132,-1,111
 270 575 270 575 270 564 c 4,112,113
 270 559 270 559 271 554 c 132,-1,114
 272 549 272 549 274 549 c 260,115,116
 276 549 276 549 278.5 553.5 c 132,-1,117
 281 558 281 558 282.5 564 c 132,-1,118
 284 570 284 570 285 576 c 132,-1,119
 286 582 286 582 286 584 c 4,107,108
52 579 m 4,120,121
 57 587 57 587 54.5 591.5 c 132,-1,122
 52 596 52 596 48 596 c 4,123,124
 42 596 42 596 37.5 580.5 c 132,-1,125
 33 565 33 565 33 545 c 4,126,127
 33 522 33 522 38 522 c 4,128,129
 41 522 41 522 42 529.5 c 132,-1,130
 43 537 43 537 44.5 546.5 c 132,-1,131
 46 556 46 556 47.5 565.5 c 132,-1,132
 49 575 49 575 52 579 c 4,120,121
363 40 m 4,133,134
 356 52 356 52 352.5 67.5 c 132,-1,135
 349 83 349 83 343 83 c 4,136,137
 340 83 340 83 339.5 78.5 c 132,-1,138
 339 74 339 74 339 71 c 260,139,140
 339 68 339 68 340.5 60 c 132,-1,141
 342 52 342 52 345 44 c 132,-1,142
 348 36 348 36 351.5 29.5 c 132,-1,143
 355 23 355 23 359 23 c 4,144,145
 364 23 364 23 366 27.5 c 132,-1,146
 368 32 368 32 363 40 c 4,133,134
128 40 m 4,147,148
 121 52 121 52 117.5 67.5 c 132,-1,149
 114 83 114 83 108 83 c 4,150,151
 105 83 105 83 104.5 78.5 c 132,-1,152
 104 74 104 74 104 71 c 260,153,154
 104 68 104 68 105.5 60 c 132,-1,155
 107 52 107 52 110 44 c 132,-1,156
 113 36 113 36 116.5 29.5 c 132,-1,157
 120 23 120 23 124 23 c 4,158,159
 129 23 129 23 131 27.5 c 132,-1,160
 133 32 133 32 128 40 c 4,147,148
EndSplineSet
EndChar

StartChar: X
Encoding: 88 88 63
Width: 600
VWidth: 1000
GlyphClass: 2
Flags: W
LayerCount: 2
Fore
SplineSet
287.997070312 641 m 4
 261.397460938 641 261.397460938 641 245.296875 657.25 c 4
 229.197265625 673.5 229.197265625 673.5 229.197265625 700.799804688 c 4
 229.197265625 725.5 229.197265625 725.5 243.197265625 746.950195312 c 4
 257.197265625 768.400390625 257.197265625 768.400390625 287.997070312 768.400390625 c 4
 320.197265625 768.400390625 320.197265625 768.400390625 336.997070312 748.25 c 4
 353.796875 728.100585938 353.796875 728.100585938 353.796875 700.799804688 c 4
 353.796875 670.900390625 353.796875 670.900390625 334.897460938 655.950195312 c 4
 315.997070312 641 315.997070312 641 287.997070312 641 c 4
262.796875 708.600585938 m 4
 264.197265625 722.900390625 264.197265625 722.900390625 269.796875 734.600585938 c 4
 275.397460938 746.299804688 275.397460938 746.299804688 268.397460938 746.299804688 c 4
 258.59765625 746.299804688 258.59765625 746.299804688 252.296875 727.450195312 c 4
 245.997070312 708.600585938 245.997070312 708.600585938 245.997070312 694.299804688 c 4
 245.997070312 681.299804688 245.997070312 681.299804688 252.997070312 681.299804688 c 4
 258.59765625 681.299804688 258.59765625 681.299804688 259.997070312 691.049804688 c 4
 261.397460938 700.799804688 261.397460938 700.799804688 262.796875 708.600585938 c 4
EndSplineSet
Refer: 93 120 N 1 0 0 1 0.000590626 0 2
EndChar

StartChar: Y
Encoding: 89 89 64
Width: 600
GlyphClass: 2
Flags: W
LayerCount: 2
Fore
SplineSet
562 637 m 1,0,-1
 562 564 l 1,1,-1
 507 564 l 1,2,-1
 507 0 l 1,3,-1
 424 0 l 1,4,-1
 424 221 l 1,5,-1
 447 196 l 1,6,7
 417 170 417 170 378 152.5 c 128,-1,8
 339 135 339 135 280 135 c 0,9,10
 181 135 181 135 122.5 192.5 c 128,-1,11
 64 250 64 250 38 367 c 1,12,13
 117 381 117 381 151.5 405 c 128,-1,14
 186 429 186 429 186 470 c 0,15,16
 186 503 186 503 168.5 531.5 c 128,-1,17
 151 560 151 560 123 580 c 1,18,-1
 167 564 l 1,19,-1
 49 564 l 1,20,-1
 49 637 l 1,21,-1
 562 637 l 1,0,-1
183 564 m 1,22,-1
 212 586 l 1,23,24
 241 557 241 557 254.5 525.5 c 128,-1,25
 268 494 268 494 268 461 c 0,26,27
 268 407 268 407 237.5 371.5 c 128,-1,28
 207 336 207 336 140 314 c 1,29,30
 158 261 158 261 190.5 234.5 c 128,-1,31
 223 208 223 208 279 208 c 0,32,33
 333 208 333 208 372.5 235 c 128,-1,34
 412 262 412 262 439 297 c 1,35,-1
 424 245 l 1,36,-1
 424 564 l 1,37,-1
 183 564 l 1,22,-1
EndSplineSet
EndChar

StartChar: Z
Encoding: 90 90 65
Width: 600
GlyphClass: 2
Flags: W
LayerCount: 2
Fore
SplineSet
574.200195312 564 m 1,0,-1
 574.200195312 0 l 1,1,-1
 499.5 0 l 1,2,-1
 499.5 379 l 1,3,-1
 372.599609375 379 l 2,4,5
 348.5 379 348.5 379 334.349609375 380 c 0,6,7
 320.5 381 320.5 381 312.299804688 384 c 1,8,-1
 306 394 l 1,9,10
 344.5 364 344.5 364 369.450195312 319 c 128,-1,11
 394.5 274 394.5 274 394.200195312 223 c 0,12,13
 394.5 176 394.5 176 375.299804688 144.5 c 0,14,15
 356.5 113 356.5 113 325.349609375 97.5 c 0,16,17
 294.5 82 294.5 82 257.400390625 82 c 256,18,19
 220.5 82 220.5 82 187.200195312 99.5 c 0,20,21
 153.5 117 153.5 117 121.950195312 155.5 c 128,-1,22
 90.5 194 90.5 194 60.2998046875 256.5 c 0,23,24
 30.5 319 30.5 319 0.900390625 411 c 1,25,-1
 65.7001953125 436 l 1,26,27
 94.5 345 94.5 345 124.200195312 282.5 c 0,28,29
 153.5 220 153.5 220 185.849609375 188.5 c 0,30,31
 217.5 157 217.5 157 253.799804688 157 c 0,32,33
 283.5 157 283.5 157 302.400390625 174 c 128,-1,34
 321.5 191 321.5 191 321.299804688 232 c 0,35,36
 321.5 277 321.5 277 293.400390625 317 c 128,-1,37
 265.5 357 265.5 357 224.099609375 386 c 1,38,-1
 250.200195312 452 l 1,39,-1
 499.5 452 l 1,40,-1
 499.5 564 l 1,41,-1
 47.7001953125 564 l 1,42,-1
 47.7001953125 637 l 1,43,-1
 599.099609375 637 l 1,44,-1
 599.099609375 564 l 1,45,-1
 574.200195312 564 l 1,0,-1
EndSplineSet
EndChar

StartChar: a
Encoding: 97 97 66
Width: 600
VWidth: 1000
GlyphClass: 2
Flags: W
LayerCount: 2
Fore
SplineSet
118 77 m 0,0,1
 106 93 106 93 97 108.5 c 128,-1,2
 88 124 88 124 86 139 c 0,3,4
 83 153 83 153 77 152 c 0,5,6
 69 152 69 152 72 134 c 0,7,8
 73 125 73 125 77.5 112 c 128,-1,9
 82 99 82 99 88 88 c 128,-1,10
 94 77 94 77 102 69.5 c 128,-1,11
 110 62 110 62 119 63 c 0,12,13
 127 65 127 65 118 77 c 0,0,1
229.5 -1 m 0,14,15
 168 -1 168 -1 121.5 30.5 c 0,16,17
 74 62 74 62 48 123.5 c 128,-1,18
 22 185 22 185 21.5 274 c 0,19,20
 22 368 22 368 54.5 433.5 c 0,21,22
 88 499 88 499 142 534 c 128,-1,23
 196 569 196 569 259.5 569 c 0,24,25
 294 569 294 569 326 555 c 128,-1,26
 358 541 358 541 385 509.5 c 128,-1,27
 412 478 412 478 426.5 426 c 1,28,-1
 429.5 426 l 1,29,-1
 452.5 509 l 1,30,-1
 542.5 509 l 1,31,32
 532 456 532 456 520 420 c 128,-1,33
 508 384 508 384 498 326.5 c 128,-1,34
 488 269 488 269 481 218.5 c 0,35,36
 475 178 475 178 474.5 131 c 0,37,38
 474 104 474 104 490 89.5 c 128,-1,39
 506 75 506 75 528.5 75 c 0,40,41
 538 75 538 75 547.5 77 c 0,42,43
 558 79 558 79 565.5 83 c 1,44,-1
 578.5 13 l 1,45,46
 568 8 568 8 550.5 3.5 c 0,47,48
 534 -1 534 -1 509.5 -1 c 0,49,50
 462 -1 462 -1 432 25.5 c 128,-1,51
 402 52 402 52 402.5 109 c 1,52,-1
 398.5 109 l 1,53,54
 336 -1 336 -1 229.5 -1 c 0,14,15
248.5 76 m 0,55,56
 284.5 76 284.5 76 317 98.5 c 128,-1,57
 349.5 121 349.5 121 371.5 159.5 c 128,-1,58
 393.5 198 393.5 198 396.5 244 c 2,59,-1
 405.5 347 l 1,60,61
 393.5 391 393.5 391 378 419.5 c 128,-1,62
 362.5 448 362.5 448 344.5 464 c 128,-1,63
 326.5 480 326.5 480 307 486 c 128,-1,64
 287.5 492 287.5 492 268.5 492 c 0,65,66
 229.5 492 229.5 492 194.5 467.5 c 128,-1,67
 159.5 443 159.5 443 137.5 395 c 128,-1,68
 115.5 347 115.5 347 115.5 275 c 0,69,70
 115.5 180 115.5 180 151 128 c 128,-1,71
 186.5 76 186.5 76 248.5 76 c 0,55,56
EndSplineSet
EndChar

StartChar: ampersand
Encoding: 38 38 67
Width: 600
GlyphClass: 1
Flags: W
LayerCount: 2
Fore
SplineSet
262 -6 m 0,0,1
 163 -6 163 -6 109.5 47.5 c 128,-1,2
 56 101 56 101 56 198 c 0,3,4
 56 260 56 260 75.5 298 c 128,-1,5
 95 336 95 336 118 357.5 c 128,-1,6
 141 379 141 379 160 388 c 128,-1,7
 179 397 179 397 179 402 c 0,8,9
 179 406 179 406 173.5 416.5 c 128,-1,10
 168 427 168 427 162.5 441 c 128,-1,11
 157 455 157 455 152 471.5 c 128,-1,12
 147 488 147 488 147 507 c 0,13,14
 147 565 147 565 186.5 601 c 128,-1,15
 226 637 226 637 290 637 c 0,16,17
 333 637 333 637 365 619 c 128,-1,18
 397 601 397 601 407 581 c 0,19,20
 410 576 410 576 408.5 565.5 c 128,-1,21
 407 555 407 555 402.5 545.5 c 128,-1,22
 398 536 398 536 389.5 528 c 128,-1,23
 381 520 381 520 369 520 c 256,24,25
 357 520 357 520 348.5 524.5 c 128,-1,26
 340 529 340 529 333 535 c 128,-1,27
 326 541 326 541 318.5 545.5 c 128,-1,28
 311 550 311 550 302 550 c 0,29,30
 283 550 283 550 269.5 536 c 128,-1,31
 256 522 256 522 256 493 c 0,32,33
 256 475 256 475 271 445 c 128,-1,34
 286 415 286 415 310 378 c 128,-1,35
 334 341 334 341 364 300 c 128,-1,36
 394 259 394 259 423 219 c 1,37,38
 435 244 435 244 445 271 c 0,39,40
 450 288 450 288 462.5 297 c 128,-1,41
 475 306 475 306 488 306 c 256,42,43
 501 306 501 306 511.5 296.5 c 128,-1,44
 522 287 522 287 522 266 c 0,45,46
 522 254 522 254 516.5 238 c 128,-1,47
 511 222 511 222 503.5 205.5 c 128,-1,48
 496 189 496 189 488 174 c 128,-1,49
 480 159 480 159 474 150 c 1,50,51
 505 107 505 107 524.5 73.5 c 128,-1,52
 544 40 544 40 544 24 c 0,53,54
 544 14 544 14 538.5 6.5 c 128,-1,55
 533 -1 533 -1 525 -5 c 128,-1,56
 517 -9 517 -9 506.5 -10.5 c 128,-1,57
 496 -12 496 -12 488 -12 c 0,58,59
 479 -12 479 -12 458.5 11 c 128,-1,60
 438 34 438 34 411 69 c 1,61,62
 378 36 378 36 341 15 c 128,-1,63
 304 -6 304 -6 262 -6 c 0,0,1
182 511 m 0,64,65
 189 511 189 511 192.5 521.5 c 128,-1,66
 196 532 196 532 198 538 c 0,67,68
 203 550 203 550 209 561.5 c 128,-1,69
 215 573 215 573 225 584 c 0,70,71
 226 586 226 586 233 593 c 128,-1,72
 240 600 240 600 240 602 c 256,73,74
 240 604 240 604 239 604 c 0,75,76
 229 604 229 604 217.5 594 c 128,-1,77
 206 584 206 584 197.5 569.5 c 128,-1,78
 189 555 189 555 183.5 541 c 128,-1,79
 178 527 178 527 178 519 c 0,80,81
 178 517 178 517 179 514 c 128,-1,82
 180 511 180 511 182 511 c 0,64,65
192 483 m 256,83,84
 192 485 192 485 191.5 488.5 c 128,-1,85
 191 492 191 492 186 492 c 0,86,87
 182 492 182 492 180 488.5 c 128,-1,88
 178 485 178 485 178 483 c 0,89,90
 178 475 178 475 185 475 c 0,91,92
 189 475 189 475 190.5 478 c 128,-1,93
 192 481 192 481 192 483 c 256,83,84
361 137 m 1,94,95
 337 170 337 170 313.5 203 c 128,-1,96
 290 236 290 236 271 261.5 c 128,-1,97
 252 287 252 287 238.5 302.5 c 128,-1,98
 225 318 225 318 220 318 c 0,99,100
 207 318 207 318 194 308 c 128,-1,101
 181 298 181 298 171.5 282 c 128,-1,102
 162 266 162 266 156.5 246.5 c 128,-1,103
 151 227 151 227 151 209 c 0,104,105
 151 187 151 187 159 166 c 128,-1,106
 167 145 167 145 182 129 c 128,-1,107
 197 113 197 113 218.5 103 c 128,-1,108
 240 93 240 93 266 93 c 0,109,110
 312 93 312 93 361 137 c 1,94,95
101 129 m 0,111,112
 106 133 106 133 103.5 144 c 128,-1,113
 101 155 101 155 99 160 c 0,114,115
 95 173 95 173 93 188 c 128,-1,116
 91 203 91 203 97 223 c 0,117,118
 102 237 102 237 99 241.5 c 128,-1,119
 96 246 96 246 94 244 c 0,120,121
 85 238 85 238 81 223 c 128,-1,122
 77 208 77 208 77 191 c 128,-1,123
 77 174 77 174 81 158 c 128,-1,124
 85 142 85 142 93 133 c 0,125,126
 94 131 94 131 96.5 129 c 128,-1,127
 99 127 99 127 101 129 c 0,111,112
EndSplineSet
EndChar

StartChar: at
Encoding: 64 64 68
Width: 600
GlyphClass: 1
Flags: W
LayerCount: 2
Fore
SplineSet
281.5 1 m 0,0,1
 224.5 1 224.5 1 176.5 20.5 c 128,-1,2
 128.5 40 128.5 40 94 75.5 c 128,-1,3
 59.5 111 59.5 111 40.5 161.5 c 128,-1,4
 21.5 212 21.5 212 21.5 273 c 0,5,6
 21.5 343 21.5 343 43.5 402.5 c 128,-1,7
 65.5 462 65.5 462 105 506.5 c 128,-1,8
 144.5 551 144.5 551 198 576 c 128,-1,9
 251.5 601 251.5 601 313.5 601 c 256,10,11
 375.5 601 375.5 601 425 580 c 128,-1,12
 474.5 559 474.5 559 508.5 522 c 128,-1,13
 542.5 485 542.5 485 560.5 436.5 c 128,-1,14
 578.5 388 578.5 388 578.5 333 c 0,15,16
 578.5 293 578.5 293 568 258.5 c 128,-1,17
 557.5 224 557.5 224 539 198 c 128,-1,18
 520.5 172 520.5 172 496 157 c 128,-1,19
 471.5 142 471.5 142 443.5 142 c 0,20,21
 421.5 142 421.5 142 408.5 150.5 c 128,-1,22
 395.5 159 395.5 159 388 169 c 128,-1,23
 380.5 179 380.5 179 375.5 187.5 c 128,-1,24
 370.5 196 370.5 196 366.5 196 c 256,25,26
 362.5 196 362.5 196 353.5 187 c 128,-1,27
 344.5 178 344.5 178 331 168.5 c 128,-1,28
 317.5 159 317.5 159 300 150 c 128,-1,29
 282.5 141 282.5 141 261.5 141 c 256,30,31
 239.5 141 239.5 141 221 151 c 128,-1,32
 202.5 161 202.5 161 189.5 178.5 c 128,-1,33
 176.5 196 176.5 196 168.5 219 c 128,-1,34
 160.5 242 160.5 242 160.5 269 c 0,35,36
 160.5 304 160.5 304 172.5 336.5 c 128,-1,37
 184.5 369 184.5 369 203.5 394 c 128,-1,38
 222.5 419 222.5 419 247.5 434 c 128,-1,39
 272.5 449 272.5 449 299.5 449 c 0,40,41
 312.5 449 312.5 449 320.5 445 c 128,-1,42
 328.5 441 328.5 441 334 437 c 128,-1,43
 339.5 433 339.5 433 342.5 429.5 c 128,-1,44
 345.5 426 345.5 426 348.5 426 c 256,45,46
 351.5 426 351.5 426 354.5 430.5 c 128,-1,47
 357.5 435 357.5 435 361.5 440 c 128,-1,48
 365.5 445 365.5 445 372 450 c 128,-1,49
 378.5 455 378.5 455 388.5 455 c 0,50,51
 410.5 455 410.5 455 418.5 435.5 c 128,-1,52
 426.5 416 426.5 416 428 390 c 128,-1,53
 429.5 364 429.5 364 427.5 337.5 c 128,-1,54
 425.5 311 425.5 311 425.5 299 c 0,55,56
 425.5 286 425.5 286 428.5 272 c 128,-1,57
 431.5 258 431.5 258 436.5 246 c 128,-1,58
 441.5 234 441.5 234 447.5 227 c 128,-1,59
 453.5 220 453.5 220 460.5 220 c 0,60,61
 472.5 220 472.5 220 483 244.5 c 128,-1,62
 493.5 269 493.5 269 493.5 310 c 0,63,64
 493.5 359 493.5 359 484.5 398 c 128,-1,65
 475.5 437 475.5 437 455.5 464.5 c 128,-1,66
 435.5 492 435.5 492 402.5 506.5 c 128,-1,67
 369.5 521 369.5 521 322.5 521 c 256,68,69
 275.5 521 275.5 521 236 503 c 128,-1,70
 196.5 485 196.5 485 168 453.5 c 128,-1,71
 139.5 422 139.5 422 123.5 379 c 128,-1,72
 107.5 336 107.5 336 107.5 286 c 0,73,74
 107.5 241 107.5 241 121.5 203 c 128,-1,75
 135.5 165 135.5 165 160 137.5 c 128,-1,76
 184.5 110 184.5 110 217.5 94.5 c 128,-1,77
 250.5 79 250.5 79 287.5 79 c 0,78,79
 314.5 79 314.5 79 341.5 85.5 c 128,-1,80
 368.5 92 368.5 92 393 100.5 c 128,-1,81
 417.5 109 417.5 109 439.5 115.5 c 128,-1,82
 461.5 122 461.5 122 478.5 122 c 0,83,84
 507.5 122 507.5 122 507.5 100 c 0,85,86
 507.5 83 507.5 83 487.5 65 c 128,-1,87
 467.5 47 467.5 47 435 32.5 c 128,-1,88
 402.5 18 402.5 18 362 9.5 c 128,-1,89
 321.5 1 321.5 1 281.5 1 c 0,0,1
197.5 324 m 0,90,91
 201.5 324 201.5 324 206.5 334.5 c 128,-1,92
 211.5 345 211.5 345 213.5 347 c 0,93,94
 221.5 361 221.5 361 232 373.5 c 128,-1,95
 242.5 386 242.5 386 254.5 397 c 0,96,97
 259.5 402 259.5 402 253.5 402 c 0,98,99
 246.5 402 246.5 402 235.5 393.5 c 128,-1,100
 224.5 385 224.5 385 215 373.5 c 128,-1,101
 205.5 362 205.5 362 199 350 c 128,-1,102
 192.5 338 192.5 338 192.5 331 c 0,103,104
 192.5 329 192.5 329 194 326.5 c 128,-1,105
 195.5 324 195.5 324 197.5 324 c 0,90,91
285.5 225 m 0,106,107
 295.5 225 295.5 225 306.5 234.5 c 128,-1,108
 317.5 244 317.5 244 327 258 c 128,-1,109
 336.5 272 336.5 272 342 290.5 c 128,-1,110
 347.5 309 347.5 309 347.5 328 c 0,111,112
 347.5 371 347.5 371 314.5 371 c 0,113,114
 301.5 371 301.5 371 288 363.5 c 128,-1,115
 274.5 356 274.5 356 264 344 c 128,-1,116
 253.5 332 253.5 332 247 316.5 c 128,-1,117
 240.5 301 240.5 301 240.5 285 c 0,118,119
 240.5 259 240.5 259 251 242 c 128,-1,120
 261.5 225 261.5 225 285.5 225 c 0,106,107
195.5 298 m 0,121,122
 195.5 305 195.5 305 190.5 307 c 0,123,124
 187.5 308 187.5 308 184 304.5 c 128,-1,125
 180.5 301 180.5 301 180.5 298 c 0,126,127
 180.5 294 180.5 294 183 290.5 c 128,-1,128
 185.5 287 185.5 287 188.5 287 c 256,129,130
 191.5 287 191.5 287 193.5 291 c 128,-1,131
 195.5 295 195.5 295 195.5 298 c 0,121,122
EndSplineSet
EndChar

StartChar: b
Encoding: 98 98 69
Width: 600
VWidth: 1000
GlyphClass: 2
Flags: W
LayerCount: 2
Fore
SplineSet
316.3984375 -3.921875 m 4,0,1
 257.448242188 -4.400390625 257.448242188 -4.400390625 217.471679688 16.8720703125 c 4,2,3
 177.408203125 37.1796875 177.408203125 37.1796875 154.336914062 65.09765625 c 5,4,-1
 148.372070312 65.09765625 l 5,5,-1
 140.41796875 4.927734375 l 5,6,-1
 68.83203125 4.927734375 l 5,7,-1
 68.83203125 613.072265625 l 5,8,-1
 155.331054688 613.072265625 l 5,9,-1
 155.331054688 514.606445312 l 6,10,11
 155.328125 489.610351562 155.328125 489.610351562 154.833984375 465.939453125 c 132,-1,12
 154.408203125 442.08984375 154.408203125 442.08984375 151.354492188 417.272460938 c 5,13,-1
 155.331054688 417.272460938 l 5,14,15
 176.48828125 446.049804688 176.48828125 446.049804688 215.98046875 466.825195312 c 132,-1,16
 255.608398438 487.629882812 255.608398438 487.629882812 316.3984375 488.061523438 c 4,17,18
 364.16796875 487.629882812 364.16796875 487.629882812 403.891601562 472.576171875 c 4,19,20
 443.288085938 456.940429688 443.288085938 456.940429688 471.998046875 426.120117188 c 4,21,22
 500.328125 395.559570312 500.328125 395.559570312 515.744140625 349.138671875 c 4,23,24
 531.608398438 303.490234375 531.608398438 303.490234375 531.155273438 242.955078125 c 4,25,26
 531.608398438 181.719726562 531.608398438 181.719726562 515.744140625 135.885742188 c 4,27,28
 500.328125 89.650390625 500.328125 89.650390625 471.501953125 58.4609375 c 4,29,30
 442.368164062 27.2802734375 442.368164062 27.2802734375 403.39453125 11.5625 c 4,31,32
 364.16796875 -4.400390625 364.16796875 -4.400390625 316.3984375 -3.921875 c 4,0,1
299.497070312 60.671875 m 4,33,34
 372.077148438 60.671875 372.077148438 60.671875 405.880859375 107.5703125 c 132,-1,35
 439.685546875 154.46875 439.685546875 154.46875 439.685546875 242.955078125 c 4,36,37
 439.685546875 329.670898438 439.685546875 329.670898438 405.880859375 376.568359375 c 132,-1,38
 372.077148438 423.466796875 372.077148438 423.466796875 298.501953125 423.466796875 c 4,39,40
 229.899414062 423.466796875 229.899414062 423.466796875 192.615234375 377.010742188 c 132,-1,41
 155.331054688 330.556640625 155.331054688 330.556640625 155.331054688 244.724609375 c 4,42,43
 155.331054688 155.353515625 155.331054688 155.353515625 190.626953125 108.013671875 c 132,-1,44
 225.922851562 60.671875 225.922851562 60.671875 299.497070312 60.671875 c 4,33,34
EndSplineSet
EndChar

StartChar: c
Encoding: 99 99 70
Width: 600
VWidth: 1000
GlyphClass: 2
Flags: W
LayerCount: 2
Fore
SplineSet
409 17 m 0,0,1
 291 17 291 17 226 84 c 128,-1,2
 161 151 161 151 161 272 c 0,3,4
 161 352 161 352 190 407.5 c 128,-1,5
 219 463 219 463 273 492 c 1,6,-1
 45 492 l 1,7,-1
 45 564 l 1,8,-1
 555 564 l 1,9,-1
 555 492 l 1,10,-1
 453 492 l 2,11,12
 359 492 359 492 305.5 438.5 c 128,-1,13
 252 385 252 385 252 279 c 0,14,15
 252 192 252 192 295 141.5 c 128,-1,16
 338 91 338 91 418 91 c 0,17,18
 455 91 455 91 489 100.5 c 128,-1,19
 523 110 523 110 555 126 c 1,20,-1
 555 48 l 1,21,22
 526 32 526 32 491 24.5 c 128,-1,23
 456 17 456 17 409 17 c 0,0,1
EndSplineSet
EndChar

StartChar: d
Encoding: 100 100 71
Width: 600
VWidth: 1000
GlyphClass: 2
Flags: W
LayerCount: 2
Fore
SplineSet
285.8359375 2.5400390625 m 0,0,1
 234.74609375 3 234.74609375 3 191.9140625 15.7314453125 c 0,2,3
 149.74609375 29 149.74609375 29 118.98046875 56.083984375 c 0,4,5
 88.74609375 83 88.74609375 83 72.283203125 124.372070312 c 0,6,7
 55.74609375 166 55.74609375 166 56.0166015625 220.595703125 c 0,8,9
 55.74609375 290 55.74609375 290 82.7763671875 337.383789062 c 0,10,11
 109.74609375 385 109.74609375 385 163.055664062 409.551757812 c 0,12,13
 216.74609375 434 216.74609375 434 296.329101562 433.99609375 c 0,14,15
 334.74609375 434 334.74609375 434 365.065429688 426.235351562 c 0,16,17
 394.74609375 418 394.74609375 418 416.486328125 404.895507812 c 0,18,19
 437.74609375 391 437.74609375 391 450.590820312 373.46875 c 1,20,-1
 456.887695312 373.46875 l 1,21,22
 455.74609375 381 455.74609375 381 454.263671875 391.704101562 c 0,23,24
 452.74609375 402 452.74609375 402 451.640625 413.431640625 c 0,25,26
 450.74609375 432 450.74609375 432 450.590820312 434.771484375 c 2,27,-1
 450.590820312 616.059570312 l 1,28,-1
 543.98828125 616.059570312 l 1,29,-1
 543.98828125 10.2998046875 l 1,30,-1
 466.33203125 10.2998046875 l 1,31,-1
 455.837890625 66.171875 l 1,32,-1
 451.640625 66.171875 l 1,33,34
 435.74609375 48 435.74609375 48 413.337890625 33.19140625 c 0,35,36
 390.74609375 19 390.74609375 19 359.818359375 10.6884765625 c 0,37,38
 328.74609375 3 328.74609375 3 285.8359375 2.5400390625 c 0,0,1
303.67578125 59.1884765625 m 0,39,40
 378.182617188 59.1884765625 378.182617188 59.1884765625 414.38671875 97.599609375 c 128,-1,41
 450.590820312 136.01171875 450.590820312 136.01171875 450.590820312 201.971679688 c 2,42,-1
 450.590820312 217.491210938 l 2,43,44
 450.590820312 263.275390625 450.590820312 263.275390625 436.94921875 299.360351562 c 128,-1,45
 423.306640625 335.444335938 423.306640625 335.444335938 391.82421875 356.395507812 c 128,-1,46
 360.342773438 377.348632812 360.342773438 377.348632812 306.823242188 377.348632812 c 0,47,48
 233.365234375 377.348632812 233.365234375 377.348632812 192.963867188 336.99609375 c 128,-1,49
 152.561523438 296.64453125 152.561523438 296.64453125 152.561523438 213.611328125 c 0,50,51
 152.561523438 136.788085938 152.561523438 136.788085938 189.815429688 97.98828125 c 128,-1,52
 227.068359375 59.1884765625 227.068359375 59.1884765625 303.67578125 59.1884765625 c 0,39,40
EndSplineSet
EndChar

StartChar: dollar
Encoding: 36 36 72
Width: 600
GlyphClass: 1
Flags: W
LayerCount: 2
Fore
SplineSet
291 -42 m 256,0,1
 280 -42 280 -42 274 -33.5 c 128,-1,2
 268 -25 268 -25 265 -12.5 c 128,-1,3
 262 0 262 0 262 14 c 128,-1,4
 262 28 262 28 262 38 c 2,5,-1
 262 97 l 1,6,7
 217 97 217 97 186.5 117 c 128,-1,8
 156 137 156 137 156 167 c 0,9,10
 156 185 156 185 166.5 192 c 128,-1,11
 177 199 177 199 189 199 c 0,12,13
 212 199 212 199 234 190.5 c 128,-1,14
 256 182 256 182 287 182 c 0,15,16
 296 182 296 182 308 185 c 128,-1,17
 320 188 320 188 330 194.5 c 128,-1,18
 340 201 340 201 347.5 209.5 c 128,-1,19
 355 218 355 218 355 230 c 0,20,21
 355 254 355 254 335.5 266.5 c 128,-1,22
 316 279 316 279 285 279 c 0,23,24
 224 279 224 279 188.5 311 c 128,-1,25
 153 343 153 343 153 411 c 0,26,27
 153 471 153 471 183 509 c 128,-1,28
 213 547 213 547 262 555 c 1,29,-1
 262 601 l 2,30,31
 262 608 262 608 261.5 623 c 128,-1,32
 261 638 261 638 263.5 653 c 128,-1,33
 266 668 266 668 272.5 679 c 128,-1,34
 279 690 279 690 292 690 c 256,35,36
 305 690 305 690 311.5 662.5 c 128,-1,37
 318 635 318 635 318 586 c 0,38,39
 318 566 318 566 320 560.5 c 128,-1,40
 322 555 322 555 334 555 c 256,41,42
 346 555 346 555 359 551 c 128,-1,43
 372 547 372 547 383 539 c 128,-1,44
 394 531 394 531 400.5 520.5 c 128,-1,45
 407 510 407 510 407 497 c 256,46,47
 407 484 407 484 401 479 c 128,-1,48
 395 474 395 474 384 473 c 128,-1,49
 373 472 373 472 357.5 473.5 c 128,-1,50
 342 475 342 475 324 475 c 0,51,52
 285 475 285 475 270.5 458 c 128,-1,53
 256 441 256 441 256 414 c 0,54,55
 256 401 256 401 262.5 392 c 128,-1,56
 269 383 269 383 278 378.5 c 128,-1,57
 287 374 287 374 297 371.5 c 128,-1,58
 307 369 307 369 314 368 c 0,59,60
 344 364 344 364 368.5 355 c 128,-1,61
 393 346 393 346 410 330.5 c 128,-1,62
 427 315 427 315 437 291.5 c 128,-1,63
 447 268 447 268 447 236 c 0,64,65
 447 177 447 177 411 140.5 c 128,-1,66
 375 104 375 104 318 99 c 1,67,-1
 318 38 l 2,68,69
 318 29 318 29 318 15 c 128,-1,70
 318 1 318 1 316 -12 c 128,-1,71
 314 -25 314 -25 308 -33.5 c 128,-1,72
 302 -42 302 -42 291 -42 c 256,0,1
217 487 m 0,73,74
 223 496 223 496 232.5 501.5 c 128,-1,75
 242 507 242 507 242 515 c 0,76,77
 242 521 242 521 235 521 c 0,78,79
 227 521 227 521 218.5 515 c 128,-1,80
 210 509 210 509 204 500.5 c 128,-1,81
 198 492 198 492 194 482 c 128,-1,82
 190 472 190 472 190 464 c 0,83,84
 190 457 190 457 194 457 c 0,85,86
 201 457 201 457 206.5 468 c 128,-1,87
 212 479 212 479 217 487 c 0,73,74
199 435 m 0,88,89
 199 444 199 444 190 444 c 0,90,91
 185 444 185 444 183.5 439.5 c 128,-1,92
 182 435 182 435 184 429 c 256,93,94
 186 423 186 423 191 423 c 256,95,96
 196 423 196 423 197.5 426.5 c 128,-1,97
 199 430 199 430 199 435 c 0,88,89
EndSplineSet
EndChar

StartChar: e
Encoding: 101 101 73
Width: 600
VWidth: 1000
GlyphClass: 2
Flags: W
LayerCount: 2
Fore
SplineSet
337 -10 m 0,0,1
 251 -10 251 -10 189 22 c 128,-1,2
 127 54 127 54 93.5 115.5 c 128,-1,3
 60 177 60 177 60 266 c 0,4,5
 60 354 60 354 92 416.5 c 128,-1,6
 124 479 124 479 181 512.5 c 128,-1,7
 238 546 238 546 314 546 c 0,8,9
 384 546 384 546 434.5 515 c 128,-1,10
 485 484 485 484 512.5 427.5 c 128,-1,11
 540 371 540 371 540 292 c 2,12,-1
 540 251 l 1,13,-1
 151 251 l 1,14,15
 153 181 153 181 177.5 140 c 128,-1,16
 202 99 202 99 244.5 81.5 c 128,-1,17
 287 64 287 64 343 64 c 0,18,19
 387 64 387 64 430 76 c 128,-1,20
 473 88 473 88 516 108 c 1,21,-1
 516 28 l 1,22,23
 470 8 470 8 424 -1 c 128,-1,24
 378 -10 378 -10 337 -10 c 0,0,1
450 323 m 1,25,26
 448 370 448 370 432 403.5 c 128,-1,27
 416 437 416 437 386.5 455 c 128,-1,28
 357 473 357 473 314 473 c 0,29,30
 247 473 247 473 205.5 432.5 c 128,-1,31
 164 392 164 392 153 323 c 1,32,-1
 450 323 l 1,25,26
EndSplineSet
EndChar

StartChar: f
Encoding: 102 102 74
Width: 600
VWidth: 1000
GlyphClass: 2
Flags: W
LayerCount: 2
Fore
SplineSet
123 0 m 0,0,1
 96 0 96 0 78.5 9.5 c 128,-1,2
 61 19 61 19 61 49 c 2,3,-1
 61 543 l 2,4,5
 61 582 61 582 89.5 599.5 c 0,6,7
 118.209960938 617.12890625 118.209960938 617.12890625 163 617 c 2,8,-1
 510 616 l 2,9,10
 521 616 521 616 530 604.5 c 128,-1,11
 539 593 539 593 539 579 c 0,12,13
 539 572 539 572 537.5 561.5 c 128,-1,14
 536 551 536 551 533 541.5 c 128,-1,15
 530 532 530 532 525.5 525.5 c 128,-1,16
 520.986328125 518.98046875 520.986328125 518.98046875 515 519 c 2,17,-1
 201 520 l 2,18,19
 175 520 175 520 175 494 c 2,20,-1
 175 345 l 2,21,22
 175 335 175 335 181.5 330.5 c 128,-1,23
 188.150390625 325.895507812 188.150390625 325.895507812 198 326 c 2,24,-1
 481 329 l 2,25,26
 489 329 489 329 495 324 c 128,-1,27
 501 319 501 319 506 310.5 c 128,-1,28
 511 302 511 302 513.5 293 c 128,-1,29
 516 284 516 284 516 276 c 0,30,31
 516 236.40234375 516 236.40234375 478 236 c 2,32,-1
 195 233 l 2,33,34
 187 233 187 233 181 227 c 128,-1,35
 175 221 175 221 175 213 c 2,36,-1
 175 48 l 2,37,38
 175 32 175 32 170.5 22.5 c 128,-1,39
 166 13 166 13 158.5 8 c 128,-1,40
 151 3 151 3 141.5 1.5 c 128,-1,41
 132 0 132 0 123 0 c 0,0,1
111 26 m 0,42,43
 110 31 110 31 101.5 42 c 128,-1,44
 93 53 93 53 91 78 c 0,45,46
 89 91 89 91 85.5 94 c 128,-1,47
 82 97 82 97 80 97 c 256,48,49
 78 97 78 97 76.5 91 c 128,-1,50
 75 85 75 85 77 75 c 0,51,52
 77 70 77 70 79 60.5 c 128,-1,53
 81 51 81 51 84.5 41.5 c 128,-1,54
 88 32 88 32 93 25 c 128,-1,55
 98 18 98 18 105 19 c 0,56,57
 111 19 111 19 111 26 c 0,42,43
EndSplineSet
EndChar

StartChar: g
Encoding: 103 103 75
Width: 600
VWidth: 1000
GlyphClass: 2
Flags: W
LayerCount: 2
Fore
SplineSet
323.786132812 -5 m 0,0,1
 237.286132812 -5 237.286132812 -5 192.786132812 28 c 4,2,3
 149.286132812 61 149.286132812 61 122.786132812 111 c 4,4,5
 100.286132812 155 100.286132812 155 99.7861328125 219 c 0,6,7
 99.2861328125 307 99.2861328125 307 96.7861328125 328 c 0,8,9
 87.2861328125 432 87.2861328125 432 88.2861328125 437.5 c 4,10,11
 99.2861328125 491 99.2861328125 491 126.786132812 532.5 c 4,12,13
 153.286132812 574 153.286132812 574 197.286132812 599.5 c 132,-1,14
 241.286132812 625 241.286132812 625 324.786132812 625 c 0,15,16
 356.286132812 625 356.286132812 625 384.286132812 616.5 c 128,-1,17
 412.286132812 608 412.286132812 608 434.786132812 589.5 c 0,18,19
 456.286132812 571 456.286132812 571 469.786132812 540.5 c 0,20,21
 484.286132812 506 484.286132812 506 482.786132812 466 c 0,22,23
 482.286132812 450 482.286132812 450 476.286132812 440.5 c 128,-1,24
 470.286132812 431 470.286132812 431 460.286132812 425.5 c 128,-1,25
 450.286132812 420 450.286132812 420 440.786132812 418.5 c 0,26,27
 430.286132812 417 430.286132812 417 424.786132812 417 c 0,28,29
 410.286132812 417 410.286132812 417 398.286132812 427 c 128,-1,30
 386.286132812 437 386.286132812 437 385.786132812 466 c 0,31,32
 386.286132812 511 386.286132812 511 365.286132812 529 c 128,-1,33
 344.286132812 547 344.286132812 547 309.786132812 547 c 128,-1,34
 275.286132812 547 275.286132812 547 257.286132812 530.5 c 132,-1,35
 239.286132812 514 239.286132812 514 224.786132812 483.5 c 4,36,37
 209.286132812 449 209.286132812 449 202.786132812 410 c 4,38,39
 194.286132812 360 194.286132812 360 194.786132812 314 c 4,40,41
 195.286132812 285 195.286132812 285 198.286132812 245 c 132,-1,42
 201.286132812 205 201.286132812 205 213.786132812 169 c 4,43,44
 225.286132812 133 225.286132812 133 247.786132812 107.5 c 4,45,46
 269.286132812 82 269.286132812 82 325.786132812 82 c 0,47,48
 354.286132812 82 354.286132812 82 371.286132812 96.5 c 128,-1,49
 388.286132812 111 388.286132812 111 395.286132812 132 c 128,-1,50
 402.286132812 153 402.286132812 153 404.286132812 175.5 c 128,-1,51
 406.286132812 198 406.286132812 198 404.786132812 214 c 256,52,53
 404.286132812 230 404.286132812 230 391.286132812 231.5 c 0,54,55
 379.286132812 233 379.286132812 233 355.786132812 233 c 2,56,-1
 304.786132812 233 l 2,57,58
 298.286132812 233 298.286132812 233 293.786132812 239 c 0,59,60
 288.286132812 245 288.286132812 245 275.786132812 253.5 c 128,-1,61
 263.286132812 262 263.286132812 262 260.786132812 271 c 4,62,63
 258.286132812 284 258.286132812 284 258.786132812 286 c 4,64,65
 274.286132812 300 274.286132812 300 288.786132812 314.5 c 0,66,67
 300.475585938 327.20703125 300.475585938 327.20703125 322.786132812 327 c 2,68,-1
 430.786132812 326 l 2,69,70
 462.286132812 326 462.286132812 326 486.786132812 306 c 0,71,72
 512.286132812 286 512.286132812 286 511.786132812 249 c 0,73,74
 512.286132812 206 512.286132812 206 502.286132812 161 c 128,-1,75
 492.286132812 116 492.286132812 116 470.786132812 79 c 0,76,77
 448.286132812 42 448.286132812 42 412.786132812 18.5 c 0,78,79
 376.286132812 -5 376.286132812 -5 323.786132812 -5 c 0,0,1
208.786132812 58 m 132,-1,81
 209.286132812 64 209.286132812 64 188.786132812 84 c 4,82,83
 179.286132812 93 179.286132812 93 170.786132812 106.5 c 4,84,85
 161.286132812 120 161.286132812 120 154.286132812 133 c 132,-1,86
 147.286132812 146 147.286132812 146 142.286132812 157.5 c 132,-1,87
 137.286132812 169 137.286132812 169 137.786132812 173 c 4,88,89
 137.286132812 178 137.286132812 178 134.786132812 179.5 c 4,90,91
 131.286132812 181 131.286132812 181 130.786132812 181 c 4,92,93
 123.286132812 181 123.286132812 181 122.786132812 170 c 260,94,95
 123.286132812 159 123.286132812 159 131.786132812 139 c 4,96,97
 141.286132812 119 141.286132812 119 153.286132812 99.5 c 132,-1,98
 165.286132812 80 165.286132812 80 179.286132812 66 c 132,-1,99
 193.286132812 52 193.286132812 52 202.786132812 52 c 4,100,80
 208.286132812 52 208.286132812 52 208.786132812 58 c 132,-1,81
231.786132812 45 m 4,101,102
 231.286132812 52 231.286132812 52 224.786132812 52 c 4,103,104
 221.286132812 52 221.286132812 52 219.286132812 49 c 132,-1,105
 217.286132812 46 217.286132812 46 217.786132812 44 c 4,106,107
 217.286132812 39 217.286132812 39 220.286132812 38 c 132,-1,108
 223.286132812 37 223.286132812 37 224.786132812 37 c 4,109,110
 232.286132812 37 232.286132812 37 231.786132812 45 c 4,101,102
EndSplineSet
EndChar

StartChar: grave
Encoding: 96 96 76
Width: 600
GlyphClass: 1
Flags: W
LayerCount: 2
Fore
SplineSet
304 784 m 1,0,1
 315 761 315 761 332.5 733.5 c 128,-1,2
 350 706 350 706 368.5 679 c 128,-1,3
 387 652 387 652 403 633 c 1,4,-1
 403 621 l 1,5,-1
 342 621 l 1,6,7
 325 635 325 635 303.5 655 c 128,-1,8
 282 675 282 675 261 697 c 128,-1,9
 240 719 240 719 223 739.5 c 128,-1,10
 206 760 206 760 197 774 c 1,11,-1
 197 784 l 1,12,-1
 304 784 l 1,0,1
EndSplineSet
EndChar

StartChar: h
Encoding: 104 104 77
Width: 600
VWidth: 1000
GlyphClass: 2
Flags: W
LayerCount: 2
Fore
SplineSet
77.5 0 m 1,0,-1
 77.5 616 l 5,1,-1
 167.5 616 l 5,2,-1
 167.5 400 l 6,3,4
 168 381 168 381 166 352 c 132,-1,5
 164 323 164 323 163.5 306 c 5,6,-1
 168.5 306 l 5,7,8
 186 339 186 339 211 360 c 132,-1,9
 236 381 236 381 268.5 391.5 c 4,10,11
 300 402 300 402 336.5 402 c 4,12,13
 420 402 420 402 471 355.5 c 4,14,15
 522.5 308.543945312 522.5 308.543945312 522.5 206 c 6,16,-1
 522.5 0 l 1,17,-1
 432.5 0 l 1,18,-1
 432.5 188 l 6,19,20
 432 261 432 261 401.5 295 c 4,21,22
 370 329 370 329 313.5 329 c 4,23,24
 270 329 270 329 236.5 306 c 4,25,26
 204 283 204 283 185.5 239.5 c 4,27,28
 167.5 194.756835938 167.5 194.756835938 167.5 134 c 6,29,-1
 167.5 0 l 1,30,-1
 77.5 0 l 1,0,-1
EndSplineSet
EndChar

StartChar: i
Encoding: 105 105 78
Width: 600
VWidth: 1000
GlyphClass: 2
Flags: W
LayerCount: 2
Fore
SplineSet
230.5 576 m 4,0,1
 190.5 576 190.5 576 162 604 c 132,-1,2
 133.5 632 133.5 632 133.5 676 c 4,3,4
 133.5 700 133.5 700 142 721.5 c 132,-1,5
 150.5 743 150.5 743 165.5 758.5 c 132,-1,6
 180.5 774 180.5 774 201.5 783.5 c 132,-1,7
 222.5 793 222.5 793 247.5 793 c 4,8,9
 267.5 793 267.5 793 284.5 784.5 c 132,-1,10
 301.5 776 301.5 776 313.5 761 c 132,-1,11
 325.5 746 325.5 746 332 727 c 132,-1,12
 338.5 708 338.5 708 338.5 687 c 4,13,14
 338.5 660 338.5 660 330 639.5 c 132,-1,15
 321.5 619 321.5 619 306.5 605 c 132,-1,16
 291.5 591 291.5 591 272 583.5 c 132,-1,17
 252.5 576 252.5 576 230.5 576 c 4,0,1
193.5 749 m 4,18,19
 200.5 756 200.5 756 202 761 c 132,-1,20
 203.5 766 203.5 766 201.5 766 c 4,21,22
 193.5 766 193.5 766 184.5 758.5 c 132,-1,23
 175.5 751 175.5 751 168 740.5 c 132,-1,24
 160.5 730 160.5 730 155.5 718 c 132,-1,25
 150.5 706 150.5 706 150.5 696 c 4,26,27
 150.5 694 150.5 694 152 688 c 132,-1,28
 153.5 682 153.5 682 156.5 682 c 4,29,30
 160.5 682 160.5 682 166.5 704 c 4,31,32
 169.5 718 169.5 718 177.5 729.5 c 132,-1,33
 185.5 741 185.5 741 193.5 749 c 4,18,19
234.5 633 m 4,34,35
 246.5 633 246.5 633 263 647 c 132,-1,36
 279.5 661 279.5 661 279.5 687 c 4,37,38
 279.5 707 279.5 707 269 720.5 c 132,-1,39
 258.5 734 258.5 734 241.5 734 c 260,40,41
 224.5 734 224.5 734 210.5 720.5 c 132,-1,42
 196.5 707 196.5 707 196.5 683 c 260,43,44
 196.5 659 196.5 659 207.5 646 c 132,-1,45
 218.5 633 218.5 633 234.5 633 c 4,34,35
70 0 m 1,46,-1
 70 60 l 1,47,-1
 261 75 l 1,48,-1
 261 461 l 1,49,-1
 86 474 l 1,50,-1
 86 536 l 1,51,-1
 351 536 l 1,52,-1
 351 75 l 1,53,-1
 530 60 l 1,54,-1
 530 0 l 1,55,-1
 70 0 l 1,46,-1
EndSplineSet
EndChar

StartChar: j
Encoding: 106 106 79
Width: 600
VWidth: 1000
GlyphClass: 2
Flags: W
LayerCount: 2
Fore
SplineSet
257.5 7 m 0,0,1
 301 0 301 0 322 17.5 c 128,-1,2
 343 35 343 35 352.5 64 c 128,-1,3
 362 93 362 93 363.5 130 c 128,-1,4
 365 167 365 167 365 206 c 2,5,-1
 365 541 l 1,6,-1
 505 541 l 2,7,8
 527 541 527 541 535 552 c 128,-1,9
 543 563 543 563 543 580 c 256,10,11
 543 597 543 597 536.5 607 c 128,-1,12
 530 617 530 617 505 617 c 2,13,-1
 90 617 l 2,14,15
 72 617 72 617 64.5 608.5 c 128,-1,16
 57 600 57 600 57 586 c 0,17,18
 57 566 57 566 63.5 553.5 c 128,-1,19
 70 541 70 541 86 541 c 2,20,-1
 262 541 l 1,21,-1
 262 178 l 2,22,23
 262 141 262 141 259.5 118 c 128,-1,24
 257 95 257 95 246 95 c 2,25,-1
 238 95 l 1,26,-1
 152 77 l 0,27,28
 143 62 143 62 144 10 c 0,29,-1
 257.5 7 l 0,0,1
523 587 m 0,30,31
 523 592 523 592 521.5 598.5 c 128,-1,32
 520 605 520 605 522 605 c 0,33,34
 527 605 527 605 530.5 597.5 c 128,-1,35
 534 590 534 590 534 579 c 0,36,37
 534 572 534 572 531.5 564.5 c 128,-1,38
 529 557 529 557 524 557 c 256,39,40
 519 557 519 557 521 567.5 c 128,-1,41
 523 578 523 578 523 587 c 0,30,31
310 50 m 0,42,43
 310 54 310 54 318.5 70 c 128,-1,44
 327 86 327 86 328 100 c 0,45,46
 329 108 329 108 333 112.5 c 128,-1,47
 337 117 337 117 340 117 c 0,48,49
 346 117 346 117 346.5 108.5 c 128,-1,50
 347 100 347 100 347 95 c 0,51,52
 347 91 347 91 344.5 81.5 c 128,-1,53
 342 72 342 72 338 62.5 c 128,-1,54
 334 53 334 53 329 46 c 128,-1,55
 324 39 324 39 319 39 c 0,56,57
 316 39 316 39 313 43 c 128,-1,58
 310 47 310 47 310 50 c 0,42,43
EndSplineSet
EndChar

StartChar: k
Encoding: 107 107 80
Width: 600
VWidth: 1000
GlyphClass: 2
Flags: W
LayerCount: 2
Fore
SplineSet
157 0 m 0,0,1
 136 0 136 0 126 11 c 128,-1,2
 116 22 116 22 112.5 38.5 c 128,-1,3
 109 55 109 55 109 73 c 128,-1,4
 109 91 109 91 109 105 c 2,5,-1
 109 204 l 1,6,-1
 108 402 l 1,7,-1
 108 501 l 2,8,9
 108 533 108 533 110 554 c 128,-1,10
 112 575 112 575 118 590 c 128,-1,11
 124 605 124 605 135.5 613 c 128,-1,12
 147 621 147 621 167 621 c 0,13,14
 190 621 190 621 207.5 602.5 c 128,-1,15
 225 584 225 584 225 554 c 0,16,17
 225 549 225 549 224.5 533 c 128,-1,18
 224 517 224 517 224 493.5 c 128,-1,19
 224 470 224 470 224 446.5 c 128,-1,20
 224 423 224 423 224 403.5 c 128,-1,21
 224 384 224 384 225.5 371 c 128,-1,22
 227 358 227 358 229 358 c 0,23,24
 233 358 233 358 245 377 c 128,-1,25
 257 396 257 396 273 425 c 128,-1,26
 289 454 289 454 308 487 c 128,-1,27
 327 520 327 520 346 549 c 128,-1,28
 365 578 365 578 381.5 597 c 128,-1,29
 398 616 398 616 409 616 c 0,30,31
 418 616 418 616 429 613 c 128,-1,32
 440 610 440 610 449 604 c 128,-1,33
 458 598 458 598 464 589 c 128,-1,34
 470 580 470 580 470 567 c 0,35,36
 470 559 470 559 459 538.5 c 128,-1,37
 448 518 448 518 432 492 c 128,-1,38
 416 466 416 466 396.5 437.5 c 128,-1,39
 377 409 377 409 361 385 c 128,-1,40
 345 361 345 361 334 344 c 128,-1,41
 323 327 323 327 323 324 c 0,42,43
 323 320 323 320 335.5 300.5 c 128,-1,44
 348 281 348 281 367 253.5 c 128,-1,45
 386 226 386 226 407.5 194 c 128,-1,46
 429 162 429 162 448 133 c 128,-1,47
 467 104 467 104 479.5 81 c 128,-1,48
 492 58 492 58 492 48 c 0,49,50
 492 35 492 35 483.5 26 c 128,-1,51
 475 17 475 17 463 11 c 128,-1,52
 451 5 451 5 439 2 c 128,-1,53
 427 -1 427 -1 419 -1 c 0,54,55
 405 -1 405 -1 390 18 c 0,56,57
 371 41 371 41 363 57 c 0,58,59
 359 65 359 65 345 87.5 c 128,-1,60
 331 110 331 110 315 136 c 0,61,62
 289 179 289 179 283 186 c 0,63,64
 266 210 266 210 258 223 c 0,65,66
 255 228 255 228 250 228 c 0,67,68
 246 229 246 229 241 223 c 2,69,-1
 231 210 l 2,70,71
 223 200 223 200 223 178 c 2,72,-1
 223 155 l 1,73,-1
 224 125 l 1,74,-1
 224 102 l 2,75,76
 224 51 224 51 208 25.5 c 128,-1,77
 192 0 192 0 157 0 c 0,0,1
127 566 m 0,78,79
 132 565 132 565 137 568.5 c 128,-1,80
 142 572 142 572 146.5 577.5 c 128,-1,81
 151 583 151 583 154.5 589 c 128,-1,82
 158 595 158 595 159 599 c 0,83,84
 160 602 160 602 157 604.5 c 128,-1,85
 154 607 154 607 151 607 c 0,86,87
 147 607 147 607 142.5 602.5 c 128,-1,88
 138 598 138 598 133.5 591.5 c 128,-1,89
 129 585 129 585 126.5 579 c 128,-1,90
 124 573 124 573 124 570 c 0,91,92
 124 566 124 566 127 566 c 0,78,79
383 558 m 0,93,94
 386 558 386 558 391.5 562.5 c 128,-1,95
 397 567 397 567 402 573.5 c 128,-1,96
 407 580 407 580 410.5 586.5 c 128,-1,97
 414 593 414 593 413 597 c 0,98,99
 413 601 413 601 409 601 c 0,100,101
 406 602 406 602 400 597.5 c 128,-1,102
 394 593 394 593 388.5 586.5 c 128,-1,103
 383 580 383 580 379 573.5 c 128,-1,104
 375 567 375 567 376 564 c 0,105,106
 378 559 378 559 383 558 c 0,93,94
142 81 m 0,107,108
 142 85 142 85 142 97.5 c 128,-1,109
 142 110 142 110 141 123.5 c 128,-1,110
 140 137 140 137 138 147.5 c 128,-1,111
 136 158 136 158 132 158 c 0,112,113
 129 158 129 158 126.5 153 c 128,-1,114
 124 148 124 148 123 141 c 128,-1,115
 122 134 122 134 121.5 127.5 c 128,-1,116
 121 121 121 121 121 119 c 0,117,118
 121 115 121 115 121 104.5 c 128,-1,119
 121 94 121 94 122.5 83 c 128,-1,120
 124 72 124 72 127 63 c 128,-1,121
 130 54 130 54 136 54 c 0,122,123
 138 54 138 54 139.5 58 c 128,-1,124
 141 62 141 62 141.5 66.5 c 128,-1,125
 142 71 142 71 142 75.5 c 128,-1,126
 142 80 142 80 142 81 c 0,107,108
422 21 m 0,127,128
 422 24 422 24 419 30.5 c 128,-1,129
 416 37 416 37 411.5 43 c 128,-1,130
 407 49 407 49 402 54 c 128,-1,131
 397 59 397 59 394 59 c 0,132,133
 392 59 392 59 391 55.5 c 128,-1,134
 390 52 390 52 390 50 c 0,135,136
 390 47 390 47 392.5 41 c 128,-1,137
 395 35 395 35 398.5 29 c 128,-1,138
 402 23 402 23 407 19 c 128,-1,139
 412 15 412 15 416 15 c 0,140,141
 422 15 422 15 422 21 c 0,127,128
151 31 m 0,142,143
 153 36 153 36 149 41 c 128,-1,144
 145 46 145 46 140 46 c 0,145,146
 134 46 134 46 130.5 41 c 128,-1,147
 127 36 127 36 129 31 c 0,148,149
 133 21 133 21 140 21 c 256,150,151
 147 21 147 21 151 31 c 0,142,143
EndSplineSet
EndChar

StartChar: l
Encoding: 108 108 81
Width: 600
VWidth: 1000
GlyphClass: 2
Flags: W
LayerCount: 2
Fore
SplineSet
63 28 m 0,0,1
 63 35 63 35 64.5 40.5 c 128,-1,2
 66 46 66 46 69 53.5 c 128,-1,3
 72 61 72 61 76.5 71 c 128,-1,4
 81 81 81 81 87 96 c 256,5,6
 93 111 93 111 97 123.5 c 128,-1,7
 101 136 101 136 103.5 150 c 128,-1,8
 106 164 106 164 107.5 180.5 c 128,-1,9
 109 197 109 197 109 218 c 2,10,-1
 109 251 l 1,11,-1
 89 251 l 2,12,13
 70 251 70 251 60.5 260 c 128,-1,14
 51 269 51 269 51 281 c 0,15,16
 51 292 51 292 57.5 306 c 128,-1,17
 64 320 64 320 82 320 c 2,18,-1
 107 320 l 1,19,-1
 107 387 l 2,20,21
 107 433 107 433 114.5 475 c 128,-1,22
 122 517 122 517 140.5 549.5 c 128,-1,23
 159 582 159 582 190.5 601 c 128,-1,24
 222 620 222 620 270 620 c 0,25,26
 293 620 293 620 314.5 612.5 c 128,-1,27
 336 605 336 605 353 590.5 c 128,-1,28
 370 576 370 576 380.5 555 c 128,-1,29
 391 534 391 534 391 508 c 0,30,31
 391 464 391 464 368 464 c 0,32,33
 351 464 351 464 334 494 c 0,34,35
 323 513 323 513 308 527.5 c 128,-1,36
 293 542 293 542 275 542 c 0,37,38
 251 542 251 542 236.5 530 c 128,-1,39
 222 518 222 518 214 496.5 c 128,-1,40
 206 475 206 475 203 445 c 128,-1,41
 200 415 200 415 200 379 c 2,42,-1
 200 322 l 1,43,-1
 286 322 l 6,44,45
 310 322 310 322 323.5 318.5 c 132,-1,46
 337 315 337 315 344 309.5 c 132,-1,47
 351 304 351 304 353 296.5 c 132,-1,48
 355 289 355 289 355 280 c 4,49,50
 355 274 355 274 353.5 268.5 c 132,-1,51
 352 263 352 263 346.5 259.5 c 132,-1,52
 341 256 341 256 330 253.5 c 132,-1,53
 319 251 319 251 300 251 c 6,54,-1
 200 251 l 1,55,-1
 200 186 l 2,56,57
 200 139 200 139 190 115.5 c 128,-1,58
 180 92 180 92 174 79 c 0,59,60
 170 71 170 71 175 71.5 c 128,-1,61
 180 72 180 72 190 74 c 0,62,63
 196 75 196 75 201.5 76 c 128,-1,64
 207 77 207 77 214 77.5 c 128,-1,65
 221 78 221 78 231 78 c 0,66,67
 244 78 244 78 257 78 c 2,68,-1
 473 78 l 2,69,70
 515 78 515 78 532 70.5 c 128,-1,71
 549 63 549 63 549 43 c 0,72,73
 549 17 549 17 536.5 8 c 128,-1,74
 524 -1 524 -1 496 1 c 0,75,76
 444 3 444 3 312 1.5 c 128,-1,77
 180 0 180 0 123 0 c 0,78,79
 97 0 97 0 80 7 c 128,-1,80
 63 14 63 14 63 28 c 0,0,1
142 460 m 0,81,82
 144 460 144 460 148 471 c 128,-1,83
 152 482 152 482 158.5 498 c 128,-1,84
 165 514 165 514 175 531.5 c 128,-1,85
 185 549 185 549 200 562 c 0,86,87
 213 574 213 574 214.5 579.5 c 128,-1,88
 216 585 216 585 213 585 c 0,89,90
 205 585 205 585 195 579.5 c 128,-1,91
 185 574 185 574 171 560 c 0,92,93
 163 552 163 552 156.5 540 c 128,-1,94
 150 528 150 528 145.5 515 c 128,-1,95
 141 502 141 502 139 490 c 128,-1,96
 137 478 137 478 137 469 c 256,97,98
 137 460 137 460 142 460 c 0,81,82
142 432 m 0,99,100
 142 436 142 436 139 438 c 128,-1,101
 136 440 136 440 133 440 c 0,102,103
 129 440 129 440 125 434 c 0,104,105
 124 431 124 431 123 428 c 0,106,107
 123 419 123 419 133 419 c 0,108,109
 142 419 142 419 142 432 c 0,99,100
EndSplineSet
EndChar

StartChar: m
Encoding: 109 109 82
Width: 600
VWidth: 1000
GlyphClass: 2
Flags: W
LayerCount: 2
Fore
SplineSet
88.7900390625 -2.232421875 m 0,0,1
 74.712890625 -2 74.712890625 -2 66.2109375 3.3203125 c 0,2,3
 57.712890625 9 57.712890625 9 53.509765625 17.962890625 c 0,4,5
 48.712890625 30 48.712890625 30 47.865234375 38.6640625 c 0,6,7
 46.712890625 60 46.712890625 60 46.4541015625 63.404296875 c 2,8,-1
 46.4541015625 537.078125 l 2,9,10
 46.712890625 548 46.712890625 548 46.9248046875 561.313476562 c 0,11,12
 47.712890625 574 47.712890625 574 51.1572265625 585.548828125 c 128,-1,13
 54.712890625 597 54.712890625 597 63.388671875 604.23046875 c 0,14,15
 71.712890625 612 71.712890625 612 86.908203125 611.803710938 c 0,16,17
 105.712890625 612 105.712890625 612 115.131835938 597.161132812 c 0,18,19
 124.712890625 583 124.712890625 583 128.7734375 564.342773438 c 0,20,21
 132.712890625 546 132.712890625 546 133.948242188 531.524414062 c 0,22,23
 134.712890625 517 134.712890625 517 136.770507812 516.881835938 c 256,24,25
 138.712890625 517 138.712890625 517 142.415039062 532.534179688 c 0,26,27
 145.712890625 548 145.712890625 548 156.056640625 566.36328125 c 0,28,29
 165.712890625 585 165.712890625 585 183.810546875 600.19140625 c 0,30,31
 201.712890625 616 201.712890625 616 232.732421875 615.842773438 c 0,32,33
 258.712890625 616 258.712890625 616 276.008789062 600.6953125 c 0,34,35
 292.712890625 586 292.712890625 586 303.291992188 566.8671875 c 0,36,37
 313.712890625 548 313.712890625 548 319.286132812 533.0390625 c 128,-1,38
 324.712890625 518 324.712890625 518 327.752929688 517.892578125 c 256,39,40
 330.712890625 518 330.712890625 518 335.75 533.0390625 c 128,-1,41
 340.712890625 548 340.712890625 548 351.272460938 566.8671875 c 0,42,43
 361.712890625 586 361.712890625 586 379.967773438 600.6953125 c 0,44,45
 398.712890625 616 398.712890625 616 428.41796875 615.842773438 c 0,46,47
 466.712890625 616 466.712890625 616 491.452148438 595.647460938 c 0,48,49
 515.712890625 575 515.712890625 575 529.5546875 539.602539062 c 0,50,51
 542.712890625 504 542.712890625 504 548.37109375 454.780273438 c 0,52,53
 553.544921875 415.282226562 553.544921875 415.282226562 553.544921875 349.255859375 c 2,54,-1
 553.544921875 25.0322265625 l 2,55,56
 553.712890625 11 553.712890625 11 535.669921875 4.3310546875 c 0,57,58
 517.712890625 -2 517.712890625 -2 498.978515625 -2.232421875 c 256,59,60
 479.712890625 -2 479.712890625 -2 469.813476562 3.3203125 c 0,61,62
 459.46484375 9.1396484375 459.46484375 9.1396484375 459.46484375 24.021484375 c 2,63,-1
 459.46484375 340.166992188 l 2,64,65
 459.712890625 352 459.712890625 352 459.46484375 381.064453125 c 0,66,67
 459.712890625 410 459.712890625 410 455.231445312 440.137695312 c 0,68,69
 450.712890625 470 450.712890625 470 441.119140625 493.15234375 c 0,70,71
 431.712890625 516 431.712890625 516 411.484375 515.873046875 c 0,72,73
 394.712890625 516 394.712890625 516 383.73046875 501.735351562 c 0,74,75
 372.712890625 488 372.712890625 488 366.326171875 462.858398438 c 0,76,77
 359.712890625 438 359.712890625 438 356.447265625 403.279296875 c 0,78,79
 352.712890625 368 352.712890625 368 351.272460938 326.030273438 c 0,80,81
 348.712890625 277 348.712890625 277 347.509765625 226.059570312 c 0,82,83
 346.712890625 176 346.712890625 176 347.0390625 140.153320312 c 0,84,85
 347.712890625 98 347.712890625 98 347.979492188 67.9482421875 c 0,86,87
 348.712890625 38 348.712890625 38 348.450195312 29.0712890625 c 0,88,89
 348.712890625 15 348.712890625 15 332.927734375 6.3505859375 c 0,90,91
 317.712890625 -2 317.712890625 -2 294.825195312 -2.232421875 c 256,92,93
 272.712890625 -2 272.712890625 -2 262.837890625 4.8349609375 c 0,94,95
 253.4296875 12.22265625 253.4296875 12.22265625 253.4296875 36.1396484375 c 2,96,-1
 253.4296875 340.166992188 l 2,97,98
 253.712890625 351 253.712890625 351 253.4296875 380.55859375 c 0,99,100
 253.712890625 410 253.712890625 410 249.666992188 440.137695312 c 0,101,102
 245.712890625 470 245.712890625 470 236.495117188 493.657226562 c 0,103,104
 226.712890625 517 226.712890625 517 208.271484375 516.881835938 c 0,105,106
 191.712890625 517 191.712890625 517 179.577148438 501.23046875 c 0,107,108
 167.712890625 486 167.712890625 486 160.291015625 461.34375 c 0,109,110
 152.712890625 437 152.712890625 437 148.530273438 406.814453125 c 0,111,112
 144.712890625 377 144.712890625 377 142.415039062 348.24609375 c 0,113,114
 140.712890625 320 140.712890625 320 140.063476562 295.736328125 c 0,115,116
 139.712890625 264 139.712890625 264 139.592773438 259.383789062 c 2,117,-1
 139.592773438 43.2080078125 l 2,118,119
 139.712890625 24 139.712890625 24 124.540039062 10.89453125 c 0,120,121
 109.712890625 -2 109.712890625 -2 88.7900390625 -2.232421875 c 0,0,1
69.033203125 516.881835938 m 0,122,123
 74.712890625 518 74.712890625 518 75.1484375 528.495117188 c 128,-1,124
 75.712890625 539 75.712890625 539 75.6181640625 547.176757812 c 0,125,126
 75.712890625 554 75.712890625 554 77.5 562.828125 c 0,127,128
 79.712890625 571 79.712890625 571 80.79296875 578.48046875 c 128,-1,129
 81.712890625 586 81.712890625 586 82.2041015625 590.59765625 c 0,130,131
 81.712890625 596 81.712890625 596 78.4404296875 595.647460938 c 0,132,133
 71.712890625 596 71.712890625 596 67.62109375 589.083984375 c 0,134,135
 63.712890625 583 63.712890625 583 61.5068359375 573.430664062 c 0,136,137
 59.712890625 564 59.712890625 564 58.6845703125 556.264648438 c 0,138,139
 57.712890625 548 57.712890625 548 57.744140625 545.157226562 c 0,140,141
 57.712890625 537 57.712890625 537 59.625 526.475585938 c 128,-1,142
 61.712890625 516 61.712890625 516 69.033203125 516.881835938 c 0,122,123
286.357421875 20.9921875 m 0,143,144
 286.357421875 31.0908203125 286.357421875 31.0908203125 280.2421875 34.6240234375 c 128,-1,145
 274.127929688 38.1591796875 274.127929688 38.1591796875 274.127929688 49.2666015625 c 0,146,147
 274.127929688 51.2861328125 274.127929688 51.2861328125 274.127929688 56.8408203125 c 128,-1,148
 274.127929688 62.3935546875 274.127929688 62.3935546875 273.65625 67.9482421875 c 128,-1,149
 273.186523438 73.501953125 273.186523438 73.501953125 271.305664062 78.0458984375 c 128,-1,150
 269.423828125 82.58984375 269.423828125 82.58984375 266.600585938 82.58984375 c 0,151,152
 264.71875 82.58984375 264.71875 82.58984375 263.778320312 78.0458984375 c 128,-1,153
 262.837890625 73.501953125 262.837890625 73.501953125 262.3671875 67.443359375 c 128,-1,154
 261.896484375 61.384765625 261.896484375 61.384765625 261.896484375 55.830078125 c 128,-1,155
 261.896484375 50.2763671875 261.896484375 50.2763671875 261.896484375 48.2568359375 c 0,156,157
 261.896484375 36.1396484375 261.896484375 36.1396484375 265.189453125 22.5068359375 c 128,-1,158
 268.482421875 8.875 268.482421875 8.875 277.890625 8.875 c 0,159,160
 286.357421875 8.875 286.357421875 8.875 286.357421875 20.9921875 c 0,143,144
489.5703125 22.001953125 m 0,161,162
 489.5703125 32.099609375 489.5703125 32.099609375 484.395507812 39.673828125 c 128,-1,163
 479.221679688 47.2470703125 479.221679688 47.2470703125 479.221679688 58.3544921875 c 0,164,165
 479.221679688 62.3935546875 479.221679688 62.3935546875 478.750976562 72.4921875 c 128,-1,166
 478.280273438 82.58984375 478.280273438 82.58984375 472.635742188 82.58984375 c 0,167,168
 467.931640625 82.58984375 467.931640625 82.58984375 467.4609375 71.482421875 c 128,-1,169
 466.991210938 60.3740234375 466.991210938 60.3740234375 466.991210938 57.3447265625 c 256,170,171
 466.991210938 54.31640625 466.991210938 54.31640625 467.4609375 46.2373046875 c 128,-1,172
 467.931640625 38.1591796875 467.931640625 38.1591796875 469.813476562 30.5849609375 c 128,-1,173
 471.6953125 23.01171875 471.6953125 23.01171875 474.517578125 16.953125 c 128,-1,174
 477.33984375 10.89453125 477.33984375 10.89453125 482.044921875 10.89453125 c 0,175,176
 485.807617188 10.89453125 485.807617188 10.89453125 487.689453125 15.4384765625 c 128,-1,177
 489.5703125 19.982421875 489.5703125 19.982421875 489.5703125 22.001953125 c 0,161,162
86.908203125 22.001953125 m 0,178,179
 86.908203125 33.109375 86.908203125 33.109375 82.6748046875 34.1201171875 c 128,-1,180
 78.4404296875 35.12890625 78.4404296875 35.12890625 73.736328125 42.1982421875 c 0,181,182
 72.7958984375 44.2177734375 72.7958984375 44.2177734375 72.326171875 49.771484375 c 128,-1,183
 71.85546875 55.3251953125 71.85546875 55.3251953125 71.85546875 60.8798828125 c 128,-1,184
 71.85546875 66.4326171875 71.85546875 66.4326171875 70.4443359375 70.9765625 c 128,-1,185
 69.033203125 75.521484375 69.033203125 75.521484375 66.2109375 75.521484375 c 0,186,187
 61.5068359375 75.521484375 61.5068359375 75.521484375 61.0361328125 65.927734375 c 128,-1,188
 60.56640625 56.3359375 60.56640625 56.3359375 60.56640625 49.2666015625 c 0,189,190
 60.56640625 45.2275390625 60.56640625 45.2275390625 61.5068359375 39.16796875 c 128,-1,191
 62.447265625 33.109375 62.447265625 33.109375 64.798828125 27.0517578125 c 128,-1,192
 67.1513671875 20.9921875 67.1513671875 20.9921875 70.4443359375 16.4482421875 c 128,-1,193
 73.736328125 11.9033203125 73.736328125 11.9033203125 78.4404296875 11.9033203125 c 0,194,195
 86.908203125 11.9033203125 86.908203125 11.9033203125 86.908203125 22.001953125 c 0,178,179
EndSplineSet
EndChar

StartChar: n
Encoding: 110 110 83
Width: 600
VWidth: 1000
GlyphClass: 2
Flags: W
LayerCount: 2
Fore
SplineSet
81.5 0 m 1,0,-1
 73.5 627 l 1,1,-1
 153.5 627 l 1,2,-1
 166.5 526 l 1,3,-1
 171.5 526 l 1,4,5
 188 557 188 557 213 576.5 c 128,-1,6
 238 596 238 596 272.5 605.5 c 0,7,8
 306 615 306 615 346.5 615 c 0,9,10
 428 615 428 615 477 569.5 c 0,11,12
 526.5 523.536132812 526.5 523.536132812 526.5 427 c 2,13,-1
 526.5 0 l 1,14,-1
 436.5 0 l 1,15,-1
 436.5 411 l 2,16,17
 435.984375 479.017578125 435.984375 479.017578125 409 510.5 c 128,-1,18
 382 542 382 542 320.5 542 c 0,19,20
 227 542 227 542 205 490 c 0,21,22
 171.5 406.7578125 171.5 406.7578125 171.5 344 c 2,23,-1
 171.5 0 l 1,24,-1
 81.5 0 l 1,0,-1
EndSplineSet
EndChar

StartChar: o
Encoding: 111 111 84
Width: 600
VWidth: 1000
GlyphClass: 2
Flags: W
LayerCount: 2
Fore
SplineSet
186 266 m 1,0,-1
 186 330 l 1,1,-1
 421.200195312 330 l 1,2,-1
 421.200195312 266 l 1,3,-1
 186 266 l 1,0,-1
307.200195312 -9 m 0,4,5
 241.200195312 -9 241.200195312 -9 192.599609375 17.5 c 128,-1,6
 144 44 144 44 112.200195312 87.5 c 128,-1,7
 80.400390625 131 80.400390625 131 64.7998046875 185.5 c 128,-1,8
 49.2001953125 240 49.2001953125 240 49.2001953125 296 c 256,9,10
 49.2001953125 352 49.2001953125 352 63.599609375 410.5 c 128,-1,11
 78 469 78 469 109.200195312 516.5 c 128,-1,12
 140.400390625 564 140.400390625 564 189.599609375 594.5 c 128,-1,13
 238.799804688 625 238.799804688 625 308.400390625 625 c 0,14,15
 372 625 372 625 417.599609375 597.5 c 128,-1,16
 463.200195312 570 463.200195312 570 492.599609375 524 c 128,-1,17
 522 478 522 478 536.400390625 417.5 c 128,-1,18
 550.799804688 357 550.799804688 357 550.799804688 291 c 0,19,20
 550.799804688 236 550.799804688 236 536.400390625 182 c 128,-1,21
 522 128 522 128 492.599609375 85.5 c 128,-1,22
 463.200195312 43 463.200195312 43 417 17 c 128,-1,23
 370.799804688 -9 370.799804688 -9 307.200195312 -9 c 0,4,5
124.799804688 468 m 0,24,25
 128.400390625 468 128.400390625 468 133.200195312 473.5 c 128,-1,26
 138 479 138 479 143.400390625 487.5 c 128,-1,27
 148.799804688 496 148.799804688 496 155.400390625 505 c 128,-1,28
 162 514 162 514 168 521 c 0,29,30
 194.400390625 550 194.400390625 550 217.799804688 567 c 128,-1,31
 241.200195312 584 241.200195312 584 241.200195312 589 c 0,32,33
 241.200195312 592 241.200195312 592 235.200195312 593 c 0,34,35
 220.799804688 593 220.799804688 593 201 579 c 128,-1,36
 181.200195312 565 181.200195312 565 163.200195312 545.5 c 128,-1,37
 145.200195312 526 145.200195312 526 132.599609375 505.5 c 128,-1,38
 120 485 120 485 120 473 c 0,39,40
 120 468 120 468 124.799804688 468 c 0,24,25
307.200195312 71 m 0,41,42
 343.200195312 71 343.200195312 71 365.400390625 93.5 c 128,-1,43
 387.599609375 116 387.599609375 116 400.200195312 149.5 c 128,-1,44
 412.799804688 183 412.799804688 183 417.599609375 223 c 128,-1,45
 422.400390625 263 422.400390625 263 422.400390625 299 c 256,46,47
 422.400390625 335 422.400390625 335 419.400390625 376 c 128,-1,48
 416.400390625 417 416.400390625 417 404.400390625 452 c 128,-1,49
 392.400390625 487 392.400390625 487 369.599609375 510 c 128,-1,50
 346.799804688 533 346.799804688 533 308.400390625 533 c 0,51,52
 271.200195312 533 271.200195312 533 247.200195312 505 c 128,-1,53
 223.200195312 477 223.200195312 477 209.400390625 438.5 c 128,-1,54
 195.599609375 400 195.599609375 400 190.799804688 360 c 128,-1,55
 186 320 186 320 186 296 c 256,56,57
 186 272 186 272 189.599609375 233.5 c 128,-1,58
 193.200195312 195 193.200195312 195 205.799804688 159 c 128,-1,59
 218.400390625 123 218.400390625 123 242.400390625 97 c 128,-1,60
 266.400390625 71 266.400390625 71 307.200195312 71 c 0,41,42
126 446 m 256,61,62
 126 454 126 454 117.599609375 456 c 0,63,64
 114 456 114 456 108 452.5 c 128,-1,65
 102 449 102 449 102 441 c 0,66,67
 102 432 102 432 111.599609375 432 c 0,68,69
 115.200195312 432 115.200195312 432 120.599609375 435 c 128,-1,70
 126 438 126 438 126 446 c 256,61,62
EndSplineSet
EndChar

StartChar: p
Encoding: 112 112 85
Width: 600
VWidth: 1000
GlyphClass: 2
Flags: W
LayerCount: 2
Fore
SplineSet
109.9375 -14 m 0,0,1
 89.9375 -14 89.9375 -14 72.9375 1 c 128,-1,2
 55.9375 16 55.9375 16 55.9375 69 c 2,3,-1
 55.9375 526 l 2,4,5
 55.9375 547 55.9375 547 64.4375 564 c 128,-1,6
 72.9375 581 72.9375 581 87.4375 592.5 c 128,-1,7
 101.9375 604 101.9375 604 120.4375 610 c 128,-1,8
 138.9375 616 138.9375 616 158.9375 616 c 2,9,-1
 340.9375 616 l 2,10,11
 371.9375 616 371.9375 616 407.4375 604 c 128,-1,12
 442.9375 592 442.9375 592 472.9375 566 c 128,-1,13
 502.9375 540 502.9375 540 522.9375 498 c 0,14,15
 548.9375 444 548.9375 444 542.9375 397 c 256,16,17
 541.9375 391 541.9375 391 523.4375 356.5 c 0,18,19
 490.9375 296 490.9375 296 474.9375 278.5 c 0,20,21
 445.9375 247 445.9375 247 411.9375 230.5 c 128,-1,22
 377.9375 214 377.9375 214 347.9375 214 c 2,23,-1
 195.9375 214 l 2,24,25
 186.9375 214 186.9375 214 178.4375 210 c 128,-1,26
 169.9375 206 169.9375 206 169.9375 132 c 2,27,-1
 169.9375 65 l 2,28,29
 169.9375 33 169.9375 33 164.4375 21 c 128,-1,30
 158.9375 9 158.9375 9 149.9375 1 c 128,-1,31
 140.9375 -7 140.9375 -7 130.4375 -10.5 c 128,-1,32
 119.9375 -14 119.9375 -14 109.9375 -14 c 0,0,1
336.9375 303 m 2,33,34
 353.9375 303 353.9375 303 369.9375 311 c 0,35,36
 393.9375 323 393.9375 323 399.4375 336.5 c 0,37,38
 416.9375 381 416.9375 381 420.9375 382 c 0,39,40
 428.9375 384 428.9375 384 428.9375 385 c 0,41,42
 428.9375 428 428.9375 428 420.9375 456.5 c 128,-1,43
 412.9375 485 412.9375 485 399.9375 501.5 c 128,-1,44
 386.9375 518 386.9375 518 370.9375 525 c 128,-1,45
 354.9375 532 354.9375 532 339.9375 532 c 2,46,-1
 194.9375 532 l 2,47,48
 169.9375 532 169.9375 532 169.9375 498 c 2,49,-1
 169.9375 326 l 2,50,51
 169.9375 303 169.9375 303 200.9375 303 c 2,52,-1
 336.9375 303 l 2,33,34
95.9375 21 m 256,53,54
 90.9375 26 90.9375 26 87.4375 39 c 128,-1,55
 83.9375 52 83.9375 52 83.9375 78.5 c 128,-1,56
 83.9375 105 83.9375 105 76.9375 105 c 0,57,58
 71.9375 105 71.9375 105 70.4375 96.5 c 128,-1,59
 68.9375 88 68.9375 88 68.9375 76 c 0,60,61
 68.9375 38 68.9375 38 75.9375 22 c 128,-1,62
 82.9375 6 82.9375 6 92.9375 6 c 0,63,64
 94.9375 6 94.9375 6 97.9375 8 c 128,-1,65
 100.9375 10 100.9375 10 100.9375 12 c 0,66,67
 100.9375 16 100.9375 16 95.9375 21 c 256,53,54
EndSplineSet
EndChar

StartChar: q
Encoding: 113 113 86
Width: 600
VWidth: 1000
GlyphClass: 2
Flags: W
LayerCount: 2
Fore
SplineSet
101.041992188 471.405273438 m 0,0,1
 105.595703125 473.8671875 105.595703125 473.8671875 129.859375 454.36328125 c 128,-1,2
 154.123046875 434.857421875 154.123046875 434.857421875 188.509765625 403.82421875 c 128,-1,3
 222.891601562 372.791992188 222.891601562 372.791992188 262.6171875 335 c 128,-1,4
 302.341796875 297.205078125 302.341796875 297.205078125 337.9921875 262.72265625 c 128,-1,5
 373.643554688 228.241210938 373.643554688 228.241210938 399.759765625 202.390625 c 128,-1,6
 425.87890625 176.536132812 425.87890625 176.536132812 434.024414062 169.915039062 c 0,7,8
 442.526367188 162.5625 442.526367188 162.5625 459.732421875 146.595703125 c 128,-1,9
 476.938476562 130.626953125 476.938476562 130.626953125 494.852539062 113.205078125 c 128,-1,10
 512.767578125 95.783203125 512.767578125 95.783203125 527.3125 80.21484375 c 128,-1,11
 541.861328125 64.6484375 541.861328125 64.6484375 544.690429688 58.826171875 c 0,12,13
 547.165039062 53.7333984375 547.165039062 53.7333984375 546.03515625 47.611328125 c 128,-1,14
 544.904296875 41.4873046875 544.904296875 41.4873046875 541.616210938 35.5791015625 c 128,-1,15
 538.328125 29.6669921875 538.328125 29.6669921875 533.682617188 24.861328125 c 128,-1,16
 529.038085938 20.0546875 529.038085938 20.0546875 524.484375 17.5927734375 c 0,17,18
 515.375976562 12.6728515625 515.375976562 12.6728515625 504.53515625 15.5439453125 c 128,-1,19
 493.6953125 18.4150390625 493.6953125 18.4150390625 485.250976562 23.958984375 c 0,20,21
 477.811523438 29.1259765625 477.811523438 29.1259765625 456.029296875 48.5927734375 c 128,-1,22
 434.248046875 68.0615234375 434.248046875 68.0615234375 404.083984375 96.3212890625 c 128,-1,23
 373.921875 124.58203125 373.921875 124.58203125 337.443359375 159.075195312 c 128,-1,24
 300.965820312 193.571289062 300.965820312 193.571289062 264.1328125 228.791992188 c 128,-1,25
 227.30078125 264.015625 227.30078125 264.015625 192.508789062 297.581054688 c 128,-1,26
 157.712890625 331.147460938 157.712890625 331.147460938 130.739257812 357.915039062 c 128,-1,27
 103.764648438 384.684570312 103.764648438 384.684570312 86.857421875 401.731445312 c 128,-1,28
 69.9462890625 418.778320312 69.9462890625 418.778320312 68.88671875 420.9609375 c 0,29,30
 65.703125 427.509765625 65.703125 427.509765625 69.0830078125 435.765625 c 128,-1,31
 72.4609375 444.022460938 72.4609375 444.022460938 78.6767578125 451.513671875 c 128,-1,32
 84.8916015625 459.0078125 84.8916015625 459.0078125 91.666015625 464.50390625 c 128,-1,33
 98.439453125 470 98.439453125 470 101.041992188 471.405273438 c 0,0,1
98.9248046875 433.515625 m 0,34,35
 95.8544921875 436.450195312 95.8544921875 436.450195312 91.6826171875 432.359375 c 128,-1,36
 87.51171875 428.267578125 87.51171875 428.267578125 89.9873046875 423.173828125 c 0,37,38
 92.109375 418.809570312 92.109375 418.809570312 100.489257812 410.016601562 c 128,-1,39
 108.869140625 401.22265625 108.869140625 401.22265625 118.580078125 392.228515625 c 128,-1,40
 128.2890625 383.233398438 128.2890625 383.233398438 137.29296875 375.697265625 c 128,-1,41
 146.295898438 368.159179688 146.295898438 368.159179688 149.010742188 365.950195312 c 0,42,43
 152.731445312 363.365234375 152.731445312 363.365234375 155.983398438 365.123046875 c 128,-1,44
 159.236328125 366.879882812 159.236328125 366.879882812 160.18359375 368.310546875 c 0,45,46
 163.083007812 370.796875 163.083007812 370.796875 156.385742188 378.662109375 c 128,-1,47
 149.688476562 386.528320312 149.688476562 386.528320312 139.298828125 396.071289062 c 128,-1,48
 128.909179688 405.619140625 128.909179688 405.619140625 117.33984375 415.904296875 c 128,-1,49
 105.770507812 426.188476562 105.770507812 426.188476562 98.9248046875 433.515625 c 0,34,35
144.610351562 0 m 2,50,51
 130.53515625 -1.1064453125 130.53515625 -1.1064453125 110.110351562 4 c 0,52,53
 94.1103515625 8 94.1103515625 8 81.1103515625 18 c 0,54,55
 64.1103515625 31 64.1103515625 31 61.1103515625 45 c 0,56,57
 54.1103515625 88 54.1103515625 88 53.6103515625 88 c 2,58,-1
 53.6103515625 516 l 2,59,60
 54.1103515625 541 54.1103515625 541 63.1103515625 562.5 c 0,61,62
 72.1103515625 582 72.1103515625 582 88.1103515625 594.5 c 128,-1,63
 104.110351562 607 104.110351562 607 124.610351562 612.5 c 0,64,65
 149.127929688 618.749023438 149.127929688 618.749023438 168.610351562 618 c 2,66,-1
 298.610351562 613 l 2,67,68
 346.110351562 611 346.110351562 611 381.610351562 593.5 c 0,69,70
 422.110351562 574 422.110351562 574 452.110351562 539 c 128,-1,71
 482.110351562 504 482.110351562 504 501.110351562 449.5 c 128,-1,72
 520.110351562 395 520.110351562 395 519.610351562 326 c 0,73,74
 520.110351562 257 520.110351562 257 500.610351562 192.5 c 128,-1,75
 481.110351562 128 481.110351562 128 449.610351562 89.5 c 0,76,77
 424.110351562 59 424.110351562 59 374.610351562 34.5 c 0,78,79
 335.033203125 14.9619140625 335.033203125 14.9619140625 284.610351562 11 c 2,80,-1
 144.610351562 0 l 2,50,51
238.610351562 96 m 2,81,82
 306.110351562 96 306.110351562 96 328.610351562 112.5 c 0,83,84
 352.110351562 129 352.110351562 129 368.110351562 159.5 c 128,-1,85
 384.110351562 190 384.110351562 190 394.110351562 233 c 128,-1,86
 404.110351562 276 404.110351562 276 403.610351562 329 c 0,87,88
 404.110351562 419 404.110351562 419 373.610351562 467 c 0,89,90
 339.110351562 520 339.110351562 520 295.610351562 520 c 2,91,-1
 280.610351562 520 l 2,92,93
 175.110351562 520 175.110351562 520 173.610351562 512.5 c 0,94,95
 168.110351562 481 168.110351562 481 167.610351562 480 c 2,96,-1
 167.610351562 132 l 2,97,98
 168.247070312 111.63671875 168.247070312 111.63671875 171.110351562 104 c 0,99,100
 174.110351562 96 174.110351562 96 225.610351562 96 c 2,101,-1
 238.610351562 96 l 2,81,82
84.6103515625 83 m 0,102,103
 89.1103515625 83 89.1103515625 83 90.1103515625 93.5 c 128,-1,104
 91.1103515625 104 91.1103515625 104 91.6103515625 117.5 c 0,105,106
 91.1103515625 131 91.1103515625 131 91.1103515625 143.5 c 128,-1,107
 91.1103515625 156 91.1103515625 156 90.6103515625 161 c 0,108,109
 91.1103515625 216 91.1103515625 216 84.6103515625 216 c 0,110,111
 81.1103515625 216 81.1103515625 216 78.6103515625 203.5 c 0,112,113
 75.1103515625 191 75.1103515625 191 75.6103515625 161 c 0,114,115
 75.1103515625 116 75.1103515625 116 76.1103515625 99.5 c 128,-1,116
 77.1103515625 83 77.1103515625 83 84.6103515625 83 c 0,102,103
83.6103515625 69 m 0,117,118
 77.1103515625 69 77.1103515625 69 76.6103515625 58 c 0,119,120
 77.1103515625 40 77.1103515625 40 84.6103515625 40 c 0,121,122
 87.1103515625 40 87.1103515625 40 89.6103515625 46 c 0,123,124
 91.1103515625 52 91.1103515625 52 91.6103515625 58 c 0,125,126
 91.1103515625 69 91.1103515625 69 83.6103515625 69 c 0,117,118
EndSplineSet
EndChar

StartChar: r
Encoding: 114 114 87
Width: 600
VWidth: 1000
GlyphClass: 2
Flags: W
LayerCount: 2
Fore
SplineSet
45 0 m 1,0,-1
 45 60 l 1,1,-1
 208 75 l 1,2,-1
 208 461 l 1,3,-1
 61 474 l 1,4,-1
 61 536 l 1,5,-1
 280 536 l 1,6,-1
 292 438 l 1,7,-1
 296 438 l 1,8,9
 324 491 324 491 357.5 518.5 c 128,-1,10
 391 546 391 546 446 546 c 0,11,12
 480 546 480 546 506.5 540 c 128,-1,13
 533 534 533 534 555 524 c 1,14,-1
 531 445 l 1,15,16
 515 454 515 454 493 460.5 c 128,-1,17
 471 467 471 467 446 467 c 0,18,19
 403 467 403 467 370 440 c 128,-1,20
 337 413 337 413 318 368 c 128,-1,21
 299 323 299 323 299 269 c 2,22,-1
 299 75 l 1,23,-1
 455 60 l 1,24,-1
 455 0 l 1,25,-1
 45 0 l 1,0,-1
EndSplineSet
EndChar

StartChar: s
Encoding: 115 115 88
Width: 600
VWidth: 1000
GlyphClass: 2
Flags: W
LayerCount: 2
Fore
SplineSet
274.799804688 -4.01953125 m 0,0,1
 214.799804688 -4.01953125 214.799804688 -4.01953125 160.19921875 5.9697265625 c 128,-1,2
 105.599609375 15.9599609375 105.599609375 15.9599609375 66 33.7197265625 c 1,3,-1
 66 125.849609375 l 1,4,5
 108 108.08984375 108 108.08984375 159 93.10546875 c 128,-1,6
 210 78.1201171875 210 78.1201171875 280.799804688 78.1201171875 c 0,7,8
 360 78.1201171875 360 78.1201171875 393 100.875 c 128,-1,9
 426 123.629882812 426 123.629882812 426 166.919921875 c 0,10,11
 426 190.23046875 426 190.23046875 414.599609375 205.21484375 c 128,-1,12
 403.19921875 220.200195312 403.19921875 220.200195312 370.799804688 235.740234375 c 128,-1,13
 338.399414062 251.280273438 338.399414062 251.280273438 276 275.700195312 c 0,14,15
 213.599609375 301.23046875 213.599609375 301.23046875 169.19921875 323.4296875 c 128,-1,16
 124.799804688 345.629882812 124.799804688 345.629882812 100.799804688 376.155273438 c 128,-1,17
 76.7998046875 406.6796875 76.7998046875 406.6796875 76.7998046875 454.41015625 c 0,18,19
 76.7998046875 507.690429688 76.7998046875 507.690429688 106.19921875 542.655273438 c 128,-1,20
 135.599609375 577.620117188 135.599609375 577.620117188 191.399414062 595.379882812 c 128,-1,21
 247.19921875 613.139648438 247.19921875 613.139648438 324 613.139648438 c 0,22,23
 376.799804688 613.139648438 376.799804688 613.139648438 424.799804688 604.259765625 c 128,-1,24
 472.799804688 595.379882812 472.799804688 595.379882812 524.399414062 575.400390625 c 1,25,-1
 492 497.700195312 l 1,26,27
 444 516.5703125 444 516.5703125 403.799804688 523.23046875 c 128,-1,28
 363.599609375 529.889648438 363.599609375 529.889648438 324 529.889648438 c 0,29,30
 249.599609375 529.889648438 249.599609375 529.889648438 215.399414062 512.129882812 c 128,-1,31
 181.19921875 494.370117188 181.19921875 494.370117188 181.19921875 456.629882812 c 0,32,33
 181.19921875 432.209960938 181.19921875 432.209960938 196.19921875 415.559570312 c 128,-1,34
 211.19921875 398.91015625 211.19921875 398.91015625 245.399414062 383.370117188 c 128,-1,35
 279.599609375 367.830078125 279.599609375 367.830078125 336 345.629882812 c 0,36,37
 399.599609375 321.209960938 399.599609375 321.209960938 444 300.120117188 c 128,-1,38
 488.399414062 279.030273438 488.399414062 279.030273438 511.19921875 249.615234375 c 128,-1,39
 534 220.200195312 534 220.200195312 534 169.139648438 c 0,40,41
 534 112.530273438 534 112.530273438 504.599609375 74.2353515625 c 128,-1,42
 475.19921875 35.9404296875 475.19921875 35.9404296875 417.599609375 15.9599609375 c 128,-1,43
 360 -4.01953125 360 -4.01953125 274.799804688 -4.01953125 c 0,0,1
EndSplineSet
EndChar

StartChar: t
Encoding: 116 116 89
Width: 600
VWidth: 1000
GlyphClass: 2
Flags: W
LayerCount: 2
Fore
SplineSet
416 -10 m 0,0,1
 359 -10 359 -10 314 5 c 128,-1,2
 269 20 269 20 242.5 58 c 128,-1,3
 216 96 216 96 216 163 c 2,4,-1
 216 461 l 1,5,-1
 70 461 l 1,6,-1
 70 523 l 1,7,-1
 216 539 l 1,8,-1
 234 679 l 1,9,-1
 306 679 l 1,10,-1
 306 536 l 1,11,-1
 515 536 l 1,12,-1
 515 461 l 1,13,-1
 306 461 l 1,14,-1
 306 180 l 2,15,16
 306 140 306 140 317.5 114 c 128,-1,17
 329 88 329 88 355 75.5 c 128,-1,18
 381 63 381 63 422 63 c 0,19,20
 448 63 448 63 478 68 c 128,-1,21
 508 73 508 73 530 78 c 1,22,-1
 530 6 l 1,23,24
 506 0 506 0 477 -5 c 128,-1,25
 448 -10 448 -10 416 -10 c 0,0,1
EndSplineSet
EndChar

StartChar: u
Encoding: 117 117 90
Width: 600
VWidth: 1000
GlyphClass: 2
Flags: W
LayerCount: 2
Fore
SplineSet
263.5 -10 m 0,0,1
 168.5 -10 168.5 -10 123 37.5 c 128,-1,2
 77.5 85 77.5 85 77.5 179 c 2,3,-1
 77.5 536 l 1,4,-1
 167.5 536 l 1,5,-1
 167.5 193 l 2,6,7
 167.5 129 167.5 129 194 96 c 128,-1,8
 220.5 63 220.5 63 285.5 63 c 0,9,10
 341.5 63 341.5 63 373.5 86.5 c 128,-1,11
 405.5 110 405.5 110 419 154 c 128,-1,12
 432.5 198 432.5 198 432.5 260 c 2,13,-1
 432.5 536 l 1,14,-1
 522.5 536 l 1,15,-1
 522.5 0 l 1,16,-1
 450.5 0 l 1,17,-1
 437.5 72 l 1,18,-1
 432.5 72 l 1,19,20
 413.5 42 413.5 42 388.5 24 c 128,-1,21
 363.5 6 363.5 6 332.5 -2 c 128,-1,22
 301.5 -10 301.5 -10 263.5 -10 c 0,0,1
EndSplineSet
EndChar

StartChar: v
Encoding: 118 118 91
Width: 600
VWidth: 1000
GlyphClass: 2
Flags: W
LayerCount: 2
Fore
SplineSet
439.241210938 95.611328125 m 0,0,1
 442.08203125 91.76171875 442.08203125 91.76171875 448.11328125 91.333984375 c 0,2,3
 455.116210938 91.462890625 455.116210938 91.462890625 478.5 64 c 0,4,5
 501.982421875 37.5322265625 501.982421875 37.5322265625 508.954101562 28.8564453125 c 0,6,7
 520.888671875 15.5419921875 520.888671875 15.5419921875 525.287109375 20.4169921875 c 0,8,9
 527.75390625 23.900390625 527.75390625 23.900390625 524.57421875 28.990234375 c 0,10,11
 520.888671875 35.6416015625 520.888671875 35.6416015625 518.869140625 37.263671875 c 0,12,13
 516.411132812 41.1142578125 516.411132812 41.1142578125 509.052734375 47.294921875 c 0,14,15
 501.684570312 54.646484375 501.684570312 54.646484375 482.040039062 76.8349609375 c 0,16,17
 461.982421875 99.8212890625 461.982421875 99.8212890625 454.35546875 102.526367188 c 0,18,19
 446.559570312 106.388671875 446.559570312 106.388671875 444.928710938 104.3671875 c 256,20,21
 436.708007812 98.3291015625 436.708007812 98.3291015625 439.241210938 95.611328125 c 0,0,1
169.5 290 m 1,22,-1
 169.5 368 l 1,23,-1
 430.5 368 l 1,24,-1
 430.5 290 l 1,25,-1
 169.5 290 l 1,22,-1
480.5 0 m 0,26,-1
 117.5 0 l 0,27,28
 99.5 0 99.5 0 87.5 8.5 c 128,-1,29
 75.5 17 75.5 17 69 31 c 128,-1,30
 62.5 45 62.5 45 60 64 c 128,-1,31
 57.5 83 57.5 83 57.5 105 c 2,32,-1
 57.5 546 l 2,33,34
 57.5 552 57.5 552 60 563.5 c 128,-1,35
 62.5 575 62.5 575 68.5 587 c 128,-1,36
 74.5 599 74.5 599 85.5 607.5 c 128,-1,37
 96.5 616 96.5 616 114.5 616 c 0,38,39
 129.5 616 129.5 616 140 609 c 128,-1,40
 150.5 602 150.5 602 157 591 c 128,-1,41
 163.5 580 163.5 580 166.5 567.5 c 128,-1,42
 169.5 555 169.5 555 169.5 544 c 2,43,-1
 169.5 89 l 2,44,45
 169.5 81 169.5 81 172 75 c 128,-1,46
 174.486328125 69.0341796875 174.486328125 69.0341796875 182.5 69 c 2,47,-1
 419.5 68 l 2,48,49
 424.5 68 424.5 68 427.5 70.5 c 128,-1,50
 430.5 73 430.5 73 430.5 87 c 2,51,-1
 430.5 540 l 2,52,53
 430.5 578 430.5 578 442.5 597 c 128,-1,54
 454.5 616 454.5 616 475.5 616 c 0,55,56
 486.5 616 486.5 616 498 612 c 128,-1,57
 509.5 608 509.5 608 519.5 598.5 c 128,-1,58
 529.5 589 529.5 589 536 574 c 128,-1,59
 542.5 559 542.5 559 542.5 537 c 2,60,-1
 542.5 91 l 2,61,62
 542.5 77 542.5 77 539 61 c 128,-1,63
 535.5 45 535.5 45 528 31.5 c 128,-1,64
 520.5 18 520.5 18 508.5 9 c 128,-1,65
 496.5 0 496.5 0 480.5 0 c 0,26,-1
74.5 555 m 0,66,67
 77.5 555 77.5 555 82 559.5 c 128,-1,68
 86.5 564 86.5 564 91 570.5 c 128,-1,69
 95.5 577 95.5 577 99.5 583.5 c 128,-1,70
 103.5 590 103.5 590 104.5 593 c 256,71,72
 105.5 596 105.5 596 105 600.5 c 128,-1,73
 104.5 605 104.5 605 101.5 604 c 0,74,75
 94.5 603 94.5 603 89.5 597.5 c 128,-1,76
 84.5 592 84.5 592 80.5 585 c 128,-1,77
 76.5 578 76.5 578 74.5 572 c 128,-1,78
 72.5 566 72.5 566 72.5 563 c 0,79,80
 72.5 561 72.5 561 72.5 558.5 c 128,-1,81
 72.5 556 72.5 556 74.5 555 c 0,66,67
467.5 575 m 0,82,83
 468.5 583 468.5 583 474 591 c 128,-1,84
 479.5 599 479.5 599 473.5 600 c 0,85,86
 465.5 601 465.5 601 457 591.5 c 0,87,88
 447.5 581 447.5 581 446.5 568 c 0,89,90
 445.5 553 445.5 553 451.5 552 c 0,91,92
 459.5 551 459.5 551 463 561 c 128,-1,93
 466.5 571 466.5 571 467.5 575 c 0,82,83
99.9521484375 15.791015625 m 0,94,95
 103.5 19 103.5 19 103.325195312 25.0439453125 c 0,96,97
 102.5 32 102.5 32 127.5 58 c 0,98,99
 151.5 84 151.5 84 159.438476562 91.7998046875 c 0,100,101
 171.5 105 171.5 105 166.2109375 108.891601562 c 0,102,103
 162.5 111 162.5 111 157.751953125 107.329101562 c 0,104,105
 151.5 103 151.5 103 150.086914062 100.829101562 c 0,106,107
 146.5 98 146.5 98 141.08203125 90.0634765625 c 0,108,109
 134.5 82 134.5 82 114.376953125 60.2451171875 c 0,110,111
 93.5 38 93.5 38 91.5673828125 30.1416015625 c 0,112,113
 88.5 22 88.5 22 90.673828125 20.5791015625 c 256,114,115
 97.5 13 97.5 13 99.9521484375 15.791015625 c 0,94,95
EndSplineSet
EndChar

StartChar: w
Encoding: 119 119 92
Width: 600
VWidth: 1000
GlyphClass: 2
Flags: W
LayerCount: 2
Fore
SplineSet
573 538 m 1,0,-1
 35 538 l 1,1,-1
 35 617 l 1,2,-1
 573 617 l 1,3,-1
 573 538 l 1,0,-1
403 0 m 0,4,5
 380 0 380 0 363.5 6 c 128,-1,6
 347 12 347 12 335.5 23.5 c 128,-1,7
 324 35 324 35 316 51 c 0,8,9
 304 75 304 75 301 87 c 0,10,11
 300 91 300 91 299 97 c 128,-1,12
 298 103 298 103 296.5 109 c 128,-1,13
 295 115 295 115 293.5 119 c 128,-1,14
 292 123 292 123 290 123 c 256,15,16
 288 123 288 123 286 115.5 c 128,-1,17
 284 108 284 108 280 97 c 0,18,19
 270 71 270 71 261 52.5 c 128,-1,20
 252 34 252 34 240.5 22.5 c 128,-1,21
 229 11 229 11 215 5.5 c 128,-1,22
 201 0 201 0 181 0 c 0,23,24
 141 0 141 0 111.5 13.5 c 128,-1,25
 82 27 82 27 63 51.5 c 128,-1,26
 44 76 44 76 35 109.5 c 128,-1,27
 26 143 26 143 26 183 c 2,28,-1
 26 522 l 2,29,30
 26 532 26 532 29 545.5 c 128,-1,31
 32 559 32 559 39 571 c 128,-1,32
 46 583 46 583 57.5 591.5 c 128,-1,33
 69 600 69 600 87 600 c 0,34,35
 116 600 116 600 127 579.5 c 128,-1,36
 137.903320312 559.1796875 137.903320312 559.1796875 138 527 c 2,37,-1
 139 193 l 2,38,39
 139 183 139 183 141 166.5 c 128,-1,40
 143 150 143 150 147.5 134 c 128,-1,41
 152 118 152 118 161 106.5 c 128,-1,42
 170 95 170 95 183 95 c 0,43,44
 206 95 206 95 219.5 129 c 128,-1,45
 233 163 233 163 240 219 c 128,-1,46
 247 275 247 275 248.5 285.5 c 128,-1,47
 250 296 250 296 250 372 c 4,48,49
 250 436 250 436 260 460.5 c 132,-1,50
 270 485 270 485 300 485 c 4,51,52
 314 485 314 485 323 480 c 132,-1,53
 332 475 332 475 338 459 c 132,-1,54
 344 443 344 443 346.5 413 c 132,-1,55
 349 383 349 383 349 333 c 4,56,57
 349 271 l 0,58,-1
 350.5 236.5 l 0,59,60
 352 202 352 202 354.5 181.5 c 128,-1,61
 357 161 357 161 362 146 c 0,62,63
 371 117 371 117 381 105.5 c 128,-1,64
 391 94 391 94 404 94 c 0,65,66
 463 94 463 94 463 239 c 2,67,-1
 463 539 l 2,68,69
 463 550 463 550 465 561 c 128,-1,70
 467 572 467 572 472.5 580.5 c 128,-1,71
 478 589 478 589 488 594.5 c 128,-1,72
 498 600 498 600 513 600 c 0,73,74
 545 600 545 600 559.5 582.5 c 128,-1,75
 574 565 574 565 574 539 c 2,76,-1
 574 220 l 2,77,78
 574 178 574 178 562.5 138.5 c 128,-1,79
 551 99 551 99 529.5 68 c 128,-1,80
 508 37 508 37 476 18.5 c 128,-1,81
 444 0 444 0 403 0 c 0,4,5
51 515 m 0,82,83
 58 515 58 515 60.5 522 c 128,-1,84
 63 529 63 529 64 534 c 0,85,86
 66 548 66 548 75 557.5 c 0,87,88
 90 573 90 573 90 579 c 0,89,90
 90 581 90 581 88 584 c 128,-1,91
 86 587 86 587 83 587 c 0,92,93
 77 587 77 587 70 580.5 c 128,-1,94
 63 574 63 574 57 565 c 128,-1,95
 51 556 51 556 47.5 545.5 c 128,-1,96
 44 535 44 535 44 527 c 0,97,98
 44 523 44 523 45 519 c 128,-1,99
 46 515 46 515 51 515 c 0,82,83
496 533 m 0,100,101
 496 543 496 543 499 551 c 128,-1,102
 502 559 502 559 506 566 c 0,103,104
 511 574 511 574 510 579 c 128,-1,105
 509 584 509 584 506 584 c 0,106,107
 501 584 501 584 494.5 580.5 c 128,-1,108
 488 577 488 577 484 567 c 0,109,110
 479 551 479 551 480.5 536 c 128,-1,111
 482 521 482 521 490 521 c 0,112,113
 492 521 492 521 494 524.5 c 128,-1,114
 496 528 496 528 496 533 c 0,100,101
277 421 m 4,115,116
 277 422 277 422 279 431.5 c 132,-1,117
 281 441 281 441 284 447 c 4,118,119
 291 460 291 460 293 465 c 132,-1,120
 295 470 295 470 292 470 c 4,121,122
 290 470 290 470 284.5 468 c 132,-1,123
 279 466 279 466 274 459 c 4,124,125
 263 444 263 444 263.5 427 c 132,-1,126
 264 410 264 410 272 410 c 4,127,128
 277 410 277 410 277 421 c 4,115,116
128 37 m 0,129,130
 127 42 127 42 114 51 c 128,-1,131
 101 60 101 60 95 67 c 0,132,133
 84 78 84 78 79.5 89 c 128,-1,134
 75 100 75 100 70 99 c 0,135,136
 66 99 66 99 66.5 92 c 128,-1,137
 67 85 67 85 71.5 75 c 128,-1,138
 76 65 76 65 85 54 c 128,-1,139
 94 43 94 43 107 34 c 0,140,141
 116 27 116 27 123 29 c 0,142,143
 128 29 128 29 128 37 c 0,129,130
394 22 m 0,144,145
 394 26 394 26 390.5 27 c 128,-1,146
 387 28 387 28 384 28 c 0,147,148
 379 29 379 29 369 38 c 128,-1,149
 359 47 359 47 353 57 c 0,150,151
 343 72 343 72 335 74 c 0,152,153
 332 74 332 74 332 69 c 0,154,155
 332 67 332 67 335.5 59 c 128,-1,156
 339 51 339 51 346 42 c 128,-1,157
 353 33 353 33 362.5 25.5 c 128,-1,158
 372 18 372 18 383 17 c 0,159,160
 387 17 387 17 390 17 c 128,-1,161
 393 17 393 17 394 22 c 0,144,145
EndSplineSet
EndChar

StartChar: x
Encoding: 120 120 93
Width: 600
VWidth: 1000
GlyphClass: 2
Flags: W
LayerCount: 2
Fore
SplineSet
467.51953125 140.5 m 0,0,1
 467.51953125 109.5 467.51953125 109.5 442.319335938 99.5 c 128,-1,2
 417.119140625 89.5 417.119140625 89.5 388.319335938 88.5 c 0,3,4
 370.319335938 88.5 370.319335938 88.5 345.719726562 88 c 128,-1,5
 321.119140625 87.5 321.119140625 87.5 294.119140625 87 c 128,-1,6
 267.119140625 86.5 267.119140625 86.5 241.919921875 86.5 c 128,-1,7
 216.719726562 86.5 216.719726562 86.5 198.719726562 86.5 c 0,8,9
 172.319335938 86.5 172.319335938 86.5 153.719726562 97 c 128,-1,10
 135.119140625 107.5 135.119140625 107.5 135.119140625 130.5 c 0,11,12
 135.119140625 143.5 135.119140625 143.5 142.319335938 152.5 c 128,-1,13
 149.51953125 161.5 149.51953125 161.5 160.319335938 166.5 c 128,-1,14
 171.119140625 171.5 171.119140625 171.5 184.919921875 173.5 c 128,-1,15
 198.719726562 175.5 198.719726562 175.5 211.919921875 175.5 c 0,16,17
 231.119140625 175.5 231.119140625 175.5 257.51953125 176 c 128,-1,18
 283.919921875 176.5 283.919921875 176.5 311.51953125 177 c 128,-1,19
 339.119140625 177.5 339.119140625 177.5 366.119140625 177.5 c 128,-1,20
 393.119140625 177.5 393.119140625 177.5 412.319335938 177.5 c 0,21,22
 432.719726562 177.5 432.719726562 177.5 450.119140625 170 c 128,-1,23
 467.51953125 162.5 467.51953125 162.5 467.51953125 140.5 c 0,0,1
156.719726562 111.5 m 0,24,25
 161.51953125 111.5 161.51953125 111.5 166.919921875 117 c 128,-1,26
 172.319335938 122.5 172.319335938 122.5 176.51953125 129 c 128,-1,27
 180.719726562 135.5 180.719726562 135.5 183.719726562 142 c 128,-1,28
 186.719726562 148.5 186.719726562 148.5 186.719726562 150.5 c 0,29,30
 186.719726562 154.5 186.719726562 154.5 186.119140625 158 c 128,-1,31
 185.51953125 161.5 185.51953125 161.5 179.51953125 161.5 c 0,32,33
 163.919921875 161.5 163.919921875 161.5 156.119140625 148 c 128,-1,34
 148.319335938 134.5 148.319335938 134.5 148.319335938 124.5 c 0,35,36
 148.319335938 116.5 148.319335938 116.5 151.319335938 114 c 128,-1,37
 154.319335938 111.5 154.319335938 111.5 156.719726562 111.5 c 0,24,25
94.3193359375 -43 m 0,38,39
 76.3193359375 -43 76.3193359375 -43 62.51953125 -32.5 c 128,-1,40
 48.7197265625 -22 48.7197265625 -22 48.7197265625 -11 c 0,41,42
 48.7197265625 -8.720703125 48.7197265625 -8.720703125 53.51953125 3 c 2,43,-1
 208.319335938 381 l 2,44,-1
 227.51953125 420 l 0,45,46
 227.51953125 426 227.51953125 426 222.719726562 434.5 c 0,47,48
 219.119140625 440 219.119140625 440 211.919921875 451 c 2,49,-1
 77.51953125 585 l 2,50,51
 73.919921875 589 73.919921875 589 66.119140625 606 c 0,52,53
 60.7197265625 618 60.7197265625 618 60.7197265625 633 c 0,54,55
 60.7197265625 647 60.7197265625 647 78.119140625 661 c 128,-1,56
 95.51953125 675 95.51953125 675 127.919921875 675 c 0,57,58
 135.119140625 675 135.119140625 675 141.719726562 673 c 0,59,60
 145.03125 668.499023438 145.03125 668.499023438 153.581054688 663.444335938 c 0,61,62
 154.768554688 660.91015625 154.768554688 660.91015625 171.119140625 648.5 c 1,63,-1
 296.51953125 530 l 0,64,65
 298.319335938 524 298.319335938 524 303.119140625 524 c 256,66,-1
 319.919921875 546 l 2,67,-1
 433.919921875 661 l 2,68,69
 443.51953125 671 443.51953125 671 447.119140625 672 c 0,70,71
 455.51953125 675 455.51953125 675 463.919921875 675 c 256,72,73
 472.319335938 675 472.319335938 675 486.119140625 672 c 128,-1,74
 499.919921875 669 499.919921875 669 511.919921875 662 c 0,75,76
 526.319335938 654 526.319335938 654 529.319335938 645 c 0,77,78
 534.802734375 630.783203125 534.802734375 630.783203125 525.119140625 620 c 2,79,-1
 389.51953125 469 l 2,80,81
 370.319335938 448 370.319335938 448 370.319335938 432 c 0,82,83
 370.319335938 428 370.319335938 428 378.119140625 417.5 c 0,84,85
 382.319335938 411 382.319335938 411 402.719726562 381 c 2,86,-1
 550.319335938 3 l 2,87,88
 552.719726562 -2 552.719726562 -2 549.119140625 -8.5 c 0,89,90
 544.319335938 -16 544.319335938 -16 533.51953125 -23 c 128,-1,91
 522.719726562 -30 522.719726562 -30 507.119140625 -35 c 128,-1,92
 491.51953125 -40 491.51953125 -40 473.51953125 -40 c 0,93,94
 467.51953125 -40 467.51953125 -40 458.51953125 -38 c 0,95,96
 447.323242188 -36.0361328125 447.323242188 -36.0361328125 444.719726562 -29 c 2,97,-1
 321.119140625 305 l 2,98,99
 319.919921875 308 319.919921875 308 309.719726562 321.5 c 0,100,101
 304.319335938 329 304.319335938 329 299.51953125 329 c 256,102,103
 294.719726562 329 294.719726562 329 290.51953125 323 c 0,104,105
 288.719726562 320 288.719726562 320 275.51953125 302 c 2,106,-1
 163.919921875 -6 l 2,107,108
 157.919921875 -22 157.919921875 -22 131.51953125 -35 c 0,109,110
 114.719726562 -43 114.719726562 -43 94.3193359375 -43 c 0,38,39
456.719726562 635 m 0,111,112
 456.719726562 641 456.719726562 641 469.919921875 652 c 256,113,114
 483.119140625 663 483.119140625 663 475.919921875 663 c 0,115,116
 469.919921875 663 469.919921875 663 462.719726562 660.5 c 128,-1,117
 455.51953125 658 455.51953125 658 449.51953125 650 c 0,118,119
 442.319335938 639 442.319335938 639 444.119140625 634.5 c 128,-1,120
 445.919921875 630 445.919921875 630 449.51953125 630 c 0,121,122
 456.719726562 630 456.719726562 630 456.719726562 635 c 0,111,112
97.919921875 622 m 0,123,124
 97.919921875 634 97.919921875 634 104.51953125 638.5 c 128,-1,125
 111.119140625 643 111.119140625 643 109.919921875 647 c 0,126,127
 107.51953125 655 107.51953125 655 99.119140625 655 c 0,128,129
 94.3193359375 655 94.3193359375 655 89.51953125 649.5 c 128,-1,130
 84.7197265625 644 84.7197265625 644 82.3193359375 636 c 128,-1,131
 79.919921875 628 79.919921875 628 80.51953125 619 c 128,-1,132
 81.119140625 610 81.119140625 610 85.919921875 603 c 0,133,134
 90.7197265625 597 90.7197265625 597 95.51953125 598 c 0,135,136
 101.51953125 600 101.51953125 600 99.7197265625 608.5 c 128,-1,137
 97.919921875 617 97.919921875 617 97.919921875 622 c 0,123,124
481.919921875 -27 m 0,138,139
 485.51953125 -22 485.51953125 -22 468.719726562 -13 c 0,140,141
 465.119140625 -11 465.119140625 -11 460.319335938 -5.5 c 128,-1,142
 455.51953125 0 455.51953125 0 451.919921875 6 c 128,-1,143
 448.319335938 12 448.319335938 12 444.719726562 17 c 128,-1,144
 441.119140625 22 441.119140625 22 438.719726562 22 c 0,145,146
 432.719726562 22 432.719726562 22 432.719726562 16 c 0,147,148
 432.719726562 12 432.719726562 12 435.719726562 5 c 128,-1,149
 438.719726562 -2 438.719726562 -2 444.119140625 -9.5 c 128,-1,150
 449.51953125 -17 449.51953125 -17 456.119140625 -23 c 128,-1,151
 462.719726562 -29 462.719726562 -29 469.919921875 -30 c 0,152,153
 473.51953125 -30 473.51953125 -30 477.719726562 -30 c 0,154,155
 479.51953125 -30 479.51953125 -30 481.919921875 -27 c 0,138,139
83.51953125 -20 m 0,156,157
 81.119140625 -16 81.119140625 -16 75.7197265625 -10 c 128,-1,158
 70.3193359375 -4 70.3193359375 -4 72.7197265625 1 c 0,159,160
 75.119140625 9 75.119140625 9 72.119140625 9 c 128,-1,161
 69.119140625 9 69.119140625 9 65.51953125 3 c 0,162,163
 60.7197265625 -5 60.7197265625 -5 64.919921875 -15 c 128,-1,164
 69.119140625 -25 69.119140625 -25 75.119140625 -27 c 0,165,166
 79.919921875 -29 79.919921875 -29 83.51953125 -27.5 c 128,-1,167
 87.119140625 -26 87.119140625 -26 83.51953125 -20 c 0,156,157
EndSplineSet
EndChar

